<?xml version="1.0" encoding="UTF-8" standalone="no"?>
<!-- Created with Inkscape (http://www.inkscape.org/) -->

<svg
   xmlns:dc="http://purl.org/dc/elements/1.1/"
   xmlns:cc="http://creativecommons.org/ns#"
   xmlns:rdf="http://www.w3.org/1999/02/22-rdf-syntax-ns#"
   xmlns:svg="http://www.w3.org/2000/svg"
   xmlns="http://www.w3.org/2000/svg"
   xmlns:sodipodi="http://sodipodi.sourceforge.net/DTD/sodipodi-0.dtd"
   xmlns:inkscape="http://www.inkscape.org/namespaces/inkscape"
   width="700"
   height="300"
   viewBox="0 0 185.20833 79.375002"
   version="1.1"
   id="svg6783"
   inkscape:version="0.92.1 r15371"
   sodipodi:docname="anatheo.svg">
  <sodipodi:namedview
     id="base"
     pagecolor="#ffffff"
     bordercolor="#666666"
     borderopacity="1.0"
     inkscape:pageopacity="0.0"
     inkscape:pageshadow="2"
     inkscape:zoom="0.98994949"
     inkscape:cx="329.25392"
     inkscape:cy="171.25338"
     inkscape:document-units="mm"
     inkscape:current-layer="layer1"
     showgrid="false"
     units="px"
     inkscape:window-width="1280"
     inkscape:window-height="741"
     inkscape:window-x="0"
     inkscape:window-y="0"
     inkscape:window-maximized="1" />
  <defs
     id="defs6777" />
  <metadata
     id="metadata6780">
    <rdf:RDF>
      <cc:Work
         rdf:about="">
        <dc:format>image/svg+xml</dc:format>
        <dc:type
           rdf:resource="http://purl.org/dc/dcmitype/StillImage" />
        <dc:title></dc:title>
      </cc:Work>
    </rdf:RDF>
  </metadata>
  <g
     transform="translate(0,-217.62498)"
     id="layer1"
     inkscape:groupmode="layer"
     inkscape:label="Layer 1">
    <g
       id="g7689"
       transform="matrix(2.4409805,0,0,4.6452981,-64.952872,-173.84297)">
      <g
         word-spacing="normal"
         letter-spacing="normal"
         font-size-adjust="none"
         font-stretch="normal"
         font-weight="normal"
         font-variant="normal"
         font-style="normal"
         stroke-miterlimit="10.433"
         xml:space="preserve"
         transform="matrix(0.11339286,0,0,-0.11339286,-19.84375,138.90625)"
         id="content"
         style="font-style:normal;font-variant:normal;font-weight:normal;font-stretch:normal;letter-spacing:normal;word-spacing:normal;text-anchor:start;fill:none;fill-opacity:1;fill-rule:evenodd;stroke:#000000;stroke-linecap:butt;stroke-linejoin:miter;stroke-miterlimit:10.43299961;stroke-dasharray:none;stroke-dashoffset:0;stroke-opacity:1"><path
           id="path7642"
           d="m 474.16,418.7 0.04,0.16 0.04,0.16 0.04,0.15 0.04,0.15 0.04,0.13 0.05,0.13 0.05,0.13 0.05,0.11 0.06,0.11 0.06,0.11 0.08,0.1 0.08,0.09 0.09,0.09 0.1,0.08 0.11,0.07 0.12,0.07 0.13,0.07 0.15,0.06 0.16,0.06 0.18,0.05 0.09,0.02 0.1,0.02 0.1,0.02 0.11,0.02 0.11,0.02 0.11,0.02 0.12,0.01 0.13,0.02 0.13,0.01 0.14,0.02 0.14,0.01 0.14,0.01 0.15,0.01 0.16,0.01 0.16,0.01 0.17,0.01 h 0.17 l 0.18,0.01 h 0.18 l 0.19,0.01 h 0.2 0.2 0.21 0.22 c 1.49,0 1.89,0 1.89,0.96 0,0.59 -0.54,0.59 -0.79,0.59 -1.66,0 -5.74,-0.16 -7.38,-0.16 -1.5,0 -5.14,0.16 -6.62,0.16 -0.36,0 -0.96,0 -0.96,-1 0,-0.55 0.46,-0.55 1.39,-0.55 0.11,0 1.05,0 1.91,-0.09 0.89,-0.11 1.34,-0.16 1.34,-0.8 0,-0.2 -0.06,-0.36 -0.2,-0.95 l -6.67,-26.75 c -0.5,-1.95 -0.61,-2.34 -4.55,-2.34 -0.84,0 -1.34,0 -1.34,-1 0,-0.55 0.45,-0.55 1.34,-0.55 h 23.08 c 1.19,0 1.23,0 1.55,0.84 l 3.92,10.77 c 0.2,0.54 0.2,0.64 0.2,0.7 0,0.19 -0.14,0.55 -0.59,0.55 -0.46,0 -0.5,-0.25 -0.85,-1.05 -1.7,-4.59 -3.89,-10.26 -12.51,-10.26 h -4.67 c -0.71,0 -0.8,0 -1.1,0.04 -0.5,0.05 -0.65,0.1 -0.65,0.5 0,0.14 0,0.25 0.25,1.14 z"
           inkscape:connector-curvature="0"
           style="fill:#000000;stroke-width:0" /><path
           id="path7644"
           d="m 505.96,376.61 v 0.02 0.03 0.01 0.02 l -0.01,0.01 v 0.02 l -0.01,0.01 v 0.02 l -0.01,0.02 -0.01,0.02 -0.02,0.02 -0.01,0.03 -0.02,0.02 -0.01,0.03 -0.03,0.03 -0.02,0.03 -0.03,0.03 -0.03,0.04 -0.01,0.02 -0.02,0.02 -0.01,0.02 -0.02,0.02 -0.02,0.02 -0.02,0.02 -0.02,0.03 -0.03,0.02 -0.02,0.03 -0.02,0.02 -0.03,0.03 -0.02,0.03 -0.03,0.03 -0.03,0.02 -0.02,0.03 -0.03,0.04 -0.04,0.03 -0.03,0.03 -0.03,0.03 -0.03,0.04 -0.04,0.04 -0.04,0.03 -0.03,0.04 -0.04,0.04 c -6.22,6.28 -7.82,15.69 -7.82,23.31 0,8.67 1.9,17.35 8.02,23.56 0.64,0.61 0.64,0.71 0.64,0.86 0,0.35 -0.19,0.49 -0.48,0.49 -0.5,0 -4.99,-3.38 -7.93,-9.71 -2.54,-5.48 -3.14,-11.01 -3.14,-15.2 0,-3.89 0.55,-9.9 3.29,-15.55 2.98,-6.12 7.28,-9.35 7.78,-9.35 0.29,0 0.48,0.14 0.48,0.5 z"
           inkscape:connector-curvature="0"
           style="fill:#000000;stroke-width:0" /><path
           id="path7646"
           d="m 528.28,407.2 -0.13,-0.01 -0.13,-0.01 -0.13,-0.02 -0.12,-0.03 -0.12,-0.03 -0.12,-0.04 -0.11,-0.04 -0.11,-0.04 -0.11,-0.06 -0.1,-0.05 -0.1,-0.06 -0.1,-0.06 -0.09,-0.07 -0.09,-0.07 -0.08,-0.07 -0.09,-0.08 -0.07,-0.08 -0.08,-0.08 -0.06,-0.09 -0.07,-0.08 -0.06,-0.09 -0.05,-0.1 -0.05,-0.09 -0.05,-0.1 -0.04,-0.09 -0.03,-0.1 -0.03,-0.1 -0.03,-0.1 -0.02,-0.1 -0.01,-0.11 -0.01,-0.1 v -0.1 c 0,-0.7 0.43,-1.44 1.54,-1.44 1.1,0 2.29,0.85 2.29,2.78 0,2.25 -2.15,4.28 -5.93,4.28 -6.57,0 -8.42,-5.07 -8.42,-7.26 0,-3.89 3.69,-4.64 5.13,-4.94 2.59,-0.5 5.18,-1.05 5.18,-3.78 0,-1.3 -1.14,-5.48 -7.12,-5.48 -0.71,0 -4.53,0 -5.69,2.64 1.91,-0.25 3.14,1.25 3.14,2.64 0,1.14 -0.79,1.75 -1.84,1.75 -1.3,0 -2.78,-1.05 -2.78,-3.3 0,-2.84 2.84,-4.83 7.12,-4.83 8.06,0 10.02,6.03 10.02,8.27 0,1.79 -0.96,3.04 -1.55,3.64 -1.34,1.39 -2.8,1.64 -4.98,2.09 -1.8,0.39 -3.78,0.75 -3.78,2.99 0,1.45 1.18,4.48 5.57,4.48 1.24,0 3.74,-0.34 4.49,-2.28 z"
           inkscape:connector-curvature="0"
           style="fill:#000000;stroke-width:0" /><path
           id="path7648"
           d="m 542.3,388.61 v 0.3 l -0.01,0.3 -0.02,0.29 -0.03,0.28 -0.03,0.27 -0.04,0.26 -0.04,0.26 -0.05,0.24 -0.06,0.24 -0.07,0.23 -0.07,0.22 -0.07,0.21 -0.09,0.2 -0.08,0.19 -0.1,0.19 -0.1,0.17 -0.11,0.16 -0.11,0.16 -0.12,0.14 -0.12,0.13 -0.13,0.13 -0.13,0.11 -0.14,0.1 -0.14,0.1 -0.15,0.08 -0.16,0.07 -0.16,0.06 -0.16,0.05 -0.17,0.04 -0.17,0.03 -0.18,0.01 -0.18,0.01 c -1.64,0 -2.64,-1.25 -2.64,-2.64 0,-1.34 1,-2.64 2.64,-2.64 0.6,0 1.25,0.2 1.75,0.64 0.14,0.11 0.21,0.16 0.25,0.16 0.05,0 0.1,-0.05 0.1,-0.75 0,-3.69 -1.74,-6.68 -3.39,-8.32 -0.55,-0.54 -0.55,-0.65 -0.55,-0.79 0,-0.36 0.25,-0.55 0.5,-0.55 0.55,0 4.53,3.83 4.53,9.66 z"
           inkscape:connector-curvature="0"
           style="fill:#000000;stroke-width:0" /><path
           id="path7650"
           d="m 583.32,408.64 0.02,0.02 0.03,0.03 0.02,0.02 0.02,0.02 0.02,0.03 0.03,0.02 0.02,0.02 0.02,0.02 0.02,0.02 0.01,0.02 0.02,0.02 0.02,0.02 0.02,0.02 0.01,0.02 0.02,0.01 0.01,0.02 0.02,0.02 0.01,0.01 0.01,0.02 0.02,0.01 0.02,0.03 0.02,0.03 0.02,0.02 0.02,0.03 0.01,0.02 0.01,0.02 0.02,0.02 0.01,0.02 0.01,0.02 v 0.02 l 0.01,0.01 0.01,0.02 v 0.02 0.01 l 0.01,0.01 v 0.02 0.03 0.03 0.02 c 0,0.3 -0.2,0.6 -0.59,0.6 -0.3,0 -0.5,-0.25 -0.8,-0.6 l -11.4,-12.7 c -2,6.33 -2.41,7.58 -3.55,10.22 -0.55,1.14 -1.64,3.62 -6.03,3.62 -2.89,0 -4.17,-2.57 -4.17,-3.28 0,-0.04 0,-0.5 0.59,-0.5 0.44,0 0.55,0.3 0.64,0.55 0.75,1.94 2.35,2.14 2.64,2.14 1.5,0 3,-3.78 3.84,-5.97 1.6,-3.94 3.19,-9.72 3.19,-9.87 0,-0.05 0,-0.14 -0.4,-0.55 l -11.46,-12.8 c -0.54,-0.54 -0.54,-0.65 -0.54,-0.79 0,-0.3 0.29,-0.61 0.59,-0.61 0.34,0 0.59,0.36 0.8,0.54 l 11.4,12.82 c 1.6,-5.19 2.21,-7.13 3.39,-9.93 0.66,-1.48 1.75,-3.98 6.19,-3.98 2.88,0 4.24,2.59 4.24,3.25 0,0.25 -0.11,0.55 -0.61,0.55 -0.5,0 -0.55,-0.21 -0.69,-0.71 -0.45,-1.18 -1.7,-2 -2.64,-2 -2.55,0 -5.94,12.07 -7.03,15.91 z"
           inkscape:connector-curvature="0"
           style="fill:#000000;stroke-width:0" /><path
           id="path7652"
           d="m 599.86,401.01 v 0.37 l -0.01,0.39 -0.01,0.39 -0.01,0.41 -0.04,0.84 -0.06,0.88 -0.08,0.92 -0.11,0.95 -0.13,0.97 -0.17,1 -0.19,1.03 -0.23,1.03 -0.27,1.05 -0.31,1.06 -0.34,1.07 -0.4,1.07 -0.21,0.53 -0.22,0.53 -0.24,0.53 -0.25,0.53 c -2.99,6.12 -7.27,9.36 -7.77,9.36 -0.29,0 -0.5,-0.19 -0.5,-0.49 0,-0.15 0,-0.25 0.94,-1.15 4.89,-4.92 7.73,-12.85 7.73,-23.27 0,-8.51 -1.84,-17.28 -8.03,-23.56 -0.64,-0.59 -0.64,-0.7 -0.64,-0.84 0,-0.3 0.21,-0.5 0.5,-0.5 0.5,0 4.97,3.39 7.92,9.71 2.54,5.47 3.13,11 3.13,15.19 z"
           inkscape:connector-curvature="0"
           style="fill:#000000;stroke-width:0" /><path
           id="path7654"
           d="m 652.94,404.86 h 0.14 0.14 0.15 l 0.07,0.01 h 0.07 l 0.07,0.01 0.07,0.01 0.07,0.01 0.07,0.01 0.07,0.01 0.07,0.02 0.06,0.02 0.07,0.02 0.06,0.02 0.06,0.03 0.05,0.03 0.05,0.04 0.05,0.03 0.05,0.05 0.04,0.04 0.04,0.05 0.02,0.03 0.02,0.02 0.02,0.03 0.01,0.03 0.02,0.03 0.01,0.04 0.01,0.03 0.01,0.03 0.01,0.04 0.01,0.04 0.01,0.04 v 0.04 l 0.01,0.04 v 0.04 0.04 0.05 c 0,1 -0.95,1 -1.64,1 h -29.84 c -0.7,0 -1.64,0 -1.64,-1 0,-0.98 0.94,-0.98 1.69,-0.98 z"
           inkscape:connector-curvature="0"
           style="fill:#000000;stroke-width:0" /><path
           id="path7656"
           d="m 652.98,395.18 h 0.07 0.07 l 0.13,0.01 h 0.14 0.07 l 0.07,0.01 0.07,0.01 h 0.07 l 0.07,0.01 0.07,0.02 0.06,0.01 0.07,0.02 0.06,0.02 0.06,0.02 0.06,0.02 0.06,0.03 0.05,0.03 0.06,0.04 0.05,0.04 0.04,0.04 0.05,0.05 0.02,0.02 0.02,0.03 0.01,0.02 0.02,0.03 0.02,0.03 0.01,0.03 0.02,0.03 0.01,0.03 0.01,0.04 0.01,0.03 0.01,0.04 0.01,0.04 0.01,0.04 v 0.04 l 0.01,0.04 v 0.04 0.05 0.04 c 0,1 -0.95,1 -1.68,1 h -29.75 c -0.75,0 -1.69,0 -1.69,-1 0,-1 0.94,-1 1.64,-1 z"
           inkscape:connector-curvature="0"
           style="fill:#000000;stroke-width:0" /><path
           id="path7658"
           d="m 689.17,376.05 v 2 c -5.14,0 -5.14,2.44 -5.14,3.94 v 41.89 h 21.49 v -41.89 c 0,-1.5 0,-3.94 -5.14,-3.94 v -2 h 15.09 v 2 c -5.13,0 -5.13,2.44 -5.13,3.94 v 37.97 c 0,1.48 0,3.92 5.13,3.92 v 2 h -41.39 v -2 c 5.12,0 5.12,-2.44 5.12,-3.92 v -37.97 c 0,-1.5 0,-3.94 -5.12,-3.94 v -2 z"
           inkscape:connector-curvature="0"
           style="fill:#000000;stroke-width:0" /><path
           id="path7660"
           d="m 720.93,369.31 -0.02,-0.09 -0.02,-0.09 -0.02,-0.08 -0.02,-0.08 -0.02,-0.07 -0.03,-0.07 -0.02,-0.07 -0.02,-0.06 -0.02,-0.06 -0.03,-0.06 -0.03,-0.05 -0.03,-0.05 -0.03,-0.05 -0.03,-0.04 -0.04,-0.04 -0.04,-0.04 -0.04,-0.03 -0.05,-0.03 -0.05,-0.03 -0.06,-0.03 -0.05,-0.02 -0.07,-0.02 -0.07,-0.02 -0.07,-0.01 -0.08,-0.02 h -0.05 l -0.04,-0.01 -0.05,-0.01 h -0.04 -0.05 l -0.05,-0.01 h -0.05 -0.06 l -0.05,-0.01 h -0.06 -0.06 -0.06 -0.06 -0.06 c -0.46,0 -0.94,0 -0.94,-0.74 0,-0.39 0.31,-0.53 0.48,-0.53 0.91,0 2.07,0.14 3,0.14 1.19,0 2.5,-0.14 3.66,-0.14 0.31,0 0.7,0.11 0.7,0.77 0,0.5 -0.5,0.5 -0.9,0.5 -0.78,0 -1.72,0 -1.72,0.4 0,0.19 0.25,1.1 0.39,1.61 0.42,1.85 0.9,3.74 1.28,5.19 0.42,-0.69 1.5,-2.05 3.59,-2.05 v 0.97 c -2.47,0 -3.09,2.69 -3.09,3.03 0,0.15 0.06,0.4 0.09,0.54 l 1.75,7 c 2.02,2.68 3.77,3.2 4.88,3.2 1.36,0 2.55,-1.02 2.55,-3.38 0,-1.43 -0.77,-4.98 -1.82,-7.01 -0.87,-1.7 -2.58,-3.38 -4.36,-3.38 v -0.97 c 4.25,0 8.96,4.71 8.96,9.9 0,4.07 -2.83,5.81 -5.22,5.81 -2.17,0 -4.02,-1.46 -4.96,-2.44 -0.59,1.98 -2.54,2.44 -3.59,2.44 -1.36,0 -2.19,-0.91 -2.75,-1.85 -0.7,-1.18 -1.25,-3.26 -1.25,-3.48 0,-0.45 0.49,-0.45 0.59,-0.45 0.49,0 0.52,0.11 0.77,1.04 0.52,2.03 1.19,3.77 2.55,3.77 0.9,0 1.14,-0.77 1.14,-1.7 0,-0.39 -0.06,-0.85 -0.11,-1.05 z"
           inkscape:connector-curvature="0"
           style="fill:#000000;stroke-width:0" /><path
           id="path7662"
           d="m 775.3,356.79 v -0.01 h 0.01 v 0 l 0.01,-0.01 h 0.01 v -0.01 l 0.01,-0.01 h 0.01 l 0.01,-0.01 v -0.01 l 0.02,-0.01 0.02,-0.02 0.02,-0.02 0.02,-0.02 0.03,-0.02 0.02,-0.03 0.02,-0.02 0.03,-0.02 0.02,-0.03 0.05,-0.05 0.03,-0.02 0.02,-0.02 0.02,-0.03 0.03,-0.02 0.02,-0.02 0.02,-0.02 0.02,-0.02 0.02,-0.02 0.02,-0.02 0.01,-0.01 0.01,-0.01 v 0 l 0.01,-0.01 h 0.01 l 0.01,-0.01 v -0.01 h 0.01 v 0 l 0.01,-0.01 v 0 h 0.01 v 0 0 H 777 c 0.14,0 0.55,0.05 0.55,0.5 0,0.2 -0.11,0.3 -0.21,0.45 -1.79,1.8 -4.48,4.53 -7.57,10.02 -5.38,9.56 -7.38,21.87 -7.38,33.83 0,22.12 6.28,35.12 15,43.93 0.16,0.16 0.16,0.3 0.16,0.41 0,0.5 -0.36,0.5 -0.96,0.5 -0.64,0 -0.75,0 -1.2,-0.41 -4.72,-4.08 -10.06,-11.01 -13.5,-21.51 -2.14,-6.58 -3.28,-14.61 -3.28,-22.88 0,-11.81 2.14,-25.15 9.97,-36.72 1.34,-1.93 3.19,-3.98 3.19,-4.03 0.5,-0.59 1.18,-1.4 1.59,-1.75 z"
           inkscape:connector-curvature="0"
           style="fill:#000000;stroke-width:0" /><path
           id="path7664"
           d="m 794.04,420.45 v 0.05 0.06 0.05 0.05 0.05 0.05 0.04 0.05 0.04 l -0.01,0.04 v 0.04 0.04 0.04 0.03 l -0.01,0.04 v 0.03 l -0.01,0.07 -0.01,0.06 -0.01,0.05 -0.01,0.05 -0.02,0.05 -0.02,0.04 -0.02,0.04 -0.02,0.03 -0.03,0.03 -0.03,0.03 -0.04,0.03 -0.04,0.02 -0.04,0.02 -0.03,0.01 h -0.02 l -0.03,0.01 -0.02,0.01 h -0.03 l -0.03,0.01 -0.03,0.01 h -0.04 -0.03 l -0.03,0.01 h -0.04 -0.04 l -0.04,0.01 h -0.04 -0.04 -0.04 -0.04 -0.05 l -0.05,0.01 H 793 792.95 792.9 c -3.1,-3.19 -7.47,-3.19 -9.06,-3.19 v -1.55 c 1,0 3.93,0 6.51,1.3 V 392.5 c 0,-1.8 -0.14,-2.39 -4.62,-2.39 h -1.6 v -1.55 c 1.75,0.15 6.08,0.15 8.07,0.15 2,0 6.32,0 8.07,-0.15 v 1.55 h -1.59 c -4.48,0 -4.64,0.54 -4.64,2.39 z"
           inkscape:connector-curvature="0"
           style="fill:#000000;stroke-width:0" /><path
           id="path7666"
           d="m 848.23,400.01 h 0.16 0.15 l 0.16,0.01 h 0.08 l 0.08,0.01 h 0.07 l 0.08,0.01 0.07,0.01 0.07,0.01 0.07,0.02 0.07,0.02 0.06,0.01 0.07,0.03 0.06,0.02 0.06,0.03 0.05,0.03 0.06,0.04 0.04,0.03 0.05,0.05 0.04,0.04 0.04,0.05 0.02,0.03 0.02,0.03 0.01,0.03 0.02,0.03 0.01,0.03 0.01,0.03 0.02,0.04 0.01,0.03 0.01,0.04 v 0.04 l 0.01,0.04 0.01,0.04 v 0.04 0.04 l 0.01,0.05 v 0.04 c 0,1 -0.91,1 -1.75,1 h -26.96 c -0.84,0 -1.73,0 -1.73,-1 0,-1 0.89,-1 1.73,-1 z"
           inkscape:connector-curvature="0"
           style="fill:#000000;stroke-width:0" /><path
           id="path7668"
           d="m 893.78,426.41 0.03,0.04 0.04,0.03 0.03,0.03 0.03,0.03 0.03,0.03 0.03,0.03 0.02,0.03 0.03,0.02 0.02,0.03 0.02,0.02 0.02,0.02 0.02,0.02 0.02,0.03 0.02,0.02 0.01,0.02 0.02,0.02 0.01,0.02 0.01,0.01 0.01,0.02 0.01,0.02 0.01,0.02 0.01,0.02 0.01,0.02 v 0.01 l 0.01,0.02 v 0.02 0.02 l 0.01,0.02 v 0.02 0.02 0.02 0.02 c 0,0.33 -0.23,0.57 -0.54,0.57 -0.29,0 -0.37,-0.11 -0.74,-0.49 l -8.44,-8.64 c -1.5,4.11 -1.81,4.98 -2.92,7.08 -0.84,1.56 -2.3,2.39 -4.75,2.39 -2.47,0 -3.4,-1.91 -3.4,-2.39 0,-0.45 0.45,-0.45 0.59,-0.45 0.45,0 0.51,0.17 0.59,0.4 0.42,1.13 1.42,1.47 1.95,1.47 1.12,0 2.54,-2.97 3.04,-4 0.86,-1.86 1.04,-2.31 2.64,-6.8 l -8.99,-9.2 c -0.25,-0.31 -0.34,-0.39 -0.34,-0.59 0,-0.28 0.27,-0.57 0.55,-0.57 0.25,0 0.34,0.11 0.67,0.39 0.72,0.71 2.47,2.58 3.2,3.32 l 2.92,3 c 0.56,0.51 1.93,1.87 2.41,2.43 0.59,-1.71 1.73,-5.06 3.06,-7.35 1.16,-2.05 3.77,-2.13 4.61,-2.13 2.33,0 3.38,1.81 3.38,2.41 0,0.45 -0.43,0.45 -0.6,0.45 -0.42,0 -0.48,-0.17 -0.59,-0.42 -0.34,-0.97 -1.28,-1.46 -1.92,-1.46 -1.91,0 -4.88,8.19 -5.67,10.8 z"
           inkscape:connector-curvature="0"
           style="fill:#000000;stroke-width:0" /><path
           id="path7670"
           d="m 908.41,438.82 -0.6,-0.45 -0.58,-0.46 -0.55,-0.47 -0.53,-0.49 -0.5,-0.5 -0.47,-0.51 -0.45,-0.53 -0.42,-0.53 -0.4,-0.54 -0.37,-0.55 -0.36,-0.56 -0.33,-0.56 -0.31,-0.57 -0.28,-0.57 -0.27,-0.58 -0.25,-0.58 -0.23,-0.58 -0.2,-0.58 -0.2,-0.59 -0.17,-0.58 -0.15,-0.58 -0.14,-0.58 -0.13,-0.57 -0.1,-0.57 -0.1,-0.57 -0.08,-0.56 -0.06,-0.55 -0.05,-0.54 -0.04,-0.54 -0.03,-0.53 -0.02,-0.51 v -0.51 c 0,-4.92 1.47,-12.55 8.37,-17.42 0.29,0 0.69,0 0.69,0.4 0,0.22 -0.09,0.29 -0.34,0.54 -4.64,4.18 -6.35,10.1 -6.35,16.45 0,9.4 3.6,14 6.46,16.58 0.14,0.14 0.23,0.25 0.23,0.42 0,0.42 -0.4,0.42 -0.69,0.42 z"
           inkscape:connector-curvature="0"
           style="fill:#000000;stroke-width:0" /><path
           id="path7672"
           d="m 914.25,408.43 -0.03,-0.09 -0.02,-0.09 -0.02,-0.08 -0.02,-0.08 -0.02,-0.07 -0.02,-0.07 -0.02,-0.07 -0.02,-0.06 -0.03,-0.06 -0.02,-0.06 -0.03,-0.05 -0.03,-0.05 -0.03,-0.04 -0.03,-0.05 -0.04,-0.04 -0.04,-0.03 -0.05,-0.04 -0.04,-0.03 -0.05,-0.03 -0.06,-0.02 -0.06,-0.03 -0.06,-0.02 -0.07,-0.02 -0.08,-0.01 -0.08,-0.02 h -0.04 l -0.04,-0.01 h -0.05 l -0.05,-0.01 h -0.04 l -0.05,-0.01 h -0.06 -0.05 -0.05 l -0.06,-0.01 h -0.06 -0.06 -0.06 -0.07 c -0.45,0 -0.94,0 -0.94,-0.73 0,-0.4 0.32,-0.54 0.49,-0.54 0.91,0 2.06,0.14 3,0.14 1.19,0 2.5,-0.14 3.66,-0.14 0.31,0 0.7,0.11 0.7,0.77 0,0.5 -0.5,0.5 -0.91,0.5 -0.78,0 -1.72,0 -1.72,0.41 0,0.18 0.25,1.09 0.4,1.61 0.42,1.84 0.9,3.73 1.28,5.18 0.42,-0.68 1.5,-2.04 3.59,-2.04 v 0.96 c -2.47,0 -3.09,2.69 -3.09,3.04 0,0.14 0.06,0.39 0.09,0.53 l 1.75,7 c 2.01,2.68 3.76,3.2 4.88,3.2 1.35,0 2.54,-1.02 2.54,-3.37 0,-1.44 -0.76,-4.99 -1.81,-7.02 -0.88,-1.7 -2.58,-3.38 -4.36,-3.38 v -0.96 c 4.25,0 8.95,4.7 8.95,9.89 0,4.07 -2.82,5.81 -5.22,5.81 -2.17,0 -4.01,-1.45 -4.95,-2.44 -0.59,1.99 -2.55,2.44 -3.59,2.44 -1.36,0 -2.19,-0.91 -2.75,-1.84 -0.71,-1.19 -1.25,-3.27 -1.25,-3.49 0,-0.45 0.48,-0.45 0.59,-0.45 0.48,0 0.52,0.11 0.77,1.04 0.51,2.04 1.18,3.77 2.54,3.77 0.91,0 1.14,-0.77 1.14,-1.7 0,-0.39 -0.06,-0.85 -0.1,-1.05 z"
           inkscape:connector-curvature="0"
           style="fill:#000000;stroke-width:0" /><path
           id="path7674"
           d="m 935.3,438.82 h -0.03 -0.02 -0.03 -0.02 -0.03 -0.03 -0.03 l -0.02,-0.01 h -0.03 -0.03 L 935,438.8 h -0.03 l -0.02,-0.01 -0.03,-0.01 h -0.03 l -0.02,-0.01 -0.03,-0.01 -0.02,-0.02 -0.03,-0.01 -0.02,-0.01 -0.02,-0.02 -0.02,-0.02 -0.02,-0.02 -0.01,-0.01 -0.01,-0.01 v -0.01 l -0.01,-0.01 -0.01,-0.01 v -0.02 l -0.01,-0.01 -0.01,-0.01 v -0.02 l -0.01,-0.01 v -0.02 -0.01 l -0.01,-0.02 v -0.02 -0.02 -0.01 -0.02 l -0.01,-0.02 c 0,-0.17 0.11,-0.28 0.32,-0.53 3,-2.75 6.34,-7.46 6.34,-16.44 0,-7.28 -2.26,-12.8 -6.03,-16.2 -0.58,-0.6 -0.63,-0.63 -0.63,-0.82 0,-0.17 0.11,-0.4 0.46,-0.4 0.42,0 3.73,2.29 6.03,6.65 1.53,2.89 2.55,6.66 2.55,10.74 0,4.9 -1.47,12.53 -8.36,17.42 z"
           inkscape:connector-curvature="0"
           style="fill:#000000;stroke-width:0" /><polyline
           id="polyline7676"
           points="871,400 947.56,400 947.56,402.04 871,402.04 "
           style="fill:#000000;fill-rule:nonzero;stroke-width:0" /><path
           id="path7678"
           d="m 892.17,367.15 -0.02,-0.09 -0.02,-0.09 -0.02,-0.08 -0.03,-0.08 -0.02,-0.07 -0.02,-0.07 -0.02,-0.07 -0.02,-0.06 -0.03,-0.06 -0.02,-0.06 -0.03,-0.05 -0.03,-0.05 -0.03,-0.05 -0.03,-0.04 -0.04,-0.04 -0.04,-0.04 -0.04,-0.03 -0.05,-0.03 -0.05,-0.03 -0.06,-0.03 -0.06,-0.02 -0.06,-0.02 -0.07,-0.02 -0.08,-0.02 -0.08,-0.01 -0.04,-0.01 h -0.04 l -0.05,-0.01 h -0.04 -0.05 l -0.05,-0.01 h -0.05 -0.06 l -0.05,-0.01 h -0.06 -0.06 -0.06 -0.06 -0.06 c -0.46,0 -0.94,0 -0.94,-0.74 0,-0.39 0.31,-0.53 0.48,-0.53 0.91,0 2.06,0.14 3,0.14 1.19,0 2.5,-0.14 3.66,-0.14 0.31,0 0.7,0.11 0.7,0.77 0,0.5 -0.5,0.5 -0.9,0.5 -0.79,0 -1.72,0 -1.72,0.4 0,0.19 0.25,1.1 0.39,1.61 0.42,1.85 0.9,3.74 1.28,5.19 0.42,-0.69 1.5,-2.05 3.59,-2.05 v 0.97 c -2.47,0 -3.09,2.69 -3.09,3.03 0,0.15 0.06,0.4 0.09,0.54 l 1.75,7 c 2.02,2.68 3.77,3.2 4.88,3.2 1.36,0 2.54,-1.02 2.54,-3.38 0,-1.43 -0.76,-4.98 -1.81,-7.01 -0.87,-1.7 -2.58,-3.38 -4.36,-3.38 v -0.97 c 4.25,0 8.96,4.71 8.96,9.9 0,4.07 -2.83,5.81 -5.22,5.81 -2.18,0 -4.02,-1.46 -4.96,-2.44 -0.59,1.98 -2.54,2.44 -3.59,2.44 -1.36,0 -2.19,-0.91 -2.75,-1.85 -0.7,-1.18 -1.25,-3.26 -1.25,-3.48 0,-0.45 0.48,-0.45 0.59,-0.45 0.49,0 0.52,0.11 0.77,1.04 0.51,2.03 1.19,3.77 2.54,3.77 0.91,0 1.15,-0.77 1.15,-1.7 0,-0.39 -0.07,-0.85 -0.11,-1.05 z"
           inkscape:connector-curvature="0"
           style="fill:#000000;stroke-width:0" /><path
           id="path7680"
           d="m 922.7,390.78 -0.04,-0.01 -0.04,-0.01 -0.03,-0.02 -0.04,-0.01 -0.04,-0.02 -0.03,-0.01 -0.07,-0.03 -0.06,-0.04 -0.06,-0.04 -0.05,-0.03 -0.05,-0.04 -0.05,-0.05 -0.05,-0.04 -0.04,-0.04 -0.04,-0.05 -0.03,-0.04 -0.03,-0.05 -0.03,-0.05 -0.03,-0.04 -0.03,-0.05 -0.02,-0.05 -0.02,-0.04 -0.02,-0.05 -0.01,-0.04 -0.02,-0.05 -0.01,-0.04 -0.01,-0.04 -0.01,-0.04 v -0.04 l -0.01,-0.04 v -0.03 l -0.01,-0.04 v -0.03 -0.02 -0.03 c 0,-0.62 0.51,-0.89 0.94,-0.89 0.29,0 1.32,0.22 1.32,1.53 0,1.67 -1.96,2.21 -3.84,2.21 -4.2,0 -5,-2.58 -5,-3.47 0,-0.89 0.52,-1.43 0.97,-1.77 0.69,-0.5 1.44,-0.59 2.77,-0.83 1.56,-0.25 3.31,-0.51 3.31,-1.79 0,-0.02 0,-2.58 -4.6,-2.58 -0.93,0 -2.48,0.06 -3.28,0.84 0.89,0.2 1.3,0.92 1.3,1.52 0,0.7 -0.53,1.01 -1.08,1.01 -0.84,0 -1.59,-0.67 -1.59,-1.78 0,-2.45 3.89,-2.45 4.61,-2.45 5.11,0 5.98,2.95 5.98,3.97 0,2.23 -2.73,2.67 -4.03,2.89 -1.78,0.26 -3,0.47 -3,1.5 0,0.01 0,2.08 3.59,2.08 0.64,0 1.97,-0.05 2.61,-0.74 z"
           inkscape:connector-curvature="0"
           style="fill:#000000;stroke-width:0" /><path
           id="path7682"
           d="m 974.48,401.08 -0.04,2.69 -0.12,2.71 -0.21,2.71 -0.3,2.71 -0.4,2.7 -0.5,2.69 -0.61,2.67 -0.71,2.63 -0.83,2.61 -0.46,1.28 -0.49,1.27 -0.52,1.26 -0.55,1.25 -0.59,1.23 -0.62,1.22 -0.65,1.2 -0.68,1.18 -0.72,1.17 -0.76,1.15 -0.79,1.12 -0.83,1.11 -0.86,1.08 -0.9,1.07 c -0.7,0.79 -2.55,2.73 -3.74,3.78 -0.35,0.31 -0.45,0.31 -1.1,0.31 -0.5,0 -0.94,0 -0.94,-0.5 0,-0.2 0.2,-0.41 0.29,-0.5 1.69,-1.75 4.4,-4.49 7.47,-9.97 5.4,-9.56 7.38,-21.87 7.38,-33.83 0,-21.62 -5.98,-34.83 -14.94,-43.94 -0.11,-0.1 -0.2,-0.25 -0.2,-0.4 0,-0.5 0.44,-0.5 0.94,-0.5 0.65,0 0.75,0 1.2,0.4 4.73,4.08 10.06,11 13.5,21.52 2.19,6.83 3.28,14.91 3.28,22.92 z"
           inkscape:connector-curvature="0"
           style="fill:#000000;stroke-width:0" /><path
           id="path7684"
           d="m 1009.3,441.43 h 0.1 v 0 l 0.1,0.01 h 0.2 v 0 l 0.1,0.01 v 0 l 0.1,0.01 v 0.01 l 0.1,0.01 0.1,0.01 v 0.01 l 0.1,0.02 v 0.02 l 0.1,0.02 v 0.02 l 0.1,0.03 v 0.03 l 0.1,0.03 v 0.04 0.04 l 0.1,0.02 v 0.02 0.02 0.03 0.02 0.03 0.02 l 0.1,0.03 v 0.03 0.03 0.03 0.03 0.03 0.04 0.03 0.04 0.04 0.04 c 0,0.86 -0.8,0.86 -1.4,0.86 h -20.75 c -0.56,0 -1.39,0 -1.39,-0.83 0,-0.88 0.8,-0.88 1.39,-0.88 z"
           inkscape:connector-curvature="0"
           style="fill:#000000;stroke-width:0" /><path
           id="path7686"
           d="m 1026.2,455.71 -0.1,0.05 v 0.04 0.04 0.04 0.04 0.04 0.04 0.03 0.03 0.04 0.03 0.03 0.03 0.03 0.02 0.03 0.03 0.02 0.02 0.03 0.04 0.04 0.03 l -0.1,0.03 v 0.03 0.02 0.03 l -0.1,0.02 v 0.01 0.02 l -0.1,0.01 v 0.01 0.01 h -0.1 v 0.01 0 0 l -0.1,0.01 v 0 0 h -0.1 v 0 0 l -0.1,0.01 v 0 0 h -0.1 v 0 h -0.1 v 0 h -0.1 v 0 c -2.2,-2.2 -5.4,-2.24 -6.8,-2.24 v -1.25 c 0.8,0 3.1,0 5,0.97 v -17.76 c 0,-1.16 0,-1.61 -3.5,-1.61 h -1.3 v -1.25 c 0.7,0.03 4.9,0.14 6.2,0.14 1.1,0 5.5,-0.11 6.3,-0.14 v 1.25 h -1.4 c -3.4,0 -3.4,0.45 -3.4,1.61 z"
           inkscape:connector-curvature="0"
           style="fill:#000000;stroke-width:0" /></g>    </g>
  </g>
</svg>
