<?xml version="1.0" encoding="UTF-8" standalone="no"?>
<!-- Created with Inkscape (http://www.inkscape.org/) -->

<svg
   xmlns:dc="http://purl.org/dc/elements/1.1/"
   xmlns:cc="http://creativecommons.org/ns#"
   xmlns:rdf="http://www.w3.org/1999/02/22-rdf-syntax-ns#"
   xmlns:svg="http://www.w3.org/2000/svg"
   xmlns="http://www.w3.org/2000/svg"
   xmlns:sodipodi="http://sodipodi.sourceforge.net/DTD/sodipodi-0.dtd"
   xmlns:inkscape="http://www.inkscape.org/namespaces/inkscape"
   id="svg8"
   version="1.1"
   viewBox="0 0 185.20834 79.374999"
   height="300"
   width="700"
   inkscape:version="0.92.1 r15371"
   sodipodi:docname="atheo.svg">
  <sodipodi:namedview
     inkscape:window-maximized="1"
     inkscape:window-y="0"
     inkscape:window-x="0"
     inkscape:window-height="741"
     inkscape:window-width="1280"
     units="px"
     showgrid="false"
     inkscape:current-layer="svg8"
     inkscape:document-units="mm"
     inkscape:cy="143.62399"
     inkscape:cx="335.18137"
     inkscape:zoom="0.98994949"
     inkscape:pageshadow="2"
     inkscape:pageopacity="0.0"
     borderopacity="1.0"
     bordercolor="#666666"
     pagecolor="#ffffff"
     id="base" />
  <defs
     id="defs2" />
  <metadata
     id="metadata5">
    <rdf:RDF>
      <cc:Work
         rdf:about="">
        <dc:format>image/svg+xml</dc:format>
        <dc:type
           rdf:resource="http://purl.org/dc/dcmitype/StillImage" />
        <dc:title />
      </cc:Work>
    </rdf:RDF>
  </metadata>
  <g
     inkscape:label="Layer 1"
     inkscape:groupmode="layer"
     id="layer1"
     transform="translate(0,-217.625)" />
  <g
     id="g5795"
     transform="matrix(3.4037172,0,0,2.8106805,-95.576038,-238.47026)">
    <g
       id="g5793"
       transform="matrix(0.11339286,0,0,-0.11339286,-19.84375,138.90625)"
       xml:space="preserve"
       stroke-miterlimit="10.433"
       font-style="normal"
       font-variant="normal"
       font-weight="normal"
       font-stretch="normal"
       font-size-adjust="none"
       letter-spacing="normal"
       word-spacing="normal"
       style="font-style:normal;font-variant:normal;font-weight:normal;font-stretch:normal;letter-spacing:normal;word-spacing:normal;text-anchor:start;fill:none;fill-opacity:1;fill-rule:evenodd;stroke:#000000;stroke-linecap:butt;stroke-linejoin:miter;stroke-miterlimit:10.43299961;stroke-dasharray:none;stroke-dashoffset:0;stroke-opacity:1"><path
         d="m 485.21,438.53 0.02,0.03 0.02,0.03 0.02,0.03 0.02,0.02 0.02,0.03 0.01,0.03 0.02,0.02 0.02,0.03 0.01,0.02 0.02,0.03 0.01,0.02 0.02,0.02 0.01,0.02 0.01,0.02 0.02,0.02 0.01,0.02 0.01,0.02 0.01,0.02 0.02,0.04 0.02,0.03 0.02,0.03 0.02,0.03 0.01,0.03 0.01,0.02 0.01,0.03 0.01,0.02 0.01,0.02 0.01,0.02 0.01,0.02 v 0.02 l 0.01,0.02 v 0.01 0.02 l 0.01,0.01 v 0.02 0.03 0.03 0.02 c 0,0.89 -0.75,0.89 -1.64,0.89 h -22.83 c -1.59,0 -1.59,-0.14 -1.73,-1.43 l 1.68,-0.3 h 2.65 v -0.06 c -1.35,-0.74 -2.29,-1.64 -2.9,-2.19 l 0.25,2.25 -1.68,0.3 -0.75,-6.74 -0.1,-0.64 c 0,-0.7 0.55,-0.95 0.89,-0.95 0.46,0 0.75,0.36 0.85,0.75 0.2,1.2 0.65,3.39 3.69,5.28 2.84,1.84 6.32,2 8.03,2 h 4.03 L 457.36,408 c -0.45,-0.66 -0.45,-0.75 -0.45,-0.91 0,-0.89 0.8,-0.89 1.7,-0.89 l 0.75,1.75 18.78,30.64 h 5.08 l -18.78,-30.64 h -5.08 l -0.75,-1.75 h 25.55 c 1.5,0 1.5,0.09 1.7,1.39 l -1.7,0.36 h -3.37 V 408 c 1.39,0.79 2.68,1.89 3.82,3.28 -0.09,-1 -0.2,-1.55 -0.45,-3.33 l 1.7,-0.36 1.35,9.81 c 0,0.56 -0.46,0.91 -0.85,0.91 -0.75,0 -0.84,-0.5 -1,-1.5 -0.84,-4.08 -4.73,-8.86 -11.81,-8.86 h -7.08 z"
         id="path5769"
         inkscape:connector-curvature="0"
         style="fill:#000000;stroke-width:0" /><polygon
         points="494.63,393.75 501.46,393.75 501.46,395.73 496.63,395.73 496.63,441.57 501.46,441.57 501.46,443.56 494.63,443.56 "
         id="polygon5771"
         style="fill:#000000;stroke-width:0" /><path
         d="m 516.71,437.34 v 0.09 l -0.01,0.09 -0.01,0.1 -0.01,0.08 -0.02,0.09 -0.02,0.09 -0.03,0.08 -0.03,0.08 -0.03,0.08 -0.04,0.08 -0.04,0.08 -0.04,0.07 -0.05,0.07 -0.05,0.07 -0.06,0.06 -0.05,0.06 -0.06,0.06 -0.07,0.06 -0.07,0.05 -0.07,0.05 -0.07,0.05 -0.08,0.04 -0.08,0.04 -0.08,0.04 -0.09,0.03 -0.09,0.03 -0.09,0.02 -0.1,0.02 -0.09,0.02 -0.1,0.01 h -0.11 l -0.1,0.01 c -1.36,0 -2.71,-1.3 -2.71,-2.64 0,-0.96 0.71,-1.8 1.91,-1.8 1.14,0 2.64,1.14 2.64,2.64 z"
         id="path5773"
         inkscape:connector-curvature="0"
         style="fill:#000000;stroke-width:0" /><path
         d="m 512.91,418.61 0.06,0.13 0.05,0.12 0.05,0.12 0.04,0.11 0.04,0.1 0.04,0.1 0.04,0.09 0.04,0.09 0.03,0.09 0.03,0.08 0.03,0.08 0.03,0.08 0.03,0.07 0.02,0.07 0.06,0.15 0.05,0.14 0.05,0.14 0.03,0.07 0.02,0.08 0.03,0.08 0.03,0.08 0.03,0.08 0.03,0.09 0.04,0.1 0.03,0.09 0.04,0.11 0.04,0.11 0.04,0.11 0.05,0.13 c 0.4,1 0.65,1.68 0.65,2.64 0,2.23 -1.59,4.07 -4.09,4.07 -4.67,0 -6.58,-7.21 -6.58,-7.67 0,-0.5 0.5,-0.5 0.61,-0.5 0.5,0 0.55,0.11 0.8,0.91 1.34,4.69 3.33,6.17 5.03,6.17 0.39,0 1.25,0 1.25,-1.59 0,-1.05 -0.36,-2.1 -0.56,-2.6 -0.39,-1.29 -2.64,-7.06 -3.44,-9.22 -0.48,-1.28 -1.14,-2.93 -1.14,-3.98 0,-2.33 1.69,-4.08 4.09,-4.08 4.67,0 6.52,7.22 6.52,7.67 0,0.5 -0.44,0.5 -0.6,0.5 -0.5,0 -0.5,-0.15 -0.75,-0.9 -0.89,-3.13 -2.53,-6.17 -5.07,-6.17 -0.85,0 -1.21,0.5 -1.21,1.64 0,1.25 0.32,1.95 1.46,4.98 z"
         id="path5775"
         inkscape:connector-curvature="0"
         style="fill:#000000;stroke-width:0" /><polygon
         points="527.63,393.75 527.63,443.56 520.8,443.56 520.8,441.57 525.63,441.57 525.63,395.73 520.8,395.73 520.8,393.75 "
         id="polygon5777"
         style="fill:#000000;stroke-width:0" /><path
         d="m 580.26,417.65 h 0.16 0.16 l 0.15,0.01 h 0.08 l 0.08,0.01 h 0.07 l 0.08,0.01 0.07,0.01 0.07,0.01 0.07,0.02 0.07,0.02 0.07,0.02 0.06,0.02 0.06,0.02 0.06,0.03 0.05,0.03 0.06,0.04 0.05,0.03 0.04,0.05 0.04,0.04 0.04,0.05 0.02,0.03 0.02,0.03 0.01,0.03 0.02,0.03 0.01,0.03 0.02,0.03 0.01,0.04 0.01,0.03 0.01,0.04 v 0.04 l 0.01,0.04 0.01,0.04 v 0.04 l 0.01,0.04 v 0.05 0.04 c 0,1 -0.91,1 -1.75,1 H 553.3 c -0.84,0 -1.73,0 -1.73,-1 0,-1 0.89,-1 1.73,-1 z"
         id="path5779"
         inkscape:connector-curvature="0"
         style="fill:#000000;stroke-width:0" /><path
         d="m 619.45,417.65 -0.25,-0.19 -0.24,-0.2 -0.24,-0.19 -0.23,-0.2 -0.22,-0.19 -0.21,-0.19 -0.21,-0.19 -0.19,-0.19 -0.19,-0.18 -0.19,-0.18 -0.17,-0.18 -0.17,-0.18 -0.16,-0.17 -0.16,-0.17 -0.14,-0.17 -0.14,-0.16 -0.14,-0.15 -0.12,-0.16 -0.12,-0.15 -0.11,-0.14 -0.11,-0.14 -0.1,-0.13 -0.1,-0.13 -0.08,-0.12 -0.09,-0.11 -0.07,-0.11 -0.07,-0.11 -0.06,-0.09 -0.06,-0.09 -0.05,-0.08 -0.05,-0.07 -0.04,-0.07 c -2.24,-3.44 -2.64,-6.58 -2.64,-6.62 0,-0.6 0.61,-0.6 1,-0.6 0.84,0 0.89,0.1 1.09,1 1.16,4.88 4.1,9.06 9.72,11.36 0.59,0.19 0.75,0.3 0.75,0.64 0,0.35 -0.3,0.5 -0.41,0.55 -2.18,0.84 -8.21,3.34 -10.1,11.72 -0.16,0.59 -0.21,0.73 -1.05,0.73 -0.39,0 -1,0 -1,-0.59 0,-0.1 0.45,-3.24 2.55,-6.58 1,-1.48 2.43,-3.23 4.57,-4.83 h -37.01 c -0.89,0 -1.8,0 -1.8,-1 0,-1 0.91,-1 1.8,-1 z"
         id="path5781"
         inkscape:connector-curvature="0"
         style="fill:#000000;stroke-width:0" /><path
         d="m 665.32,405.75 0.65,0.14 0.65,0.18 0.65,0.19 0.64,0.23 0.63,0.24 0.61,0.27 0.61,0.3 0.6,0.32 0.58,0.35 0.58,0.37 0.55,0.4 0.54,0.42 0.53,0.45 0.5,0.47 0.49,0.51 0.47,0.52 0.45,0.56 0.43,0.58 0.4,0.6 0.38,0.64 0.36,0.66 0.33,0.69 0.3,0.71 0.27,0.74 0.25,0.77 0.22,0.8 0.19,0.82 0.15,0.86 0.12,0.88 0.09,0.91 0.05,0.93 0.02,0.97 -1.73,0.06 c 0,-10.17 -6.17,-13.86 -9.17,-15 3.09,3.64 3.89,9.47 3.89,14.94 0,4.89 -0.6,11.13 -3.85,14.91 l 0.07,0.04 c 3.33,-1.25 9.06,-5.23 9.06,-14.89 l 1.73,-0.06 c 0,12.56 -8.81,18.05 -17.73,18.05 v -1.75 c 8.08,0 8.97,-10.57 8.97,-16.24 0,-5.98 -0.99,-16.29 -8.97,-16.29 v -1.75 c 0.25,0 1.3,0 2.7,0.15 1.35,-3.14 3.67,-5.03 6.17,-6.03 0.5,-0.2 0.55,-0.2 0.55,-0.25 0,-0.09 -0.89,-0.09 -1.55,-0.09 -4.23,0 -8.56,1.98 -11.15,6.47 v 0 c 1.39,-0.25 3.23,-0.25 3.28,-0.25 v 1.75 0 c -8.06,0 -8.97,10.56 -8.97,16.23 l -1.73,0.06 c 0,-4.89 0.59,-11.11 3.89,-15 -3.44,1.3 -9.17,5.28 -9.17,14.94 0,10.17 6.17,13.86 9.06,14.95 l 0.04,-0.04 c -3.03,-3.55 -3.82,-9.38 -3.82,-14.85 l 1.73,-0.06 c 0,5.98 1,16.3 8.97,16.3 v 1.75 c -9.11,0 -17.73,-5.74 -17.73,-17.99 0,-10.67 6.37,-15.75 12.26,-17.29 2.24,-5.13 7.17,-8.72 13.34,-8.72 2.5,0 5.24,0.5 7.83,1.5 0.89,0.34 1.39,0.54 1.39,1.14 0,0.61 -0.45,0.9 -0.84,0.9 -0.11,0 -0.16,0 -0.5,-0.11 -1.39,-0.34 -1.94,-0.34 -2.73,-0.34 -4.6,0 -7.44,2.89 -8.58,5.38 z"
         id="path5783"
         inkscape:connector-curvature="0"
         style="fill:#000000;stroke-width:0" /><path
         d="m 696.75,394.25 v 0.02 l -0.01,0.03 v 0.01 0.02 0.01 l -0.01,0.02 v 0.01 l -0.01,0.02 -0.01,0.02 -0.01,0.02 -0.01,0.02 -0.01,0.03 -0.02,0.02 -0.02,0.03 -0.02,0.03 -0.02,0.03 -0.03,0.03 -0.03,0.04 -0.02,0.02 -0.01,0.02 -0.02,0.02 -0.02,0.02 -0.02,0.02 -0.02,0.03 -0.02,0.02 -0.02,0.02 -0.02,0.03 -0.03,0.02 -0.02,0.03 -0.03,0.03 -0.02,0.03 -0.03,0.03 -0.03,0.03 -0.03,0.03 -0.03,0.03 -0.03,0.03 -0.04,0.04 -0.03,0.03 -0.03,0.04 -0.04,0.03 -0.04,0.04 -0.04,0.04 c -6.22,6.28 -7.81,15.69 -7.81,23.31 0,8.67 1.89,17.35 8.01,23.56 0.65,0.61 0.65,0.71 0.65,0.86 0,0.35 -0.19,0.49 -0.49,0.49 -0.5,0 -4.98,-3.38 -7.92,-9.7 -2.55,-5.49 -3.14,-11.02 -3.14,-15.21 0,-3.89 0.55,-9.9 3.28,-15.54 2.99,-6.13 7.28,-9.36 7.78,-9.36 0.3,0 0.49,0.14 0.49,0.5 z"
         id="path5785"
         inkscape:connector-curvature="0"
         style="fill:#000000;stroke-width:0" /><path
         d="m 713.73,437.34 v 0.09 0.09 l -0.01,0.1 -0.02,0.08 -0.02,0.09 -0.02,0.09 -0.02,0.08 -0.03,0.08 -0.04,0.08 -0.03,0.08 -0.04,0.08 -0.05,0.07 -0.05,0.07 -0.05,0.07 -0.05,0.06 -0.06,0.06 -0.06,0.06 -0.07,0.06 -0.06,0.05 -0.07,0.05 -0.08,0.05 -0.08,0.04 -0.08,0.04 -0.08,0.04 -0.09,0.03 -0.09,0.03 -0.09,0.02 -0.09,0.02 -0.1,0.02 -0.1,0.01 H 712 l -0.11,0.01 c -1.36,0 -2.7,-1.3 -2.7,-2.64 0,-0.96 0.7,-1.8 1.9,-1.8 1.14,0 2.64,1.14 2.64,2.64 z"
         id="path5787"
         inkscape:connector-curvature="0"
         style="fill:#000000;stroke-width:0" /><path
         d="m 709.94,418.61 0.05,0.13 0.05,0.12 0.05,0.12 0.04,0.11 0.05,0.1 0.04,0.1 0.03,0.09 0.04,0.09 0.03,0.09 0.03,0.08 0.03,0.08 0.03,0.08 0.03,0.07 0.03,0.07 0.05,0.15 0.05,0.14 0.05,0.14 0.03,0.07 0.03,0.08 0.02,0.08 0.03,0.08 0.03,0.08 0.04,0.09 0.03,0.1 0.03,0.09 0.04,0.11 0.04,0.11 0.05,0.11 0.04,0.13 c 0.41,1 0.66,1.68 0.66,2.64 0,2.23 -1.6,4.07 -4.1,4.07 -4.67,0 -6.57,-7.21 -6.57,-7.67 0,-0.5 0.5,-0.5 0.6,-0.5 0.5,0 0.55,0.11 0.8,0.91 1.35,4.69 3.33,6.17 5.03,6.17 0.39,0 1.25,0 1.25,-1.59 0,-1.05 -0.36,-2.1 -0.56,-2.6 -0.39,-1.29 -2.64,-7.06 -3.44,-9.22 -0.48,-1.28 -1.14,-2.93 -1.14,-3.98 0,-2.33 1.69,-4.08 4.1,-4.08 4.67,0 6.51,7.22 6.51,7.67 0,0.5 -0.44,0.5 -0.59,0.5 -0.5,0 -0.5,-0.15 -0.75,-0.9 -0.89,-3.13 -2.53,-6.17 -5.08,-6.17 -0.84,0 -1.2,0.5 -1.2,1.64 0,1.25 0.31,1.95 1.45,4.98 z"
         id="path5789"
         inkscape:connector-curvature="0"
         style="fill:#000000;stroke-width:0" /><path
         d="m 731.12,418.65 v 0.37 0.39 l -0.01,0.39 -0.01,0.41 -0.04,0.84 -0.06,0.88 -0.09,0.92 -0.1,0.95 -0.14,0.97 -0.16,1.01 -0.2,1.02 -0.23,1.03 -0.26,1.05 -0.31,1.06 -0.35,1.07 -0.39,1.07 -0.21,0.53 -0.23,0.53 -0.24,0.53 -0.25,0.53 c -2.98,6.12 -7.26,9.36 -7.76,9.36 -0.3,0 -0.5,-0.19 -0.5,-0.49 0,-0.15 0,-0.25 0.94,-1.15 4.89,-4.92 7.73,-12.85 7.73,-23.27 0,-8.51 -1.84,-17.28 -8.03,-23.56 -0.64,-0.59 -0.64,-0.7 -0.64,-0.84 0,-0.3 0.2,-0.5 0.5,-0.5 0.5,0 4.97,3.39 7.92,9.71 2.53,5.47 3.12,11 3.12,15.19 z"
         id="path5791"
         inkscape:connector-curvature="0"
         style="fill:#000000;stroke-width:0" /></g>  </g>
  <g
     id="g6299"
     transform="matrix(3.9318782,0,0,2.9139745,-102.03602,-207.35263)">
    <g
       word-spacing="normal"
       letter-spacing="normal"
       font-size-adjust="none"
       font-stretch="normal"
       font-weight="normal"
       font-variant="normal"
       font-style="normal"
       stroke-miterlimit="10.433"
       xml:space="preserve"
       transform="matrix(0.11339286,0,0,-0.11339286,-19.84375,138.90625)"
       id="g6297"
       style="font-style:normal;font-variant:normal;font-weight:normal;font-stretch:normal;letter-spacing:normal;word-spacing:normal;text-anchor:start;fill:none;fill-opacity:1;fill-rule:evenodd;stroke:#000000;stroke-linecap:butt;stroke-linejoin:miter;stroke-miterlimit:10.43299961;stroke-dasharray:none;stroke-dashoffset:0;stroke-opacity:1"><path
         id="path6289"
         d="m 485.21,438.53 0.02,0.03 0.02,0.03 0.02,0.03 0.02,0.02 0.02,0.03 0.01,0.03 0.02,0.02 0.02,0.03 0.01,0.02 0.02,0.03 0.01,0.02 0.02,0.02 0.01,0.02 0.01,0.02 0.02,0.02 0.01,0.02 0.01,0.02 0.01,0.02 0.02,0.04 0.02,0.03 0.02,0.03 0.02,0.03 0.01,0.03 0.01,0.02 0.01,0.03 0.01,0.02 0.01,0.02 0.01,0.02 0.01,0.02 v 0.02 l 0.01,0.02 v 0.01 0.02 l 0.01,0.01 v 0.02 0.03 0.03 0.02 c 0,0.89 -0.75,0.89 -1.64,0.89 h -22.83 c -1.59,0 -1.59,-0.14 -1.73,-1.43 l 1.68,-0.3 h 2.65 v -0.06 c -1.35,-0.74 -2.29,-1.64 -2.9,-2.19 l 0.25,2.25 -1.68,0.3 -0.75,-6.74 -0.1,-0.64 c 0,-0.7 0.55,-0.95 0.89,-0.95 0.46,0 0.75,0.36 0.85,0.75 0.2,1.2 0.65,3.39 3.69,5.28 2.84,1.84 6.32,2 8.03,2 h 4.03 L 457.36,408 c -0.45,-0.66 -0.45,-0.75 -0.45,-0.91 0,-0.89 0.8,-0.89 1.7,-0.89 l 0.75,1.75 18.78,30.64 h 5.08 l -18.78,-30.64 h -5.08 l -0.75,-1.75 h 25.55 c 1.5,0 1.5,0.09 1.7,1.39 l -1.7,0.36 h -3.37 V 408 c 1.39,0.79 2.68,1.89 3.82,3.28 -0.09,-1 -0.2,-1.55 -0.45,-3.33 l 1.7,-0.36 1.35,9.81 c 0,0.56 -0.46,0.91 -0.85,0.91 -0.75,0 -0.84,-0.5 -1,-1.5 -0.84,-4.08 -4.73,-8.86 -11.81,-8.86 h -7.08 z"
         inkscape:connector-curvature="0"
         style="fill:#000000;stroke-width:0" /><path
         id="path6291"
         d="m 535.39,417.65 h 0.16 0.15 l 0.16,0.01 h 0.08 l 0.08,0.01 h 0.07 l 0.08,0.01 0.07,0.01 0.07,0.01 0.07,0.02 0.07,0.02 0.06,0.02 0.07,0.02 0.06,0.02 0.06,0.03 0.05,0.03 0.06,0.04 0.04,0.03 0.05,0.05 0.04,0.04 0.04,0.05 0.02,0.03 0.02,0.03 0.01,0.03 0.02,0.03 0.01,0.03 0.01,0.03 0.02,0.04 0.01,0.03 0.01,0.04 v 0.04 l 0.01,0.04 0.01,0.04 v 0.04 0.04 l 0.01,0.05 v 0.04 c 0,1 -0.91,1 -1.75,1 h -26.96 c -0.84,0 -1.73,0 -1.73,-1 0,-1 0.89,-1 1.73,-1 z"
         inkscape:connector-curvature="0"
         style="fill:#000000;stroke-width:0" /><path
         id="path6293"
         d="m 574.58,417.65 -0.25,-0.19 -0.24,-0.2 -0.24,-0.19 -0.23,-0.2 -0.22,-0.19 -0.21,-0.19 -0.21,-0.19 -0.19,-0.19 -0.2,-0.18 -0.18,-0.18 -0.17,-0.18 -0.17,-0.18 -0.16,-0.17 -0.16,-0.17 -0.14,-0.17 -0.14,-0.16 -0.14,-0.15 -0.12,-0.16 -0.12,-0.15 -0.12,-0.14 -0.1,-0.14 -0.1,-0.13 -0.1,-0.13 -0.08,-0.12 -0.09,-0.11 -0.07,-0.11 -0.07,-0.11 -0.06,-0.09 -0.06,-0.09 -0.05,-0.08 -0.05,-0.07 -0.04,-0.07 c -2.24,-3.44 -2.64,-6.58 -2.64,-6.62 0,-0.6 0.61,-0.6 1,-0.6 0.84,0 0.89,0.1 1.09,1 1.16,4.88 4.1,9.06 9.72,11.36 0.59,0.19 0.75,0.3 0.75,0.64 0,0.35 -0.3,0.5 -0.41,0.55 -2.18,0.84 -8.21,3.34 -10.11,11.72 -0.15,0.59 -0.2,0.73 -1.04,0.73 -0.39,0 -1,0 -1,-0.59 0,-0.1 0.45,-3.24 2.54,-6.58 1,-1.48 2.44,-3.23 4.58,-4.83 h -37.01 c -0.89,0 -1.8,0 -1.8,-1 0,-1 0.91,-1 1.8,-1 z"
         inkscape:connector-curvature="0"
         style="fill:#000000;stroke-width:0" /><path
         id="path6295"
         d="m 620.45,405.75 0.65,0.14 0.65,0.18 0.65,0.19 0.64,0.23 0.62,0.24 0.62,0.27 0.61,0.3 0.6,0.32 0.58,0.35 0.58,0.37 0.55,0.4 0.54,0.42 0.53,0.45 0.5,0.47 0.49,0.51 0.47,0.52 0.45,0.56 0.42,0.58 0.41,0.6 0.38,0.64 0.35,0.66 0.33,0.69 0.31,0.71 0.27,0.74 0.25,0.77 0.22,0.8 0.18,0.82 0.16,0.86 0.12,0.88 0.09,0.91 0.05,0.93 0.02,0.97 -1.73,0.06 c 0,-10.17 -6.17,-13.86 -9.17,-15 3.09,3.64 3.89,9.47 3.89,14.94 0,4.89 -0.6,11.13 -3.85,14.91 l 0.07,0.04 c 3.32,-1.25 9.06,-5.23 9.06,-14.89 l 1.73,-0.06 c 0,12.56 -8.81,18.05 -17.73,18.05 v -1.75 c 8.08,0 8.97,-10.57 8.97,-16.24 0,-5.98 -0.99,-16.29 -8.97,-16.29 v -1.75 c 0.25,0 1.29,0 2.7,0.15 1.34,-3.14 3.67,-5.03 6.17,-6.03 0.5,-0.2 0.55,-0.2 0.55,-0.25 0,-0.09 -0.89,-0.09 -1.55,-0.09 -4.23,0 -8.56,1.98 -11.15,6.47 v 0 c 1.39,-0.25 3.23,-0.25 3.28,-0.25 v 1.75 0 c -8.06,0 -8.97,10.56 -8.97,16.23 l -1.74,0.06 c 0,-4.89 0.6,-11.11 3.9,-15 -3.44,1.3 -9.18,5.28 -9.18,14.94 0,10.17 6.18,13.86 9.07,14.95 l 0.04,-0.04 c -3.03,-3.55 -3.83,-9.38 -3.83,-14.85 l 1.74,-0.06 c 0,5.98 1,16.3 8.97,16.3 v 1.75 c -9.11,0 -17.74,-5.74 -17.74,-17.99 0,-10.67 6.38,-15.75 12.27,-17.29 2.23,-5.13 7.17,-8.72 13.34,-8.72 2.5,0 5.24,0.5 7.83,1.5 0.89,0.34 1.39,0.54 1.39,1.14 0,0.61 -0.45,0.9 -0.84,0.9 -0.11,0 -0.16,0 -0.5,-0.11 -1.39,-0.34 -1.94,-0.34 -2.74,-0.34 -4.59,0 -7.43,2.89 -8.57,5.38 z"
         inkscape:connector-curvature="0"
         style="fill:#000000;stroke-width:0" /></g>  </g>
  <g
     id="g6661"
     transform="matrix(1.4666966,0,0,1.8403264,88.007506,-129.85612)">
    <g
       word-spacing="normal"
       letter-spacing="normal"
       font-size-adjust="none"
       font-stretch="normal"
       font-weight="normal"
       font-variant="normal"
       font-style="normal"
       stroke-miterlimit="10.433"
       xml:space="preserve"
       transform="matrix(0.11339286,0,0,-0.11339286,-19.84375,138.90625)"
       id="g6659"
       style="font-style:normal;font-variant:normal;font-weight:normal;font-stretch:normal;letter-spacing:normal;word-spacing:normal;text-anchor:start;fill:none;fill-opacity:1;fill-rule:evenodd;stroke:#000000;stroke-linecap:butt;stroke-linejoin:miter;stroke-miterlimit:10.43299961;stroke-dasharray:none;stroke-dashoffset:0;stroke-opacity:1"><path
         id="path6635"
         d="m 485.07,409.34 0.06,-0.11 0.07,-0.11 0.08,-0.11 0.08,-0.12 0.1,-0.12 0.09,-0.12 0.1,-0.13 0.11,-0.12 0.11,-0.13 0.11,-0.13 0.23,-0.26 0.24,-0.25 0.25,-0.25 0.12,-0.11 0.12,-0.12 0.12,-0.11 0.11,-0.1 0.12,-0.1 0.11,-0.1 0.11,-0.08 0.11,-0.08 0.1,-0.08 0.09,-0.06 0.09,-0.06 0.09,-0.05 0.07,-0.03 0.08,-0.03 0.03,-0.01 0.03,-0.01 h 0.03 0.02 c 0.46,0 0.46,0.4 0.46,1.15 v 8.66 c 0,1.95 0.18,2.2 3.43,2.2 v 1.53 c -1.84,-0.04 -4.59,-0.14 -6.07,-0.14 -2,0 -6.24,0 -8.03,0.14 v -1.53 h 1.59 c 4.48,0 4.64,-0.55 4.64,-2.39 v -3.19 c 0,-5.59 -6.33,-6.03 -7.72,-6.03 -3.25,0 -13.11,1.74 -13.11,16.58 0,14.91 9.81,16.55 12.8,16.55 5.34,0 9.87,-4.49 10.87,-11.82 0.1,-0.68 0.1,-0.84 0.8,-0.84 0.8,0 0.8,0.16 0.8,1.2 v 11.8 c 0,0.86 0,1.2 -0.55,1.2 -0.2,0 -0.41,0 -0.81,-0.59 l -2.49,-3.69 c -1.59,1.6 -4.28,4.28 -9.22,4.28 -9.26,0 -17.32,-7.87 -17.32,-18.09 0,-10.2 7.97,-18.12 17.43,-18.12 3.63,0 7.61,1.29 9.32,4.23 z"
         inkscape:connector-curvature="0"
         style="fill:#000000;stroke-width:0" /><path
         id="path6637"
         d="m 511.23,409.98 0.02,-0.19 0.03,-0.18 0.04,-0.19 0.04,-0.18 0.05,-0.19 0.05,-0.18 0.07,-0.18 0.06,-0.18 0.08,-0.18 0.08,-0.17 0.09,-0.18 0.09,-0.16 0.1,-0.16 0.11,-0.16 0.11,-0.16 0.12,-0.14 0.13,-0.14 0.13,-0.14 0.14,-0.13 0.14,-0.12 0.15,-0.12 0.16,-0.1 0.16,-0.1 0.17,-0.09 0.18,-0.08 0.18,-0.07 0.19,-0.06 0.19,-0.05 0.2,-0.04 0.2,-0.03 0.21,-0.02 0.22,-0.01 c 1.03,0 4.08,0.71 4.08,4.74 v 2.78 h -1.25 v -2.78 c 0,-2.89 -1.23,-3.19 -1.8,-3.19 -1.64,0 -1.84,2.23 -1.84,2.48 v 9.97 c 0,2.1 0,4.03 -1.78,5.88 -1.96,1.93 -4.44,2.73 -6.83,2.73 -4.09,0 -7.53,-2.33 -7.53,-5.62 0,-1.49 1,-2.35 2.29,-2.35 1.4,0 2.3,1 2.3,2.3 0,0.59 -0.25,2.23 -2.55,2.3 1.35,1.73 3.79,2.28 5.38,2.28 2.45,0 5.28,-1.94 5.28,-6.38 v -1.84 -1.05 -4.98 c 0,-4.74 -3.58,-6.42 -5.83,-6.42 -2.43,0 -4.48,1.75 -4.48,4.23 0,2.73 2.09,6.88 10.31,7.17 v 0 1.05 c -2.53,-0.14 -6.01,-0.3 -9.16,-1.8 -3.73,-1.69 -4.98,-4.28 -4.98,-6.47 0,-4.03 4.83,-5.28 7.97,-5.28 3.3,0 5.58,1.99 6.53,4.33 z"
         inkscape:connector-curvature="0"
         style="fill:#000000;stroke-width:0" /><path
         id="path6639"
         d="m 528.41,440.78 -7.18,-0.55 v -1.55 c 3.49,0 3.89,-0.34 3.89,-2.79 v -25.91 c 0,-2.23 -0.54,-2.23 -3.89,-2.23 v -1.55 c 1.65,0.05 4.29,0.16 5.54,0.16 1.25,0 3.68,-0.11 5.53,-0.16 v 1.55 c -3.35,0 -3.89,0 -3.89,2.23 z"
         inkscape:connector-curvature="0"
         style="fill:#000000;stroke-width:0" /><path
         id="path6641"
         d="m 549.88,394.25 -0.01,0.02 v 0.03 0.01 0.02 0.01 l -0.01,0.02 v 0.01 l -0.01,0.02 -0.01,0.02 -0.01,0.02 -0.01,0.02 -0.02,0.03 -0.01,0.02 -0.02,0.03 -0.02,0.03 -0.03,0.03 -0.02,0.03 -0.03,0.04 -0.02,0.02 -0.01,0.02 -0.02,0.02 -0.02,0.02 -0.02,0.02 -0.02,0.03 -0.02,0.02 -0.02,0.02 -0.02,0.03 -0.03,0.02 -0.02,0.03 -0.03,0.03 -0.02,0.03 -0.03,0.03 -0.03,0.03 -0.03,0.03 -0.03,0.03 -0.03,0.03 -0.04,0.04 -0.03,0.03 -0.04,0.04 -0.03,0.03 -0.04,0.04 -0.04,0.04 c -6.22,6.28 -7.81,15.69 -7.81,23.31 0,8.67 1.89,17.35 8.01,23.56 0.65,0.61 0.65,0.71 0.65,0.86 0,0.35 -0.19,0.49 -0.49,0.49 -0.5,0 -4.98,-3.38 -7.92,-9.7 -2.55,-5.49 -3.14,-11.02 -3.14,-15.21 0,-3.89 0.55,-9.9 3.28,-15.54 2.98,-6.13 7.28,-9.36 7.78,-9.36 0.3,0 0.49,0.14 0.49,0.5 z"
         inkscape:connector-curvature="0"
         style="fill:#000000;stroke-width:0" /><path
         id="path6643"
         d="m 576.52,405.75 0.66,0.14 0.65,0.18 0.64,0.19 0.64,0.23 0.63,0.24 0.62,0.27 0.61,0.3 0.59,0.32 0.59,0.35 0.57,0.37 0.56,0.4 0.54,0.42 0.52,0.45 0.51,0.47 0.49,0.51 0.46,0.52 0.45,0.56 0.43,0.58 0.4,0.6 0.38,0.64 0.36,0.66 0.33,0.69 0.3,0.71 0.28,0.74 0.24,0.77 0.22,0.8 0.19,0.82 0.15,0.86 0.13,0.88 0.08,0.91 0.06,0.93 0.02,0.97 -1.74,0.06 c 0,-10.17 -6.17,-13.86 -9.17,-15 3.09,3.64 3.89,9.47 3.89,14.94 0,4.89 -0.59,11.13 -3.84,14.91 l 0.06,0.04 c 3.33,-1.25 9.06,-5.23 9.06,-14.89 l 1.74,-0.06 c 0,12.56 -8.82,18.05 -17.74,18.05 v -1.75 c 8.08,0 8.97,-10.57 8.97,-16.24 0,-5.98 -0.98,-16.29 -8.97,-16.29 v -1.75 c 0.25,0 1.3,0 2.7,0.15 1.35,-3.14 3.68,-5.03 6.18,-6.03 0.5,-0.2 0.54,-0.2 0.54,-0.25 0,-0.09 -0.89,-0.09 -1.54,-0.09 -4.24,0 -8.56,1.98 -11.16,6.47 v 0 c 1.39,-0.25 3.23,-0.25 3.28,-0.25 v 1.75 0 c -8.06,0 -8.97,10.56 -8.97,16.23 l -1.73,0.06 c 0,-4.89 0.59,-11.11 3.89,-15 -3.44,1.3 -9.17,5.28 -9.17,14.94 0,10.17 6.17,13.86 9.06,14.95 l 0.05,-0.04 c -3.03,-3.55 -3.83,-9.38 -3.83,-14.85 l 1.73,-0.06 c 0,5.98 1,16.3 8.97,16.3 v 1.75 c -9.11,0 -17.73,-5.74 -17.73,-17.99 0,-10.67 6.37,-15.75 12.26,-17.29 2.24,-5.13 7.17,-8.72 13.35,-8.72 2.5,0 5.23,0.5 7.82,1.5 0.9,0.34 1.4,0.54 1.4,1.14 0,0.61 -0.46,0.9 -0.85,0.9 -0.11,0 -0.15,0 -0.5,-0.11 -1.39,-0.34 -1.93,-0.34 -2.73,-0.34 -4.6,0 -7.44,2.89 -8.58,5.38 z"
         inkscape:connector-curvature="0"
         style="fill:#000000;stroke-width:0" /><path
         id="path6645"
         d="m 607.95,394.25 v 0.02 0.03 0.01 l -0.01,0.02 v 0.01 0.02 l -0.01,0.01 -0.01,0.02 -0.01,0.02 -0.01,0.02 -0.01,0.02 -0.01,0.03 -0.02,0.02 -0.02,0.03 -0.02,0.03 -0.02,0.03 -0.03,0.03 -0.03,0.04 -0.01,0.02 -0.02,0.02 -0.02,0.02 -0.02,0.02 -0.01,0.02 -0.02,0.03 -0.03,0.02 -0.02,0.02 -0.02,0.03 -0.02,0.02 -0.03,0.03 -0.02,0.03 -0.03,0.03 -0.03,0.03 -0.03,0.03 -0.03,0.03 -0.03,0.03 -0.03,0.03 -0.03,0.04 -0.04,0.03 -0.03,0.04 -0.04,0.03 -0.04,0.04 -0.04,0.04 c -6.21,6.28 -7.81,15.69 -7.81,23.31 0,8.67 1.89,17.35 8.02,23.56 0.64,0.61 0.64,0.71 0.64,0.86 0,0.35 -0.19,0.49 -0.48,0.49 -0.5,0 -4.99,-3.38 -7.93,-9.7 -2.54,-5.49 -3.14,-11.02 -3.14,-15.21 0,-3.89 0.55,-9.9 3.28,-15.54 2.99,-6.13 7.29,-9.36 7.79,-9.36 0.29,0 0.48,0.14 0.48,0.5 z"
         inkscape:connector-curvature="0"
         style="fill:#000000;stroke-width:0" /><path
         id="path6647"
         d="m 624.94,437.34 v 0.09 l -0.01,0.09 -0.01,0.1 -0.01,0.08 -0.02,0.09 -0.02,0.09 -0.03,0.08 -0.03,0.08 -0.03,0.08 -0.04,0.08 -0.04,0.08 -0.04,0.07 -0.05,0.07 -0.05,0.07 -0.06,0.06 -0.06,0.06 -0.06,0.06 -0.06,0.06 -0.07,0.05 -0.07,0.05 -0.08,0.05 -0.07,0.04 -0.08,0.04 -0.09,0.04 -0.08,0.03 -0.09,0.03 -0.09,0.02 -0.1,0.02 -0.1,0.02 -0.1,0.01 h -0.1 l -0.11,0.01 c -1.36,0 -2.7,-1.3 -2.7,-2.64 0,-0.96 0.7,-1.8 1.91,-1.8 1.14,0 2.64,1.14 2.64,2.64 z"
         inkscape:connector-curvature="0"
         style="fill:#000000;stroke-width:0" /><path
         id="path6649"
         d="m 621.14,418.61 0.05,0.13 0.06,0.12 0.04,0.12 0.05,0.11 0.04,0.1 0.04,0.1 0.04,0.09 0.03,0.09 0.03,0.09 0.04,0.08 0.03,0.08 0.03,0.08 0.02,0.07 0.03,0.07 0.05,0.15 0.05,0.14 0.05,0.14 0.03,0.07 0.03,0.08 0.03,0.08 0.03,0.08 0.03,0.08 0.03,0.09 0.03,0.1 0.04,0.09 0.04,0.11 0.04,0.11 0.04,0.11 0.04,0.13 c 0.41,1 0.66,1.68 0.66,2.64 0,2.23 -1.59,4.07 -4.09,4.07 -4.68,0 -6.58,-7.21 -6.58,-7.67 0,-0.5 0.5,-0.5 0.61,-0.5 0.5,0 0.55,0.11 0.79,0.91 1.35,4.69 3.33,6.17 5.04,6.17 0.39,0 1.25,0 1.25,-1.59 0,-1.05 -0.36,-2.1 -0.57,-2.6 -0.39,-1.29 -2.64,-7.06 -3.43,-9.22 -0.49,-1.28 -1.14,-2.93 -1.14,-3.98 0,-2.33 1.68,-4.08 4.09,-4.08 4.67,0 6.52,7.22 6.52,7.67 0,0.5 -0.44,0.5 -0.6,0.5 -0.5,0 -0.5,-0.15 -0.75,-0.9 -0.89,-3.13 -2.53,-6.17 -5.08,-6.17 -0.84,0 -1.2,0.5 -1.2,1.64 0,1.25 0.31,1.95 1.45,4.98 z"
         inkscape:connector-curvature="0"
         style="fill:#000000;stroke-width:0" /><path
         id="path6651"
         d="m 642.33,418.65 v 0.37 l -0.01,0.39 -0.01,0.39 -0.01,0.41 -0.04,0.84 -0.06,0.88 -0.08,0.92 -0.11,0.95 -0.13,0.97 -0.17,1.01 -0.19,1.02 -0.23,1.03 -0.27,1.05 -0.31,1.06 -0.34,1.07 -0.4,1.07 -0.21,0.53 -0.23,0.53 -0.23,0.53 -0.25,0.53 c -2.99,6.12 -7.27,9.36 -7.77,9.36 -0.3,0 -0.5,-0.19 -0.5,-0.49 0,-0.15 0,-0.25 0.94,-1.15 4.89,-4.92 7.73,-12.85 7.73,-23.27 0,-8.51 -1.84,-17.28 -8.03,-23.56 -0.64,-0.59 -0.64,-0.7 -0.64,-0.84 0,-0.3 0.2,-0.5 0.5,-0.5 0.5,0 4.97,3.39 7.92,9.71 2.53,5.47 3.13,11 3.13,15.19 z"
         inkscape:connector-curvature="0"
         style="fill:#000000;stroke-width:0" /><path
         id="path6653"
         d="m 669.13,441.67 0.01,0.03 0.01,0.03 0.01,0.03 0.01,0.03 0.01,0.02 0.01,0.03 0.01,0.03 0.01,0.02 0.02,0.05 0.01,0.05 0.02,0.04 0.01,0.05 0.02,0.04 0.01,0.04 0.01,0.03 0.01,0.04 0.01,0.03 v 0.03 l 0.01,0.03 0.01,0.02 v 0.03 l 0.01,0.02 v 0.02 l 0.01,0.02 v 0.02 0.02 0.01 l 0.01,0.02 v 0.01 0.01 0.01 0.01 0.01 0.01 0.01 0 c 0,0.55 -0.45,0.99 -1,0.99 -0.35,0 -0.7,-0.14 -0.85,-0.44 l -17.29,-47.48 c -0.25,-0.64 -0.25,-0.85 -0.25,-0.89 0,-0.55 0.45,-1 1,-1 0.66,0 0.79,0.34 1.09,1.18 z"
         inkscape:connector-curvature="0"
         style="fill:#000000;stroke-width:0" /><path
         id="path6655"
         d="m 696.02,405.75 0.66,0.14 0.65,0.18 0.65,0.19 0.63,0.23 0.63,0.24 0.62,0.27 0.61,0.3 0.6,0.32 0.58,0.35 0.57,0.37 0.56,0.4 0.54,0.42 0.52,0.45 0.51,0.47 0.49,0.51 0.47,0.52 0.45,0.56 0.42,0.58 0.41,0.6 0.38,0.64 0.35,0.66 0.33,0.69 0.31,0.71 0.27,0.74 0.25,0.77 0.22,0.8 0.18,0.82 0.16,0.86 0.12,0.88 0.09,0.91 0.05,0.93 0.02,0.97 -1.73,0.06 c 0,-10.17 -6.18,-13.86 -9.18,-15 3.1,3.64 3.89,9.47 3.89,14.94 0,4.89 -0.59,11.13 -3.84,14.91 l 0.06,0.04 c 3.33,-1.25 9.07,-5.23 9.07,-14.89 l 1.73,-0.06 c 0,12.56 -8.81,18.05 -17.73,18.05 v -1.75 c 8.07,0 8.96,-10.57 8.96,-16.24 0,-5.98 -0.98,-16.29 -8.96,-16.29 v -1.75 c 0.25,0 1.29,0 2.7,0.15 1.34,-3.14 3.67,-5.03 6.17,-6.03 0.5,-0.2 0.55,-0.2 0.55,-0.25 0,-0.09 -0.89,-0.09 -1.55,-0.09 -4.23,0 -8.56,1.98 -11.16,6.47 v 0 c 1.4,-0.25 3.24,-0.25 3.29,-0.25 v 1.75 0 c -8.07,0 -8.97,10.56 -8.97,16.23 l -1.74,0.06 c 0,-4.89 0.6,-11.11 3.89,-15 -3.43,1.3 -9.17,5.28 -9.17,14.94 0,10.17 6.17,13.86 9.06,14.95 l 0.05,-0.04 c -3.03,-3.55 -3.83,-9.38 -3.83,-14.85 l 1.74,-0.06 c 0,5.98 1,16.3 8.97,16.3 v 1.75 c -9.11,0 -17.74,-5.74 -17.74,-17.99 0,-10.67 6.38,-15.75 12.27,-17.29 2.23,-5.13 7.17,-8.72 13.34,-8.72 2.5,0 5.24,0.5 7.83,1.5 0.89,0.34 1.39,0.54 1.39,1.14 0,0.61 -0.45,0.9 -0.84,0.9 -0.11,0 -0.16,0 -0.5,-0.11 -1.39,-0.34 -1.94,-0.34 -2.74,-0.34 -4.59,0 -7.44,2.89 -8.58,5.38 z"
         inkscape:connector-curvature="0"
         style="fill:#000000;stroke-width:0" /><path
         id="path6657"
         d="m 725.36,418.65 v 0.37 l -0.01,0.39 -0.01,0.39 -0.01,0.41 -0.04,0.84 -0.06,0.88 -0.08,0.92 -0.11,0.95 -0.13,0.97 -0.17,1.01 -0.19,1.02 -0.23,1.03 -0.27,1.05 -0.31,1.06 -0.34,1.07 -0.4,1.07 -0.21,0.53 -0.22,0.53 -0.24,0.53 -0.25,0.53 c -2.99,6.12 -7.27,9.36 -7.77,9.36 -0.29,0 -0.5,-0.19 -0.5,-0.49 0,-0.15 0,-0.25 0.94,-1.15 4.89,-4.92 7.73,-12.85 7.73,-23.27 0,-8.51 -1.84,-17.28 -8.03,-23.56 -0.64,-0.59 -0.64,-0.7 -0.64,-0.84 0,-0.3 0.21,-0.5 0.5,-0.5 0.5,0 4.97,3.39 7.92,9.71 2.54,5.47 3.13,11 3.13,15.19 z"
         inkscape:connector-curvature="0"
         style="fill:#000000;stroke-width:0" /></g>  </g>
  <path
     style="opacity:0.56600001;fill:none;stroke:#000000;stroke-width:0.76205367;stroke-miterlimit:4;stroke-dasharray:none;stroke-opacity:1"
     id="path6756"
     transform="matrix(-0.99945024,0.03315436,0,1,0,0)"
     inkscape:transform-center-x="16.227729"
     inkscape:transform-center-y="-3.9027616"
     sodipodi:type="arc"
     sodipodi:cx="-106.75544"
     sodipodi:cy="41.090858"
     sodipodi:rx="23.602242"
     sodipodi:ry="22.571001"
     sodipodi:start="2.1310268"
     sodipodi:end="3.9744036"
     d="M -119.29723,60.211491 A 23.602242,22.571001 0 0 1 -130.26452,43.094272 23.602242,22.571001 0 0 1 -122.635,24.392256"
     sodipodi:open="true" />
  <path
     style="fill:none;fill-rule:evenodd;stroke:#000000;stroke-width:0.76499999;stroke-linecap:butt;stroke-linejoin:miter;stroke-miterlimit:4;stroke-dasharray:none;stroke-opacity:1"
     d="m 94.078872,28.32652 0,17.907058 z"
     id="path10746"
     inkscape:connector-curvature="0"
     sodipodi:nodetypes="ccc" />
  <path
     style="fill:none;fill-rule:evenodd;stroke:#000000;stroke-width:0.76499999;stroke-linecap:butt;stroke-linejoin:miter;stroke-miterlimit:4;stroke-dasharray:none;stroke-opacity:1"
     d="M 28.836059,29.633334 V 47.540392 Z"
     id="path10746-7"
     inkscape:connector-curvature="0"
     sodipodi:nodetypes="ccc" />
</svg>
