<?xml version="1.0" encoding="UTF-8" standalone="no"?>
<svg
   xmlns:dc="http://purl.org/dc/elements/1.1/"
   xmlns:cc="http://creativecommons.org/ns#"
   xmlns:rdf="http://www.w3.org/1999/02/22-rdf-syntax-ns#"
   xmlns:svg="http://www.w3.org/2000/svg"
   xmlns="http://www.w3.org/2000/svg"
   xmlns:sodipodi="http://sodipodi.sourceforge.net/DTD/sodipodi-0.dtd"
   xmlns:inkscape="http://www.inkscape.org/namespaces/inkscape"
   width="700"
   height="300"
   viewBox="0 0 700 300"
   version="1.1"
   id="svg8"
   sodipodi:docname="fourier.svg"
   inkscape:version="0.92.2 5c3e80d, 2017-08-06">
  <metadata
     id="metadata14">
    <rdf:RDF>
      <cc:Work
         rdf:about="">
        <dc:format>image/svg+xml</dc:format>
        <dc:type
           rdf:resource="http://purl.org/dc/dcmitype/StillImage" />
        <dc:title></dc:title>
      </cc:Work>
    </rdf:RDF>
  </metadata>
  <defs
     id="defs12" />
  <sodipodi:namedview
     pagecolor="#ffffff"
     bordercolor="#666666"
     borderopacity="1"
     objecttolerance="10"
     gridtolerance="10"
     guidetolerance="10"
     inkscape:pageopacity="0"
     inkscape:pageshadow="2"
     inkscape:window-width="743"
     inkscape:window-height="480"
     id="namedview10"
     showgrid="false"
     inkscape:zoom="0.45472062"
     inkscape:cx="218.84958"
     inkscape:cy="259.5"
     inkscape:window-x="0"
     inkscape:window-y="0"
     inkscape:window-maximized="0"
     inkscape:current-layer="svg8" />
  <g
     id="g6"
     transform="translate(0,-219)">
    <polyline
       points="0,368 0,362 0,356 1,350 1,344 1,338 2,327 2,321 2,315 3,305 3,295 4,286 4,277 5,270 5,263 6,253 7,247 8,244 9,244 10,247 11,251 12,256 13,261 14,266 15,269 16,271 17,272 18,271 19,269 20,266 21,263 22,260 23,257 24,255 25,255 26,255 27,256 28,258 29,260 30,262 31,265 32,266 33,267 34,267 35,267 36,265 37,263 38,262 39,260 40,258 41,257 42,257 43,257 44,258 45,259 46,261 47,263 48,264 49,265 50,266 51,266 52,265 53,264 54,263 55,261 56,260 57,259 58,258 59,258 60,258 61,259 62,260 63,261 64,263 65,264 66,265 67,266 68,265 69,265 70,264 71,262 72,261 73,259 74,258 75,258 76,258 77,258 78,259 79,260 80,262 81,263 82,265 83,266 84,266 85,266 86,265 87,264 88,262 89,260 90,259 91,258 92,257 93,257 94,258 95,259 96,260 97,262 98,264 99,266 100,267 101,267 102,267 103,266 104,264 105,262 106,259 107,257 108,255 109,255 110,255 111,256 112,258 113,261 114,264 115,267 116,270 117,271 118,272 119,271 120,268 121,264 122,259 123,254 124,249 125,245 126,244 127,244 128,249 129,257 130,262 130,269 131,276 131,284 132,293 132,303 133,313 133,319 133,330 134,336 134,342 134,348 134,354 135,365 135,371 135,377 136,383 136,389 136,395 136,401 137,406 137,412 137,422 138,432 138,441 139,449 139,456 140,463 141,472 142,478 143,481 144,480 145,477 146,473 147,468 148,462 149,458 150,455 151,453 152,453 153,454 154,456 155,459 156,462 157,465 158,468 159,469 160,470 161,469 162,468 163,466 164,464 165,462 166,460 167,458 168,457 169,457 170,458 171,459 172,461 173,463 174,465 175,466 176,467 177,467 178,467 179,466 180,465 181,463 182,461 183,460 184,459 185,458 186,459 187,459 188,460 189,462 190,463 191,465 192,466 193,467 194,467 195,466 196,465 197,464 198,463 199,461 200,460 201,459 202,459 203,459 204,460 205,461 206,462 207,464 208,465 209,466 210,467 211,467 212,466 213,465 214,464 215,462 216,461 217,460 218,459 219,458 220,459 221,460 222,461 223,462 224,464 225,466 226,467 227,467 228,467 229,467 230,465 231,464 232,462 233,460 234,458 235,457 236,457 237,458 238,459 239,461 240,463 241,465 242,467 243,469 244,470 245,469 246,468 247,466 248,463 249,460 250,457 251,454 252,453 253,453 254,454 255,457 256,461 257,466 258,471 259,476 260,479 261,481 262,480 263,475 264,466 264,461 265,454 265,447 266,438 266,429 267,419 267,414 267,408 268,403 268,397 268,386 269,380 269,374 269,368 269,362 270,356 270,350 270,344 270,338 271,332 271,327 271,321 271,316 272,310 272,300 273,290 273,282 274,274 274,267 275,260 276,251 277,246 278,244 279,244 280,248 281,252 282,257 283,262 284,267 285,270 286,271 287,272 288,270 289,268 290,265 291,262 292,259 293,257 294,255 295,255 296,255 297,256 298,258 299,261 300,263 301,265 302,266 303,267 304,267 305,266 306,265 307,263 308,261 309,259 310,258 311,257 312,257 313,257 314,258 315,260 316,261 317,263 318,264 319,265 320,266 321,266 322,265 323,264 324,262 325,261 326,259 327,258 328,258 329,258 330,258 331,259 332,260 333,262 334,263 335,264 336,265 337,266 338,265 339,265 340,263 341,262 342,260 343,259 344,258 345,258 346,258 347,258 348,259 349,261 350,262 351,264 352,265 353,266 354,266 355,266 356,265 357,263 358,262 359,260 360,258 361,257 362,257 363,257 364,258 365,259 366,261 367,263 368,265 369,266 370,267 371,267 372,267 373,265 374,263 375,261 376,259 377,257 378,255 379,255 380,255 381,256 382,259 383,261 384,265 385,268 386,270 387,271 388,271 389,270 390,267 391,263 392,258 393,253 394,248 395,245 396,243 397,245 398,250 399,259 399,265 400,272 400,280 401,288 401,298 402,308 402,313 402,319 403,330 403,336 403,347 404,353 404,359 404,365 404,371 405,377 405,383 405,389 405,395 406,400 406,406 406,411 406,417 407,427 407,436 408,445 408,453 409,459 409,465 410,474 411,479 412,481 413,480 414,476 415,472 416,466 417,461 418,457 419,454 420,453 421,453 422,454 423,457 424,460 425,463 426,466 427,468 428,469 429,470 430,469 431,468 432,466 433,463 434,461 435,459 436,458 437,457 438,457 439,458 440,460 441,462 442,463 443,465 444,467 445,467 446,467 447,467 448,466 449,464 450,463 451,461 452,460 453,459 454,458 455,459 456,459 457,461 458,462 459,464 460,465 461,466 462,467 463,467 464,466 465,465 466,464 467,462 468,461 469,460 470,459 471,459 472,459 473,460 474,461 475,463 476,464 477,465 478,466 479,467 480,467 481,466 482,465 483,463 484,462 485,460 486,459 487,459 488,458 489,459 490,460 491,461 492,463 493,465 494,466 495,467 496,467 497,467 498,466 499,465 500,463 501,461 502,459 503,458 504,457 505,457 506,458 507,459 508,461 509,464 510,466 511,468 512,469 513,470 514,469 515,468 516,465 517,462 518,459 519,456 520,454 521,453 522,453 523,455 524,458 525,462 526,467 527,472 528,477 529,480 530,481 531,479 532,473 533,464 534,458 534,451 535,443 535,434 536,424 536,414 537,408 537,403 537,397 538,386 538,380 538,374 538,368 539,362 539,356 539,350 539,344 540,333 540,327 540,321 541,316 541,310 541,300 542,290 542,282 543,274 543,267 544,260 545,251 546,246 547,244 548,244 549,248 550,252 551,257 552,262 553,267 554,270 555,271 556,272 557,270 558,268 559,265 560,262 561,259 562,257 563,255 564,255 565,255 566,256 567,258 568,261 569,263 570,265 571,266 572,267 573,267 574,266 575,265 576,263 577,261 578,259 579,258 580,257 581,257 582,257 583,258 584,260 585,261 586,263 587,264 588,265 589,266 590,266 591,265 592,264 593,262 594,261 595,259 596,258 597,258 598,258 599,258 600,259 601,260 602,262 603,263 604,264 605,265 606,266 607,265 608,265 609,263 610,262 611,261 612,259 613,258 614,258 615,258 616,258 617,259 618,261 619,262 620,264 621,265 622,266 623,266 624,266 625,265 626,263 627,262 628,260 629,258 630,257 631,257 632,257 633,258 634,259 635,261 636,263 637,265 638,266 639,267 640,267 641,267 642,265 643,263 644,261 645,259 646,257 647,255 648,255 649,255 650,256 651,259 652,261 653,265 654,268 655,270 656,271 657,272 658,270 659,267 660,263 661,258 662,253 663,248 664,245 665,243 666,245 667,250 668,259 668,265 669,272 669,280 670,288 670,298 671,308 671,313 671,319 672,324 672,330 672,341 673,347 673,353 673,359 673,365 674,371 674,377 674,383 674,389 675,395 675,400 675,406 676,416 676,422 676,431 677,440 677,449 678,456 678,462 679,472 680,478 681,481 682,480 683,477 684,473 685,468 686,463 687,458 688,455 689,453 690,453 691,454 692,456 693,459 694,462 695,464 "
       id="polyline2"
       style="fill:none;stroke:#0000ff;stroke-width:1;stroke-linecap:butt;stroke-linejoin:miter" />
    <polyline
       points="0,364 1,355 2,346 3,338 4,329 5,320 6,312 7,304 8,297 9,290 10,283 11,277 12,271 13,266 14,261 15,257 16,253 17,250 18,248 19,246 20,244 21,243 22,243 23,243 24,243 25,244 26,245 27,246 28,248 29,249 30,251 31,253 32,256 33,258 34,260 35,262 36,264 37,266 38,267 39,269 40,270 41,271 42,272 43,273 44,273 45,273 46,273 47,273 48,272 49,272 50,271 51,270 52,268 53,267 54,266 55,264 56,263 57,261 58,260 59,258 60,257 61,255 62,254 63,253 64,253 65,252 66,251 67,251 68,251 69,251 70,252 71,252 72,253 73,254 74,255 75,257 76,258 77,259 78,261 79,262 80,264 81,265 82,267 83,268 84,270 85,271 86,272 87,272 88,273 89,273 90,273 91,273 92,273 93,272 94,271 95,270 96,269 97,268 98,266 99,264 100,262 101,260 102,258 103,256 104,254 105,252 106,250 107,248 108,246 109,245 110,244 111,243 112,243 113,243 114,243 115,244 116,246 117,248 118,250 119,253 120,257 121,261 122,265 123,271 124,276 125,282 126,289 127,296 128,304 129,312 130,320 131,328 132,337 133,346 134,354 135,363 136,372 137,381 138,390 139,399 140,407 141,415 142,423 143,430 144,437 145,444 146,450 147,455 148,460 149,465 150,469 151,472 152,475 153,477 154,479 155,480 156,481 157,482 158,482 159,481 160,480 161,479 162,478 163,476 164,474 165,472 166,470 167,468 168,466 169,464 170,462 171,460 172,458 173,456 174,455 175,454 176,453 177,452 178,451 179,451 180,451 181,451 182,451 183,452 184,453 185,454 186,455 187,456 188,458 189,459 190,461 191,462 192,464 193,465 194,467 195,468 196,469 197,470 198,471 199,472 200,473 201,473 202,473 203,473 204,473 205,472 206,472 207,471 208,470 209,469 210,467 211,466 212,464 213,463 214,461 215,460 216,458 217,457 218,456 219,454 220,453 221,452 222,452 223,451 224,451 225,451 226,451 227,452 228,452 229,453 230,454 231,456 232,457 233,459 234,461 235,463 236,465 237,467 238,469 239,471 240,473 241,475 242,477 243,479 244,480 245,481 246,481 247,482 248,481 249,481 250,480 251,478 252,476 253,473 254,470 255,466 256,462 257,457 258,452 259,446 260,439 261,433 262,425 263,418 264,410 265,402 266,393 267,384 268,375 269,367 270,358 271,349 272,340 273,331 274,323 275,314 276,306 277,299 278,292 279,285 280,278 281,272 282,267 283,262 284,258 285,254 286,251 287,248 288,246 289,245 290,243 291,243 292,243 293,243 294,244 295,244 296,246 297,247 298,249 299,251 300,253 301,255 302,257 303,259 304,261 305,263 306,265 307,267 308,269 309,270 310,271 311,272 312,273 313,273 314,273 315,273 316,273 317,273 318,272 319,271 320,270 321,269 322,267 323,266 324,264 325,263 326,261 327,260 328,258 329,257 330,256 331,255 332,254 333,253 334,252 335,252 336,251 337,251 338,251 339,252 340,252 341,253 342,254 343,255 344,256 345,258 346,259 347,260 348,262 349,264 350,265 351,267 352,268 353,269 354,270 355,271 356,272 357,273 358,273 359,273 360,273 361,273 362,273 363,272 364,271 365,269 366,268 367,266 368,265 369,263 370,261 371,258 372,256 373,254 374,252 375,250 376,248 377,247 378,245 379,244 380,243 381,243 382,243 383,243 384,244 385,245 386,247 387,249 388,252 389,256 390,260 391,264 392,269 393,275 394,281 395,287 396,294 397,302 398,309 399,318 400,326 401,334 402,343 403,352 404,361 405,370 406,379 407,388 408,396 409,405 410,413 411,421 412,428 413,435 414,442 415,448 416,454 417,459 418,464 419,468 420,471 421,474 422,477 423,479 424,480 425,481 426,482 427,482 428,481 429,480 430,479 431,478 432,476 433,475 434,473 435,471 436,469 437,466 438,464 439,462 440,460 441,458 442,457 443,455 444,454 445,453 446,452 447,451 448,451 449,451 450,451 451,451 452,452 453,453 454,454 455,455 456,456 457,457 458,459 459,460 460,462 461,463 462,465 463,466 464,468 465,469 466,470 467,471 468,472 469,472 470,473 471,473 472,473 473,473 474,472 475,472 476,471 477,470 478,469 479,468 480,466 481,465 482,463 483,462 484,460 485,459 486,457 487,456 488,455 489,453 490,453 491,452 492,451 493,451 494,451 495,451 496,451 497,452 498,453 499,454 500,455 501,457 502,459 503,460 504,462 505,465 506,467 507,469 508,471 509,473 510,475 511,477 512,478 513,480 514,481 515,481 516,482 517,482 518,481 519,480 520,479 521,477 522,474 523,471 524,467 525,463 526,458 527,453 528,447 529,441 530,434 531,427 532,420 533,412 534,404 535,395 536,387 537,378 538,369 539,360 540,351 541,342 542,333 543,325 544,316 545,308 546,301 547,293 548,286 549,280 550,274 551,268 552,263 553,259 554,255 555,252 556,249 557,247 558,245 559,244 560,243 561,243 562,243 563,243 564,244 565,245 566,247 567,249 568,250 569,252 570,254 571,257 572,259 573,261 574,263 575,265 576,267 577,268 578,270 579,271 580,272 581,273 582,273 583,273 584,273 585,273 586,273 587,272 588,271 589,270 590,269 591,268 592,266 593,265 594,263 595,262 596,260 597,259 598,257 599,256 600,255 601,254 602,253 603,252 604,252 605,251 606,251 607,251 608,252 609,252 610,253 611,254 612,255 613,256 614,257 615,259 616,260 617,262 618,263 619,265 620,266 621,268 622,269 623,270 624,271 625,272 626,273 627,273 628,273 629,273 630,273 631,273 632,272 633,271 634,270 635,268 636,267 637,265 638,263 639,261 640,259 641,257 642,255 643,253 644,251 645,249 646,247 647,246 648,244 649,243 650,243 651,243 652,243 653,244 654,245 655,246 656,249 657,251 658,255 659,259 660,263 661,268 662,273 663,279 664,286 665,292 666,300 667,307 668,315 669,324 670,332 671,341 672,350 673,359 674,368 675,377 676,386 677,394 678,403 679,411 680,419 681,426 682,434 683,440 684,447 685,452 686,458 687,463 688,467 689,470 690,474 691,476 692,478 693,480 694,481 695,481 "
       id="polyline4"
       style="fill:none;stroke:#ff0000;stroke-width:1;stroke-linecap:butt;stroke-linejoin:miter" />
  </g>
</svg>
