<?xml version="1.0" encoding="UTF-8" standalone="no"?>
<!-- Created with Inkscape (http://www.inkscape.org/) -->

<svg
   xmlns:dc="http://purl.org/dc/elements/1.1/"
   xmlns:cc="http://creativecommons.org/ns#"
   xmlns:rdf="http://www.w3.org/1999/02/22-rdf-syntax-ns#"
   xmlns:svg="http://www.w3.org/2000/svg"
   xmlns="http://www.w3.org/2000/svg"
   xmlns:xlink="http://www.w3.org/1999/xlink"
   xmlns:sodipodi="http://sodipodi.sourceforge.net/DTD/sodipodi-0.dtd"
   xmlns:inkscape="http://www.inkscape.org/namespaces/inkscape"
   width="700"
   height="300"
   viewBox="0 0 185.20833 79.375002"
   version="1.1"
   id="svg7765"
   inkscape:version="0.92.1 r15371"
   sodipodi:docname="reptheo.svg">
  <sodipodi:namedview
     id="base"
     pagecolor="#ffffff"
     bordercolor="#666666"
     borderopacity="1.0"
     inkscape:pageopacity="0.0"
     inkscape:pageshadow="2"
     inkscape:zoom="0.98994949"
     inkscape:cx="346.07585"
     inkscape:cy="190.21978"
     inkscape:document-units="mm"
     inkscape:current-layer="layer1"
     showgrid="false"
     units="px"
     inkscape:window-width="1280"
     inkscape:window-height="741"
     inkscape:window-x="0"
     inkscape:window-y="0"
     inkscape:window-maximized="1" />
  <defs
     id="defs7759">
    <linearGradient
       inkscape:collect="always"
       id="linearGradient8366">
      <stop
         style="stop-color:#f2f2f2;stop-opacity:1;"
         offset="0"
         id="stop8362" />
      <stop
         style="stop-color:#f2f2f2;stop-opacity:0;"
         offset="1"
         id="stop8364" />
    </linearGradient>
    <linearGradient
       inkscape:collect="always"
       xlink:href="#linearGradient8366"
       id="linearGradient8368"
       x1="40.619838"
       y1="260.93037"
       x2="68.291855"
       y2="260.93037"
       gradientUnits="userSpaceOnUse"
       gradientTransform="matrix(0.9978203,0,0,0.9985466,-11.763813,3.375939)" />
    <linearGradient
       inkscape:collect="always"
       xlink:href="#linearGradient8366"
       id="linearGradient8376"
       x1="40.619839"
       y1="260.93036"
       x2="68.291855"
       y2="260.93036"
       gradientUnits="userSpaceOnUse"
       gradientTransform="matrix(0.9978203,0,0,0.9985466,-11.763813,3.375939)" />
  </defs>
  <metadata
     id="metadata7762">
    <rdf:RDF>
      <cc:Work
         rdf:about="">
        <dc:format>image/svg+xml</dc:format>
        <dc:type
           rdf:resource="http://purl.org/dc/dcmitype/StillImage" />
        <dc:title></dc:title>
      </cc:Work>
    </rdf:RDF>
  </metadata>
  <g
     transform="translate(0,-217.62498)"
     id="layer1"
     inkscape:groupmode="layer"
     inkscape:label="Layer 1">
    <path
       style="opacity:0.56600001;fill:#cccccc;stroke:#000000;stroke-width:0.47999999;stroke-miterlimit:4;stroke-dasharray:none;stroke-opacity:1"
       d="m 13.469167,231.98819 v 50.64859 h 41.577306 v -50.64859 z m 16.685285,13.28343 h 24.837761 v 37.3109 H 30.154452 Z"
       id="rect8353"
       inkscape:connector-curvature="0" />
    <rect
       style="opacity:0.56600001;fill:url(#linearGradient8368);fill-opacity:1;stroke:url(#linearGradient8376);stroke-width:2.77494979;stroke-miterlimit:4;stroke-dasharray:none;stroke-opacity:1"
       id="rect8360"
       width="24.837761"
       height="37.310883"
       x="30.154451"
       y="245.27162" />
    <g
       transform="matrix(2.4868883,0,0,2.1357183,-62.377856,59.660929)"
       id="g8391">
      <g
         style="font-style:normal;font-variant:normal;font-weight:normal;font-stretch:normal;letter-spacing:normal;word-spacing:normal;text-anchor:start;fill:none;fill-opacity:1;fill-rule:evenodd;stroke:#000000;stroke-linecap:butt;stroke-linejoin:miter;stroke-miterlimit:10.43299961;stroke-dasharray:none;stroke-dashoffset:0;stroke-opacity:1"
         id="content"
         transform="matrix(0.11339286,0,0,-0.11339286,-19.84375,138.90625)"
         xml:space="preserve"
         stroke-miterlimit="10.433"
         font-style="normal"
         font-variant="normal"
         font-weight="normal"
         font-stretch="normal"
         font-size-adjust="none"
         letter-spacing="normal"
         word-spacing="normal"><path
           style="fill:#000000;stroke-width:0"
           inkscape:connector-curvature="0"
           d="m 473.3,420.75 0.19,-0.5 0.2,-0.51 0.39,-1.05 0.4,-1.08 0.39,-1.1 0.39,-1.1 0.39,-1.09 0.37,-1.07 0.19,-0.53 0.18,-0.51 0.17,-0.5 0.18,-0.49 0.16,-0.47 0.17,-0.45 0.16,-0.44 0.15,-0.42 0.15,-0.39 0.14,-0.37 0.13,-0.35 0.13,-0.32 0.12,-0.29 0.12,-0.26 0.1,-0.23 0.1,-0.2 0.09,-0.16 0.08,-0.12 c 0.79,-1.1 1.29,-1.1 2.64,-1.1 h 1.09 c 0.5,0.05 0.55,0.35 0.55,0.5 0,0.14 -0.1,0.25 -0.25,0.46 -0.49,0.54 -0.8,1.28 -1.14,2.28 l -10.16,28.34 c -1.05,2.89 -3.75,3.55 -6.08,3.55 -0.25,0 -0.9,0 -0.9,-0.55 0,-0.41 0.4,-0.5 0.45,-0.5 1.64,-0.3 1.98,-0.59 3.23,-3.98 l 4.83,-13.55 -13.75,-13.66 c -0.59,-0.59 -0.89,-0.9 -0.89,-1.54 0,-0.85 0.7,-1.44 1.5,-1.44 0.8,0 1.23,0.55 1.64,1.05 z"
           id="path8388" /></g>    </g>
    <g
       transform="matrix(1.8641975,0,0,2.7286963,-19.698718,13.901064)"
       id="g8425">
      <g
         style="font-style:normal;font-variant:normal;font-weight:normal;font-stretch:normal;letter-spacing:normal;word-spacing:normal;text-anchor:start;fill:none;fill-opacity:1;fill-rule:evenodd;stroke:#000000;stroke-linecap:butt;stroke-linejoin:miter;stroke-miterlimit:10.43299961;stroke-dasharray:none;stroke-dashoffset:0;stroke-opacity:1"
         word-spacing="normal"
         letter-spacing="normal"
         font-size-adjust="none"
         font-stretch="normal"
         font-weight="normal"
         font-variant="normal"
         font-style="normal"
         stroke-miterlimit="10.433"
         xml:space="preserve"
         transform="matrix(0.11339286,0,0,-0.11339286,-19.84375,138.90625)"
         id="g8423"><path
           style="fill:#000000;stroke-width:0"
           inkscape:connector-curvature="0"
           id="path8421"
           d="m 467.04,423.68 0.02,0.1 0.02,0.11 0.03,0.11 0.03,0.11 0.03,0.12 0.03,0.12 0.06,0.24 0.06,0.25 0.06,0.25 0.06,0.24 0.06,0.25 0.02,0.11 0.03,0.12 0.03,0.11 0.02,0.11 0.03,0.1 0.02,0.1 0.02,0.1 0.02,0.08 0.02,0.09 0.01,0.07 0.02,0.07 0.01,0.07 0.01,0.05 v 0.05 l 0.01,0.03 v 0.02 0.01 c 0,0.84 -0.59,1.34 -1.44,1.34 -0.15,0 -1.54,-0.04 -2,-1.78 l -7.17,-28.86 c -0.14,-0.59 -0.14,-0.68 -0.14,-0.79 0,-0.74 0.55,-1.35 1.39,-1.35 1.05,0 1.64,0.91 1.75,1.05 0.19,0.45 0.84,3.05 2.73,10.72 1.6,-1.34 3.83,-1.55 4.83,-1.55 3.49,0 5.44,2.24 6.63,3.64 0.45,-2.25 2.29,-3.64 4.48,-3.64 1.75,0 2.89,1.14 3.69,2.74 0.84,1.79 1.5,4.84 1.5,4.93 0,0.5 -0.45,0.5 -0.59,0.5 -0.5,0 -0.55,-0.2 -0.71,-0.9 -0.84,-3.24 -1.75,-6.17 -3.78,-6.17 -1.34,0 -1.5,1.29 -1.5,2.29 0,1.1 0.6,3.44 1,5.17 l 1.39,5.4 c 0.16,0.75 0.64,2.64 0.85,3.39 0.25,1.14 0.75,3.03 0.75,3.32 0,0.91 -0.71,1.35 -1.44,1.35 -0.25,0 -1.55,-0.05 -1.95,-1.74 l -2.35,-9.32 c -0.59,-2.49 -1.14,-4.58 -1.3,-5.08 -0.04,-0.25 -2.43,-4.78 -6.46,-4.78 -2.49,0 -3.69,1.64 -3.69,4.32 0,1.46 0.34,2.85 0.7,4.25 z" /></g>    </g>
    <g
       transform="matrix(1.3475795,0,0,1.7980625,37.976621,70.404929)"
       id="g8586">
      <g
         style="font-style:normal;font-variant:normal;font-weight:normal;font-stretch:normal;letter-spacing:normal;word-spacing:normal;text-anchor:start;fill:none;fill-opacity:1;fill-rule:evenodd;stroke:#000000;stroke-linecap:butt;stroke-linejoin:miter;stroke-miterlimit:10.43299961;stroke-dasharray:none;stroke-dashoffset:0;stroke-opacity:1"
         word-spacing="normal"
         letter-spacing="normal"
         font-size-adjust="none"
         font-stretch="normal"
         font-weight="normal"
         font-variant="normal"
         font-style="normal"
         stroke-miterlimit="10.433"
         xml:space="preserve"
         transform="matrix(0.11339286,0,0,-0.11339286,-19.84375,138.90625)"
         id="g8584"><path
           style="fill:#000000;stroke-width:0"
           inkscape:connector-curvature="0"
           id="path8546"
           d="m 476.1,382.91 v 0.02 0.02 0.01 l -0.01,0.02 v 0.02 0.01 0.02 l -0.01,0.01 v 0.02 l -0.01,0.01 v 0.02 l -0.01,0.01 v 0.01 l -0.01,0.02 -0.01,0.01 v 0.01 l -0.02,0.03 -0.01,0.02 -0.02,0.03 -0.02,0.02 -0.02,0.03 -0.01,0.03 -0.02,0.02 -0.01,0.02 -0.02,0.01 c -2.29,2.44 -5.67,6.49 -7.76,14.6 -1.16,4.53 -1.59,9.67 -1.59,14.29 0,13.11 3.14,22.29 9.1,28.75 0.46,0.46 0.46,0.55 0.46,0.66 0,0.5 -0.41,0.5 -0.6,0.5 -0.75,0 -3.43,-3 -4.09,-3.75 -5.08,-6.02 -8.31,-14.98 -8.31,-26.09 0,-7.08 1.23,-17.1 7.76,-25.52 0.5,-0.59 3.74,-4.39 4.64,-4.39 0.19,0 0.6,0 0.6,0.5 z" /><path
           style="fill:#000000;stroke-width:0"
           inkscape:connector-curvature="0"
           id="path8548"
           d="m 510.58,434.46 v 0.02 0.02 0.01 0.02 l -0.01,0.02 v 0.02 l -0.01,0.02 v 0.02 l -0.01,0.02 -0.01,0.02 -0.01,0.02 -0.01,0.02 -0.01,0.02 -0.01,0.02 -0.01,0.02 -0.02,0.02 -0.01,0.02 -0.02,0.02 -0.02,0.02 -0.02,0.02 -0.02,0.01 -0.02,0.02 -0.03,0.02 -0.02,0.01 -0.03,0.01 -0.03,0.01 -0.02,0.01 h -0.01 l -0.02,0.01 h -0.02 -0.01 l -0.02,0.01 h -0.02 -0.02 -0.02 -0.01 -0.02 -0.02 c -0.25,0 -0.32,-0.04 -0.91,-0.75 l -2.39,-2.84 c -1.3,2.34 -3.89,3.59 -7.13,3.59 -6.32,0 -12.29,-5.73 -12.29,-11.76 0,-4.03 2.64,-6.33 5.17,-7.06 l 5.33,-1.41 c 1.84,-0.44 4.59,-1.19 4.59,-5.28 0,-4.49 -4.09,-9.16 -8.97,-9.16 -3.19,0 -8.72,1.1 -8.72,7.27 0,1.2 0.25,2.39 0.3,2.69 0.05,0.2 0.09,0.25 0.09,0.36 0,0.5 -0.34,0.54 -0.59,0.54 -0.25,0 -0.34,-0.04 -0.5,-0.2 -0.2,-0.2 -2.98,-11.56 -2.98,-11.7 0,-0.3 0.25,-0.5 0.54,-0.5 0.25,0 0.3,0.04 0.89,0.75 l 2.46,2.82 c 2.14,-2.89 5.51,-3.57 8.4,-3.57 6.78,0 12.66,6.62 12.66,12.79 0,3.44 -1.69,5.14 -2.44,5.83 -1.14,1.16 -1.89,1.34 -6.33,2.5 -1.09,0.3 -2.89,0.8 -3.34,0.89 -1.34,0.45 -3.03,1.89 -3.03,4.53 0,4.05 3.98,8.28 8.72,8.28 4.14,0 7.17,-2.14 7.17,-7.73 0,-1.59 -0.2,-2.48 -0.2,-2.78 0,-0.05 0,-0.5 0.6,-0.5 0.5,0 0.55,0.15 0.74,1 z" /><path
           style="fill:#000000;stroke-width:0"
           inkscape:connector-curvature="0"
           id="path8550"
           d="m 526,427.81 0.33,-0.76 0.33,-0.77 0.33,-0.78 0.33,-0.78 0.33,-0.78 0.31,-0.76 0.16,-0.37 0.15,-0.36 0.15,-0.36 0.14,-0.34 0.15,-0.34 0.13,-0.32 0.13,-0.31 0.13,-0.3 0.12,-0.29 0.12,-0.26 0.11,-0.26 0.1,-0.23 0.1,-0.22 0.09,-0.19 0.08,-0.18 0.08,-0.15 0.06,-0.13 0.06,-0.11 0.05,-0.08 0.04,-0.06 c 0.66,-0.82 1.3,-0.82 1.84,-0.82 h 0.71 c 0.65,0 1.01,0 1.01,0.4 0,0.19 -0.11,0.28 -0.19,0.36 -0.4,0.38 -0.76,1.19 -0.9,1.5 l -8.5,20.06 c -0.24,0.63 -0.94,2.21 -4.63,2.21 -0.42,0 -0.9,0 -0.9,-0.5 0,-0.41 0.34,-0.46 0.51,-0.49 0.74,-0.09 1.39,-0.2 2.27,-2.18 l 4.14,-9.77 -10.27,-9.27 c -0.42,-0.34 -0.7,-0.62 -0.7,-1.21 0,-0.83 0.7,-1.19 1.19,-1.19 0.65,0 1.08,0.45 1.19,0.56 z" /><path
           style="fill:#000000;stroke-width:0"
           inkscape:connector-curvature="0"
           id="path8552"
           d="m 569.24,428.18 0.23,0.36 0.23,0.33 0.22,0.31 0.23,0.29 0.22,0.28 0.21,0.25 0.22,0.24 0.22,0.22 0.21,0.2 0.21,0.19 0.21,0.17 0.21,0.16 0.2,0.14 0.2,0.13 0.21,0.12 0.2,0.11 0.19,0.09 0.2,0.09 0.19,0.07 0.2,0.07 0.19,0.06 0.19,0.05 0.19,0.04 0.18,0.03 0.19,0.03 0.18,0.03 0.36,0.04 0.35,0.02 0.35,0.02 c 0.6,0.05 0.64,0.89 0.64,0.96 0,0.39 -0.25,0.59 -0.64,0.59 -1.29,0 -2.75,-0.16 -4.09,-0.16 -1.64,0 -3.34,0.16 -4.94,0.16 -0.3,0 -0.94,0 -0.94,-0.95 0,-0.55 0.46,-0.6 0.8,-0.6 1.34,-0.09 2.3,-0.59 2.3,-1.64 0,-0.75 -0.75,-1.84 -0.75,-1.89 l -15.3,-24.31 -3.39,26.34 c 0,0.85 1.14,1.5 3.44,1.5 0.7,0 1.25,0 1.25,1 0,0.44 -0.41,0.55 -0.71,0.55 -1.98,0 -4.14,-0.16 -6.17,-0.16 -0.9,0 -1.84,0.05 -2.75,0.05 -0.89,0 -1.84,0.11 -2.68,0.11 -0.35,0 -0.94,0 -0.94,-0.95 0,-0.6 0.44,-0.6 1.23,-0.6 2.8,0 2.85,-0.45 3,-1.68 l 3.92,-30.75 c 0.16,-1 0.36,-1.14 1,-1.14 0.8,0 1,0.25 1.41,0.89 z" /><path
           style="fill:#000000;stroke-width:0"
           inkscape:connector-curvature="0"
           id="path8554"
           d="m 589.29,426.51 0.26,0.12 0.26,0.11 0.24,0.11 0.24,0.1 0.23,0.1 0.22,0.1 0.21,0.09 0.21,0.09 0.2,0.08 0.19,0.08 0.18,0.08 0.18,0.07 0.17,0.08 0.16,0.06 0.16,0.07 0.15,0.06 0.14,0.07 0.14,0.05 0.14,0.06 0.12,0.05 0.13,0.06 0.12,0.05 0.11,0.05 0.11,0.04 0.11,0.05 0.1,0.05 0.19,0.08 0.18,0.08 0.16,0.08 c 0.68,0.27 0.99,0.41 0.99,1.08 0,0.6 -0.45,1.11 -1.08,1.11 -0.25,0 -0.31,0 -0.73,-0.31 l -4.74,-3.17 0.52,5.15 c 0.08,0.63 0,1.5 -1.05,1.5 -0.42,0 -1.08,-0.28 -1.08,-1.04 0,-0.32 0.14,-1.36 0.17,-1.71 0.08,-0.59 0.32,-3.11 0.4,-3.9 l -4.71,3.17 c -0.36,0.2 -0.45,0.31 -0.76,0.31 -0.64,0 -1.1,-0.51 -1.1,-1.11 0,-0.7 0.42,-0.87 0.74,-1.01 l 5.26,-2.19 c -2.86,-1.27 -4.14,-1.75 -5.01,-2.17 -0.66,-0.28 -0.99,-0.43 -0.99,-1.08 0,-0.6 0.46,-1.11 1.1,-1.11 0.23,0 0.31,0 0.72,0.31 l 4.75,3.17 -0.57,-5.61 c 0,-0.76 0.66,-1.04 1.08,-1.04 0.42,0 1.08,0.28 1.08,1.04 0,0.32 -0.14,1.36 -0.17,1.71 -0.07,0.59 -0.32,3.09 -0.38,3.9 l 4.17,-2.79 c 0.91,-0.69 0.99,-0.69 1.3,-0.69 0.63,0 1.08,0.51 1.08,1.11 0,0.7 -0.42,0.87 -0.74,1.01 z" /><path
           style="fill:#000000;stroke-width:0"
           inkscape:connector-curvature="0"
           id="path8556"
           d="m 647.97,412.29 h -1.25 c 0,-3.83 -1.44,-7.47 -4.03,-10.4 l -10.41,10.4 10.36,10.42 -0.89,0.85 -10.37,-10.42 -9.91,9.87 c -0.11,0.1 -0.45,0.44 -0.45,0.55 0,0.2 4.03,4.08 10.31,4.08 1.75,0 6.33,-0.25 10.42,-4.08 l 0.89,-0.85 c 2.39,-2.54 4.08,-6.32 4.08,-10.42 h 1.25 c 0,9.17 -7.47,16.6 -16.59,16.6 -9.27,0 -16.65,-7.53 -16.65,-16.6 h 1.25 c 0,3.85 1.46,7.47 4.04,10.42 l 10.42,-10.42 0.89,-0.84 9.92,-9.86 c 0.09,-0.11 0.44,-0.45 0.44,-0.55 0,-0.2 -4.03,-4.09 -10.31,-4.09 -1.74,0 -6.33,0.25 -10.41,4.09 l 10.36,10.41 -0.89,0.84 -10.42,-10.4 c -3.04,3.39 -4.04,7.22 -4.04,10.4 h -1.25 c 0,-9.17 7.49,-16.59 16.6,-16.59 9.26,0 16.64,7.53 16.64,16.59 z" /><path
           style="fill:#000000;stroke-width:0"
           inkscape:connector-curvature="0"
           id="path8558"
           d="m 693.94,434.46 v 0.02 0.02 l -0.01,0.01 v 0.02 0.02 l -0.01,0.02 v 0.02 l -0.01,0.02 v 0.02 l -0.01,0.02 -0.01,0.02 -0.01,0.02 -0.01,0.02 -0.01,0.02 -0.02,0.02 -0.01,0.02 -0.02,0.02 -0.02,0.02 -0.01,0.02 -0.02,0.02 -0.03,0.01 -0.02,0.02 -0.02,0.02 -0.03,0.01 -0.03,0.01 -0.03,0.01 -0.01,0.01 h -0.02 l -0.01,0.01 h -0.02 -0.02 l -0.01,0.01 h -0.02 -0.02 -0.02 -0.02 -0.02 -0.02 c -0.25,0 -0.31,-0.04 -0.91,-0.75 l -2.39,-2.84 c -1.29,2.34 -3.89,3.59 -7.12,3.59 -6.33,0 -12.3,-5.73 -12.3,-11.76 0,-4.03 2.64,-6.33 5.17,-7.06 l 5.33,-1.41 c 1.85,-0.44 4.6,-1.19 4.6,-5.28 0,-4.49 -4.1,-9.16 -8.97,-9.16 -3.19,0 -8.72,1.1 -8.72,7.27 0,1.2 0.25,2.39 0.3,2.69 0.04,0.2 0.09,0.25 0.09,0.36 0,0.5 -0.35,0.54 -0.59,0.54 -0.26,0 -0.35,-0.04 -0.5,-0.2 -0.21,-0.2 -2.99,-11.56 -2.99,-11.7 0,-0.3 0.25,-0.5 0.55,-0.5 0.25,0 0.29,0.04 0.89,0.75 l 2.45,2.82 c 2.14,-2.89 5.52,-3.57 8.41,-3.57 6.78,0 12.65,6.62 12.65,12.79 0,3.44 -1.68,5.14 -2.43,5.83 -1.14,1.16 -1.89,1.34 -6.33,2.5 -1.1,0.3 -2.89,0.8 -3.35,0.89 -1.34,0.45 -3.03,1.89 -3.03,4.53 0,4.05 3.99,8.28 8.72,8.28 4.14,0 7.17,-2.14 7.17,-7.73 0,-1.59 -0.2,-2.48 -0.2,-2.78 0,-0.05 0,-0.5 0.61,-0.5 0.5,0 0.55,0.15 0.73,1 z" /><path
           style="fill:#000000;stroke-width:0"
           inkscape:connector-curvature="0"
           id="path8560"
           d="m 697.16,412.23 -0.02,-0.05 -0.01,-0.04 -0.01,-0.05 -0.01,-0.04 v -0.04 l -0.01,-0.04 -0.01,-0.03 -0.01,-0.04 v -0.03 l -0.01,-0.03 v -0.03 l -0.01,-0.03 v -0.03 l -0.01,-0.02 v -0.03 -0.02 l -0.01,-0.02 v -0.02 -0.02 -0.01 -0.02 l -0.01,-0.01 v -0.02 -0.01 -0.01 -0.01 -0.01 0 -0.01 -0.01 0 0 c 0,-0.77 0.63,-1.11 1.17,-1.11 1.27,0 1.53,1.14 1.68,1.73 0.07,0.17 0.76,2.97 1.6,6.38 1.08,-0.72 2.47,-1 3.74,-1 2.98,0 4.94,2.43 5.01,2.5 0.66,-2.41 3.07,-2.5 3.58,-2.5 1.27,0 2.13,0.76 2.77,1.84 0.76,1.36 1.22,3.34 1.22,3.48 0,0.46 -0.46,0.46 -0.57,0.46 -0.48,0 -0.53,-0.14 -0.76,-1.08 -0.42,-1.67 -1.08,-3.74 -2.55,-3.74 -0.9,0 -1.15,0.77 -1.15,1.71 0,0.59 0.28,1.86 0.53,2.76 0.25,0.94 0.59,2.36 0.76,3.13 l 0.8,3.11 c 0.22,0.87 0.59,2.4 0.59,2.58 0,0.68 -0.54,1.11 -1.14,1.11 -0.39,0 -1.04,-0.18 -1.43,-0.83 -0.11,-0.22 -0.38,-1.33 -0.57,-2.03 l -0.72,-2.89 -1.07,-4.36 c -0.25,-0.86 -0.25,-0.94 -0.57,-1.39 -1.07,-1.54 -2.61,-2.9 -4.61,-2.9 -2.84,0 -2.84,2.47 -2.84,3.11 0,0.91 0.09,1.36 0.59,3.24 0.35,1.53 0.41,1.78 0.77,3.14 l 0.48,1.95 c 0.18,0.72 0.52,2.05 0.52,2.19 0,0.62 -0.48,1.11 -1.19,1.11 -1.25,0 -1.56,-1.22 -1.67,-1.63 z" /><path
           style="fill:#000000;stroke-width:0"
           inkscape:connector-curvature="0"
           id="path8562"
           d="m 753.2,428.18 0.23,0.36 0.23,0.33 0.22,0.31 0.23,0.29 0.22,0.28 0.22,0.25 0.21,0.24 0.22,0.22 0.21,0.2 0.21,0.19 0.21,0.17 0.21,0.16 0.2,0.14 0.21,0.13 0.2,0.12 0.2,0.11 0.19,0.09 0.2,0.09 0.2,0.07 0.19,0.07 0.19,0.06 0.19,0.05 0.19,0.04 0.18,0.03 0.19,0.03 0.18,0.03 0.36,0.04 0.36,0.02 0.34,0.02 c 0.6,0.05 0.64,0.89 0.64,0.96 0,0.39 -0.25,0.59 -0.64,0.59 -1.29,0 -2.75,-0.16 -4.09,-0.16 -1.64,0 -3.34,0.16 -4.94,0.16 -0.29,0 -0.94,0 -0.94,-0.95 0,-0.55 0.46,-0.6 0.8,-0.6 1.35,-0.09 2.3,-0.59 2.3,-1.64 0,-0.75 -0.75,-1.84 -0.75,-1.89 l -15.3,-24.31 -3.39,26.34 c 0,0.85 1.14,1.5 3.44,1.5 0.7,0 1.25,0 1.25,1 0,0.44 -0.41,0.55 -0.7,0.55 -1.99,0 -4.15,-0.16 -6.18,-0.16 -0.9,0 -1.84,0.05 -2.75,0.05 -0.89,0 -1.84,0.11 -2.68,0.11 -0.35,0 -0.94,0 -0.94,-0.95 0,-0.6 0.44,-0.6 1.23,-0.6 2.8,0 2.85,-0.45 3,-1.68 l 3.93,-30.75 c 0.15,-1 0.35,-1.14 1,-1.14 0.79,0 1,0.25 1.4,0.89 z" /><path
           style="fill:#000000;stroke-width:0"
           inkscape:connector-curvature="0"
           id="path8564"
           d="m 777.32,412.25 -0.01,1.36 -0.05,1.43 -0.09,1.48 -0.14,1.52 -0.2,1.57 -0.25,1.61 -0.31,1.63 -0.39,1.66 -0.22,0.83 -0.24,0.84 -0.26,0.84 -0.28,0.84 -0.31,0.84 -0.33,0.85 -0.35,0.84 -0.38,0.84 -0.4,0.83 -0.42,0.83 -0.46,0.83 -0.48,0.83 -0.51,0.81 -0.53,0.81 -0.57,0.81 -0.6,0.79 c -0.5,0.59 -3.73,4.39 -4.62,4.39 -0.25,0 -0.61,-0.11 -0.61,-0.5 0,-0.2 0.11,-0.36 0.29,-0.5 2.4,-2.59 5.65,-6.62 7.68,-14.55 1.15,-4.53 1.61,-9.67 1.61,-14.29 0,-5.03 -0.46,-10.13 -1.75,-15 -1.89,-6.99 -4.83,-10.97 -7.38,-13.75 -0.45,-0.46 -0.45,-0.55 -0.45,-0.66 0,-0.39 0.36,-0.5 0.61,-0.5 0.73,0 3.48,3.05 4.08,3.75 5.07,6.02 8.32,14.98 8.32,26.09 z" /><path
           style="fill:#000000;stroke-width:0"
           inkscape:connector-curvature="0"
           id="path8566"
           d="m 793.59,444.37 -0.28,0.07 -0.27,0.08 -0.25,0.09 -0.25,0.09 -0.23,0.1 -0.22,0.11 -0.21,0.11 -0.2,0.12 -0.19,0.13 -0.18,0.13 -0.17,0.13 -0.16,0.14 -0.15,0.15 -0.13,0.14 -0.13,0.15 -0.12,0.15 -0.12,0.16 -0.1,0.15 -0.09,0.16 -0.09,0.16 -0.08,0.16 -0.07,0.16 -0.06,0.16 -0.05,0.16 -0.05,0.16 -0.04,0.15 -0.03,0.16 -0.03,0.15 -0.02,0.15 -0.01,0.15 -0.01,0.14 -0.01,0.14 c 0,2.3 2.13,4.48 5.3,4.48 4.7,0 6.72,-3.12 7.28,-6.79 0.06,-0.52 0.11,-0.69 0.63,-0.69 0.59,0 0.59,0.25 0.59,0.91 v 6.79 c 0,0.6 0,0.91 -0.48,0.91 -0.29,0 -0.36,-0.11 -0.6,-0.5 l -1.25,-1.94 c -2.31,2.33 -5.2,2.44 -6.17,2.44 -4.39,0 -7.53,-3.14 -7.53,-6.66 0,-1.95 0.87,-3.45 2.12,-4.64 1.4,-1.36 2.55,-1.59 6.32,-2.43 3.17,-0.71 3.86,-0.83 4.87,-1.82 0.8,-0.79 1.53,-1.92 1.53,-3.48 0,-2.44 -2.01,-4.91 -5.36,-4.91 -3.39,0 -8.04,1.31 -8.29,6.58 -0.03,0.56 -0.03,0.77 -0.6,0.77 -0.59,0 -0.59,-0.24 -0.59,-0.94 v -6.77 c 0,-0.59 0,-0.9 0.48,-0.9 0.28,0 0.36,0.11 0.57,0.42 0.31,0.42 1.01,1.53 1.29,1.98 2.19,-1.9 4.88,-2.4 7.14,-2.4 4.6,0 7.6,3.45 7.6,7.15 0,3.13 -2.21,6.1 -5.69,6.89 z" /><path
           style="fill:#000000;stroke-width:0"
           inkscape:connector-curvature="0"
           id="path8568"
           d="m 829.57,439.01 h -1.19 c -0.39,-3.42 -0.91,-7.92 -7.5,-7.92 h -3.48 c -1.63,0 -1.68,0.28 -1.68,1.36 v 18.33 c 0,1.15 0,1.61 3.28,1.61 h 1.22 v 1.25 c -0.73,-0.03 -5.19,-0.14 -6.09,-0.14 -1.33,0 -5.27,0.14 -5.3,0.14 v -1.25 h 0.83 c 2.69,0 2.77,-0.35 2.77,-1.58 v -18.14 c 0,-1.19 -0.08,-1.58 -2.77,-1.58 h -0.83 v -1.25 h 19.69 z" /><path
           style="fill:#000000;stroke-width:0"
           inkscape:connector-curvature="0"
           id="path8570"
           d="m 843.97,455.98 -0.61,-0.45 -0.58,-0.46 -0.55,-0.47 -0.52,-0.49 -0.5,-0.5 -0.47,-0.51 -0.45,-0.53 -0.42,-0.53 -0.4,-0.54 -0.38,-0.55 -0.35,-0.56 -0.33,-0.56 -0.31,-0.57 -0.29,-0.57 -0.27,-0.58 -0.24,-0.58 -0.23,-0.58 -0.21,-0.58 -0.19,-0.59 -0.17,-0.58 -0.16,-0.58 -0.14,-0.58 -0.12,-0.57 -0.11,-0.57 -0.09,-0.57 -0.08,-0.56 -0.07,-0.55 -0.05,-0.54 -0.04,-0.54 -0.02,-0.53 -0.02,-0.51 -0.01,-0.51 c 0,-4.92 1.47,-12.55 8.38,-17.42 0.28,0 0.69,0 0.69,0.4 0,0.22 -0.1,0.29 -0.35,0.54 -4.64,4.18 -6.34,10.1 -6.34,16.45 0,9.4 3.59,14 6.45,16.58 0.14,0.14 0.24,0.25 0.24,0.42 0,0.42 -0.41,0.42 -0.69,0.42 z" /><path
           style="fill:#000000;stroke-width:0"
           inkscape:connector-curvature="0"
           id="path8572"
           d="m 872.1,449.5 0.12,0.17 0.12,0.17 0.12,0.16 0.12,0.15 0.12,0.15 0.11,0.15 0.12,0.14 0.12,0.13 0.12,0.13 0.12,0.12 0.12,0.12 0.12,0.11 0.12,0.1 0.12,0.1 0.13,0.1 0.12,0.09 0.13,0.09 0.13,0.08 0.13,0.07 0.14,0.07 0.13,0.07 0.14,0.06 0.14,0.06 0.15,0.05 0.15,0.05 0.15,0.04 0.15,0.04 0.16,0.03 0.16,0.03 0.17,0.02 0.17,0.02 0.18,0.02 c 0.42,0.03 0.79,0.06 0.79,0.76 0,0.11 -0.06,0.49 -0.48,0.49 -0.85,0 -1.93,-0.14 -2.8,-0.14 -1.11,0 -2.58,0.14 -3.61,0.14 -0.33,0 -0.7,-0.11 -0.7,-0.77 0,-0.45 0.48,-0.48 0.62,-0.48 1.11,-0.08 1.43,-0.49 1.43,-1.02 0,-0.48 -0.24,-0.83 -0.63,-1.39 l -11.42,-16.86 -3.17,17.8 c -0.07,0.31 -0.07,0.39 -0.07,0.53 0,0.94 1.94,0.94 2.19,0.94 0.6,0 1.05,0 1.05,0.76 0,0.03 -0.03,0.49 -0.6,0.49 -1.01,0 -3.48,-0.14 -4.5,-0.14 -0.85,0 -2.98,0.14 -3.85,0.14 -0.32,0 -0.71,-0.11 -0.71,-0.77 0,-0.48 0.49,-0.48 0.88,-0.48 1.95,0 1.98,-0.22 2.15,-1.13 l 3.8,-21.17 c 0.14,-0.73 0.17,-0.95 0.84,-0.95 0.66,0 0.83,0.25 1.19,0.76 z" /><path
           style="fill:#000000;stroke-width:0"
           inkscape:connector-curvature="0"
           id="path8574"
           d="m 882.37,455.98 h -0.02 -0.03 -0.02 -0.03 -0.03 -0.02 -0.03 l -0.03,-0.01 h -0.03 -0.03 l -0.02,-0.01 h -0.03 l -0.03,-0.01 -0.03,-0.01 h -0.02 l -0.03,-0.01 -0.02,-0.01 -0.03,-0.01 -0.02,-0.02 -0.02,-0.01 -0.03,-0.02 -0.02,-0.02 -0.01,-0.02 -0.01,-0.01 -0.01,-0.01 -0.01,-0.01 -0.01,-0.01 v -0.01 l -0.01,-0.02 -0.01,-0.01 v -0.01 l -0.01,-0.02 v -0.01 l -0.01,-0.02 v -0.01 -0.02 l -0.01,-0.02 v -0.01 -0.02 -0.02 -0.02 c 0,-0.17 0.11,-0.28 0.31,-0.53 3,-2.75 6.34,-7.46 6.34,-16.44 0,-7.28 -2.26,-12.8 -6.03,-16.2 -0.57,-0.6 -0.62,-0.63 -0.62,-0.82 0,-0.17 0.11,-0.4 0.45,-0.4 0.42,0 3.74,2.29 6.03,6.65 1.54,2.89 2.55,6.66 2.55,10.74 0,4.9 -1.47,12.53 -8.36,17.42 z" /><path
           style="fill:#000000;stroke-width:0"
           inkscape:connector-curvature="0"
           id="path8576"
           d="m 942.55,433.57 0.02,0.04 0.02,0.03 0.01,0.03 0.02,0.03 0.02,0.02 0.01,0.03 0.02,0.03 0.01,0.03 0.01,0.02 0.02,0.03 0.01,0.02 0.01,0.02 0.01,0.03 0.02,0.02 0.01,0.02 0.01,0.02 0.02,0.04 0.01,0.04 0.02,0.03 0.02,0.04 0.01,0.03 0.01,0.03 0.01,0.02 0.01,0.03 0.01,0.02 0.01,0.02 v 0.03 l 0.01,0.01 0.01,0.02 v 0.02 0.02 0.01 l 0.01,0.02 v 0.01 0.03 0.03 0.02 c 0,0.36 -0.29,1 -0.98,1 -0.61,0 -0.75,-0.3 -1.11,-1 l -22.36,-43.48 c -0.41,-0.71 -0.41,-0.8 -0.41,-0.96 0,-0.39 0.36,-1 1,-1 0.6,0 0.75,0.3 1.1,1 z" /><path
           style="fill:#000000;stroke-width:0"
           inkscape:connector-curvature="0"
           id="path8578"
           d="m 945.4,416.14 h 0.13 0.15 0.14 l 0.08,0.01 h 0.07 l 0.07,0.01 0.07,0.01 0.07,0.01 0.07,0.01 0.07,0.01 0.07,0.02 0.06,0.02 0.06,0.02 0.06,0.02 0.06,0.03 0.06,0.03 0.05,0.04 0.05,0.04 0.05,0.04 0.04,0.04 0.04,0.05 0.02,0.03 0.02,0.03 0.01,0.02 0.02,0.03 0.01,0.04 0.02,0.03 0.01,0.03 0.01,0.04 0.01,0.03 0.01,0.04 0.01,0.04 v 0.04 l 0.01,0.04 v 0.04 0.05 0.04 c 0,1 -0.95,1 -1.64,1 H 915.6 c -0.7,0 -1.64,0 -1.64,-1 0,-0.98 0.94,-0.98 1.69,-0.98 z" /><path
           style="fill:#000000;stroke-width:0"
           inkscape:connector-curvature="0"
           id="path8580"
           d="m 945.44,406.46 0.07,0.01 h 0.06 0.14 0.14 l 0.07,0.01 h 0.07 l 0.07,0.01 0.07,0.01 0.06,0.01 0.07,0.01 0.07,0.01 0.06,0.02 0.07,0.02 0.06,0.02 0.06,0.02 0.06,0.03 0.05,0.03 0.05,0.04 0.05,0.04 0.05,0.04 0.04,0.05 0.02,0.02 0.02,0.03 0.02,0.02 0.02,0.03 0.01,0.03 0.02,0.03 0.01,0.03 0.02,0.04 0.01,0.03 0.01,0.03 0.01,0.04 0.01,0.04 0.01,0.04 v 0.04 l 0.01,0.04 v 0.04 0.05 0.04 c 0,1 -0.95,1 -1.68,1 h -29.75 c -0.75,0 -1.69,0 -1.69,-1 0,-1 0.94,-1 1.64,-1 z" /><path
           style="fill:#000000;stroke-width:0"
           inkscape:connector-curvature="0"
           id="path8582"
           d="m 986.64,415.78 v 0.74 l -0.01,0.75 -0.02,0.75 -0.04,0.74 -0.04,0.75 -0.06,0.74 -0.08,0.74 -0.09,0.73 -0.12,0.73 -0.14,0.73 -0.16,0.73 -0.19,0.71 -0.21,0.72 -0.25,0.7 -0.28,0.7 -0.15,0.35 -0.16,0.34 c -2.28,4.8 -6.37,5.6 -8.47,5.6 -2.98,0 -6.62,-1.3 -8.67,-5.94 -1.59,-3.44 -1.84,-7.33 -1.84,-11.31 0,-3.74 0.2,-8.22 2.25,-12 2.14,-4.03 5.78,-5.03 8.21,-5.03 v 1.09 c -1.93,0 -4.89,1.25 -5.78,6.03 -0.54,2.99 -0.54,7.56 -0.54,10.52 0,3.18 0,6.47 0.4,9.15 0.94,5.94 4.68,6.38 5.92,6.38 1.65,0 4.94,-0.89 5.88,-5.83 0.5,-2.78 0.5,-6.58 0.5,-9.7 0,-3.75 0,-7.13 -0.55,-10.32 -0.75,-4.73 -3.59,-6.23 -5.83,-6.23 v 0 -1.09 c 2.69,0 6.47,1.04 8.68,5.78 1.59,3.43 1.84,7.31 1.84,11.25 z" /></g>    </g>
    <g
       inkscape:transform-center-x="-12.851191"
       transform="rotate(90,0.73582114,217.92893)"
       id="g9056">
      <g
         style="font-style:normal;font-variant:normal;font-weight:normal;font-stretch:normal;letter-spacing:normal;word-spacing:normal;text-anchor:start;fill:none;fill-opacity:1;fill-rule:evenodd;stroke:#000000;stroke-linecap:butt;stroke-linejoin:miter;stroke-miterlimit:10.43299961;stroke-dasharray:none;stroke-dashoffset:0;stroke-opacity:1"
         id="g9054"
         transform="matrix(0.11339286,0,0,-0.11339286,-19.84375,138.90625)"
         xml:space="preserve"
         stroke-miterlimit="10.433"
         font-style="normal"
         font-variant="normal"
         font-weight="normal"
         font-stretch="normal"
         font-size-adjust="none"
         letter-spacing="normal"
         word-spacing="normal"><path
           style="fill:#000000;stroke-width:0"
           inkscape:connector-curvature="0"
           d="m 500.8,412.82 h 0.16 l 0.16,0.01 h 0.16 0.08 l 0.08,0.01 0.07,0.01 h 0.08 l 0.07,0.01 0.07,0.02 0.07,0.01 0.07,0.02 0.06,0.02 0.07,0.02 0.06,0.02 0.06,0.03 0.05,0.03 0.05,0.04 0.05,0.04 0.05,0.04 0.04,0.05 0.04,0.05 0.02,0.02 0.01,0.03 0.02,0.03 0.01,0.03 0.02,0.03 0.01,0.03 0.01,0.04 0.01,0.03 0.01,0.04 0.01,0.04 0.01,0.04 v 0.04 l 0.01,0.04 v 0.04 0.05 0.04 c 0,1 -0.89,1 -1.8,1 h -31.64 c -2.07,1.79 -4.62,3.08 -6.26,3.83 1.79,0.8 4.23,2.1 6.26,3.85 h 31.64 c 0.91,0 1.8,0 1.8,0.98 0,1 -0.89,1 -1.75,1 h -29.44 c 2.39,2.3 4.99,6.67 4.99,7.33 0,0.55 -0.66,0.55 -0.96,0.55 -0.39,0 -0.75,0 -0.93,-0.41 -1.05,-1.89 -2.46,-4.53 -5.69,-7.42 -3.44,-3.03 -6.77,-4.38 -9.36,-5.13 -0.84,-0.29 -0.91,-0.34 -1,-0.45 -0.09,-0.05 -0.09,-0.19 -0.09,-0.3 0,-0.09 0,-0.2 0.04,-0.29 l 0.14,-0.1 c 0.11,-0.06 0.16,-0.11 1.1,-0.4 6.73,-1.99 11.72,-6.54 14.5,-11.86 0.54,-1 0.61,-1.05 1.29,-1.05 0.3,0 0.96,0 0.96,0.55 0,0.65 -2.55,4.98 -4.99,7.32 z"
           id="path9050" /><path
           style="fill:#000000;stroke-width:0"
           inkscape:connector-curvature="0"
           d="m 533.21,422.5 0.39,-0.34 0.41,-0.31 0.41,-0.31 0.42,-0.3 0.42,-0.28 0.42,-0.27 0.42,-0.26 0.41,-0.25 0.41,-0.23 0.41,-0.23 0.39,-0.21 0.38,-0.19 0.37,-0.19 0.36,-0.17 0.17,-0.08 0.17,-0.08 0.16,-0.08 0.16,-0.07 c -1.8,-0.79 -4.24,-2.09 -6.28,-3.83 h -31.64 c -0.85,0 -1.8,0 -1.8,-1 0,-1 0.91,-1 1.75,-1 h 29.44 c -2.39,-2.29 -4.97,-6.67 -4.97,-7.32 0,-0.55 0.64,-0.55 0.94,-0.55 0.4,0 0.75,0 0.95,0.41 1.05,1.89 2.44,4.53 5.67,7.42 3.44,3.03 6.78,4.37 9.38,5.12 0.84,0.3 0.89,0.36 0.98,0.46 0.11,0.04 0.11,0.2 0.11,0.29 0,0.11 0,0.21 -0.05,0.3 l -0.15,0.11 c -0.1,0.05 -0.16,0.09 -1.1,0.39 -6.73,2 -11.7,6.53 -14.5,11.86 -0.54,1 -0.59,1.05 -1.29,1.05 -0.3,0 -0.94,0 -0.94,-0.55 0,-0.66 2.53,-4.99 4.97,-7.33 h -29.44 c -0.84,0 -1.75,0 -1.75,-1 0,-0.98 0.95,-0.98 1.8,-0.98 z"
           id="path9052" /></g>    </g>
    <g
       id="g9232"
       transform="matrix(1.3009983,0,0,1.5500636,40.374652,131.16625)">
      <g
         word-spacing="normal"
         letter-spacing="normal"
         font-size-adjust="none"
         font-stretch="normal"
         font-weight="normal"
         font-variant="normal"
         font-style="normal"
         stroke-miterlimit="10.433"
         xml:space="preserve"
         transform="matrix(0.11339286,0,0,-0.11339286,-19.84375,138.90625)"
         id="g9230"
         style="font-style:normal;font-variant:normal;font-weight:normal;font-stretch:normal;letter-spacing:normal;word-spacing:normal;text-anchor:start;fill:none;fill-opacity:1;fill-rule:evenodd;stroke:#000000;stroke-linecap:butt;stroke-linejoin:miter;stroke-miterlimit:10.43299961;stroke-dasharray:none;stroke-dashoffset:0;stroke-opacity:1"><path
           id="path9188"
           d="m 486.07,436.34 v 0.16 0.16 0.15 l 0.01,0.15 0.01,0.13 0.01,0.13 0.02,0.13 0.02,0.11 0.03,0.12 0.03,0.1 0.05,0.1 0.05,0.09 0.06,0.09 0.06,0.08 0.08,0.08 0.09,0.07 0.1,0.06 0.11,0.06 0.06,0.03 0.07,0.03 0.06,0.02 0.07,0.03 0.08,0.02 0.08,0.02 0.08,0.02 0.08,0.02 0.09,0.02 0.09,0.02 0.1,0.02 0.1,0.01 0.1,0.01 0.11,0.02 0.12,0.01 0.11,0.01 0.13,0.01 0.12,0.01 0.13,0.01 0.14,0.01 h 0.14 l 0.15,0.01 h 0.15 l 0.15,0.01 h 0.16 0.17 0.17 0.18 1.2 v 1.55 c -1.75,-0.16 -5.44,-0.16 -7.33,-0.16 -1.89,0 -5.62,0 -7.37,0.16 v -1.55 h 1.2 c 3.83,0 3.94,-0.54 3.94,-2.34 v -11.66 h -14.91 v 11.66 c 0,1.8 0.11,2.34 3.94,2.34 h 1.2 v 1.55 c -1.75,-0.16 -5.43,-0.16 -7.32,-0.16 -1.9,0 -5.63,0 -7.38,0.16 v -1.55 h 1.2 c 3.83,0 3.94,-0.54 3.94,-2.34 v -26.25 c 0,-1.8 -0.11,-2.34 -3.94,-2.34 h -1.2 v -1.55 c 1.75,0.16 5.44,0.16 7.33,0.16 1.89,0 5.62,0 7.37,-0.16 v 1.55 h -1.2 c -3.83,0 -3.94,0.54 -3.94,2.34 v 13.05 h 14.91 v -13.05 c 0,-1.8 -0.11,-2.34 -3.94,-2.34 h -1.2 v -1.55 c 1.75,0.16 5.44,0.16 7.33,0.16 1.89,0 5.62,0 7.37,-0.16 v 1.55 h -1.2 c -3.83,0 -3.92,0.54 -3.92,2.34 z"
           inkscape:connector-curvature="0"
           style="fill:#000000;stroke-width:0" /><path
           id="path9190"
           d="m 516.3,416.86 -0.01,0.59 -0.04,0.59 -0.07,0.58 -0.1,0.57 -0.13,0.56 -0.14,0.55 -0.18,0.54 -0.2,0.53 -0.22,0.51 -0.25,0.5 -0.26,0.49 -0.29,0.47 -0.31,0.46 -0.33,0.44 -0.35,0.43 -0.36,0.4 -0.39,0.39 -0.4,0.37 -0.41,0.35 -0.44,0.32 -0.44,0.31 -0.46,0.28 -0.48,0.26 -0.49,0.24 -0.49,0.21 -0.51,0.18 -0.53,0.16 -0.53,0.13 -0.54,0.11 -0.54,0.07 -0.56,0.05 -0.56,0.01 -0.05,-1.09 c 2.19,0 4.33,-1.1 5.63,-3.24 1.29,-2.14 1.29,-5.03 1.29,-6.92 0,-1.8 0,-4.48 -1.09,-6.67 -1.09,-2.25 -3.28,-3.69 -5.78,-3.69 v 0 c -2.14,0 -4.33,1.05 -5.67,3.33 -1.25,2.2 -1.25,5.23 -1.25,7.03 0,1.94 0,4.63 1.18,6.83 1.36,2.28 3.69,3.33 5.69,3.33 l 0.05,1.09 c -6.22,0 -11.06,-5.42 -11.06,-11.65 0,-6.43 5.18,-11.21 11.01,-11.21 6.03,0 11.06,4.88 11.06,11.21 z"
           inkscape:connector-curvature="0"
           style="fill:#000000;stroke-width:0" /><path
           id="path9192"
           d="m 523.28,423.34 v -13.36 c 0,-2.23 -0.55,-2.23 -3.89,-2.23 v -1.55 c 1.75,0.05 4.28,0.16 5.62,0.16 1.3,0 3.89,-0.11 5.58,-0.16 v 1.55 c -3.33,0 -3.87,0 -3.87,2.23 v 9.17 c 0,5.19 3.53,7.97 6.71,7.97 3.14,0 3.69,-2.69 3.69,-5.53 v -11.61 c 0,-2.23 -0.55,-2.23 -3.89,-2.23 v -1.55 c 1.75,0.05 4.3,0.16 5.64,0.16 1.3,0 3.88,-0.11 5.58,-0.16 v 1.55 c -3.35,0 -3.89,0 -3.89,2.23 v 9.17 c 0,5.19 3.54,7.97 6.73,7.97 3.14,0 3.69,-2.69 3.69,-5.53 v -11.61 c 0,-2.23 -0.55,-2.23 -3.89,-2.23 v -1.55 c 1.73,0.05 4.28,0.16 5.63,0.16 1.29,0 3.88,-0.11 5.57,-0.16 v 1.55 c -2.57,0 -3.82,0 -3.87,1.5 v 9.51 c 0,4.28 0,5.83 -1.55,7.61 -0.7,0.86 -2.34,1.84 -5.23,1.84 -4.19,0 -6.38,-2.98 -7.22,-4.87 -0.7,4.33 -4.39,4.87 -6.63,4.87 -3.64,0 -5.98,-2.14 -7.37,-5.21 v 5.21 l -7.03,-0.54 v -1.55 c 3.48,0 3.89,-0.34 3.89,-2.78 z"
           inkscape:connector-curvature="0"
           style="fill:#000000;stroke-width:0" /><path
           id="path9194"
           d="m 567.99,411.73 -0.28,0.07 -0.27,0.08 -0.25,0.09 -0.25,0.09 -0.23,0.1 -0.22,0.11 -0.21,0.11 -0.2,0.12 -0.19,0.13 -0.18,0.13 -0.17,0.13 -0.16,0.14 -0.15,0.14 -0.14,0.15 -0.13,0.15 -0.12,0.15 -0.11,0.16 -0.1,0.15 -0.09,0.16 -0.09,0.16 -0.08,0.16 -0.07,0.16 -0.06,0.16 -0.05,0.16 -0.05,0.16 -0.04,0.15 -0.03,0.16 -0.03,0.15 -0.02,0.15 -0.02,0.15 -0.01,0.14 v 0.14 c 0,2.3 2.13,4.48 5.3,4.48 4.7,0 6.72,-3.12 7.28,-6.79 0.06,-0.52 0.11,-0.69 0.63,-0.69 0.59,0 0.59,0.25 0.59,0.91 v 6.79 c 0,0.6 0,0.91 -0.49,0.91 -0.28,0 -0.35,-0.11 -0.59,-0.5 l -1.25,-1.94 c -2.31,2.33 -5.2,2.44 -6.17,2.44 -4.39,0 -7.53,-3.14 -7.53,-6.66 0,-1.95 0.87,-3.45 2.12,-4.64 1.39,-1.36 2.55,-1.59 6.32,-2.44 3.17,-0.7 3.85,-0.82 4.87,-1.81 0.8,-0.79 1.53,-1.92 1.53,-3.48 0,-2.44 -2.01,-4.91 -5.36,-4.91 -3.39,0 -8.04,1.31 -8.29,6.58 -0.04,0.56 -0.04,0.77 -0.6,0.77 -0.59,0 -0.59,-0.24 -0.59,-0.94 v -6.77 c 0,-0.59 0,-0.9 0.48,-0.9 0.28,0 0.36,0.11 0.56,0.42 0.32,0.42 1.02,1.53 1.3,1.98 2.19,-1.9 4.88,-2.4 7.14,-2.4 4.6,0 7.6,3.45 7.6,7.15 0,3.13 -2.21,6.1 -5.69,6.89 z"
           inkscape:connector-curvature="0"
           style="fill:#000000;stroke-width:0" /><path
           id="path9196"
           d="m 603.97,406.37 h -1.19 c -0.39,-3.42 -0.91,-7.92 -7.5,-7.92 h -3.49 c -1.62,0 -1.67,0.28 -1.67,1.36 v 18.33 c 0,1.15 0,1.61 3.28,1.61 h 1.22 V 421 c -0.73,-0.04 -5.19,-0.14 -6.09,-0.14 -1.33,0 -5.27,0.14 -5.3,0.14 v -1.25 h 0.83 c 2.69,0 2.76,-0.35 2.76,-1.58 v -18.14 c 0,-1.19 -0.07,-1.58 -2.76,-1.58 h -0.83 v -1.25 h 19.69 z"
           inkscape:connector-curvature="0"
           style="fill:#000000;stroke-width:0" /><path
           id="path9198"
           d="m 618.37,423.34 -0.61,-0.45 -0.57,-0.46 -0.56,-0.47 -0.52,-0.49 -0.5,-0.5 -0.47,-0.51 -0.45,-0.53 -0.42,-0.53 -0.4,-0.54 -0.38,-0.55 -0.35,-0.56 -0.33,-0.56 -0.31,-0.57 -0.29,-0.57 -0.26,-0.58 -0.25,-0.58 -0.23,-0.58 -0.21,-0.58 -0.19,-0.59 -0.17,-0.58 -0.16,-0.58 -0.14,-0.58 -0.12,-0.57 -0.11,-0.57 -0.09,-0.57 -0.08,-0.56 -0.06,-0.55 -0.06,-0.55 -0.04,-0.53 -0.02,-0.53 -0.02,-0.52 v -0.5 c 0,-4.92 1.47,-12.55 8.37,-17.42 0.28,0 0.69,0 0.69,0.4 0,0.22 -0.09,0.28 -0.34,0.53 -4.65,4.19 -6.35,10.11 -6.35,16.46 0,9.4 3.6,14 6.45,16.58 0.15,0.14 0.24,0.25 0.24,0.42 0,0.42 -0.41,0.42 -0.69,0.42 z"
           inkscape:connector-curvature="0"
           style="fill:#000000;stroke-width:0" /><path
           id="path9200"
           d="m 646.5,416.86 0.12,0.17 0.12,0.16 0.12,0.17 0.12,0.15 0.12,0.15 0.12,0.15 0.11,0.13 0.12,0.14 0.12,0.13 0.12,0.12 0.12,0.11 0.12,0.12 0.12,0.1 0.13,0.1 0.12,0.1 0.13,0.09 0.12,0.09 0.13,0.08 0.13,0.07 0.14,0.07 0.13,0.07 0.14,0.06 0.15,0.06 0.14,0.05 0.15,0.05 0.15,0.04 0.15,0.04 0.16,0.03 0.16,0.03 0.17,0.02 0.17,0.02 0.18,0.02 c 0.42,0.03 0.79,0.06 0.79,0.76 0,0.11 -0.06,0.49 -0.48,0.49 -0.84,0 -1.92,-0.14 -2.8,-0.14 -1.11,0 -2.58,0.14 -3.61,0.14 -0.32,0 -0.7,-0.11 -0.7,-0.77 0,-0.45 0.48,-0.48 0.62,-0.48 1.11,-0.08 1.43,-0.49 1.43,-1.02 0,-0.48 -0.24,-0.83 -0.63,-1.39 L 634,400.48 l -3.17,17.8 c -0.06,0.31 -0.06,0.39 -0.06,0.53 0,0.94 1.93,0.94 2.18,0.94 0.6,0 1.05,0 1.05,0.76 0,0.03 -0.03,0.49 -0.59,0.49 -1.02,0 -3.49,-0.14 -4.5,-0.14 -0.86,0 -2.99,0.14 -3.86,0.14 -0.32,0 -0.71,-0.11 -0.71,-0.77 0,-0.48 0.49,-0.48 0.88,-0.48 1.95,0 1.98,-0.22 2.16,-1.13 l 3.79,-21.17 c 0.14,-0.74 0.17,-0.95 0.85,-0.95 0.65,0 0.82,0.25 1.18,0.76 z"
           inkscape:connector-curvature="0"
           style="fill:#000000;stroke-width:0" /><path
           id="path9202"
           d="m 656.77,423.34 h -0.02 -0.03 -0.02 -0.03 -0.02 -0.03 -0.03 l -0.03,-0.01 h -0.03 -0.02 l -0.03,-0.01 h -0.03 l -0.03,-0.01 -0.02,-0.01 h -0.03 l -0.03,-0.01 -0.02,-0.01 -0.03,-0.02 -0.02,-0.01 -0.02,-0.01 -0.02,-0.02 -0.02,-0.02 -0.02,-0.02 -0.01,-0.01 -0.01,-0.01 -0.01,-0.01 v -0.01 l -0.01,-0.01 -0.01,-0.02 v -0.01 l -0.01,-0.01 v -0.02 l -0.01,-0.01 v -0.02 l -0.01,-0.01 v -0.02 -0.02 l -0.01,-0.02 v -0.01 -0.02 -0.02 c 0,-0.17 0.11,-0.28 0.31,-0.53 3,-2.75 6.35,-7.46 6.35,-16.44 0,-7.28 -2.27,-12.8 -6.03,-16.2 -0.58,-0.6 -0.63,-0.63 -0.63,-0.82 0,-0.17 0.11,-0.4 0.45,-0.4 0.43,0 3.74,2.29 6.04,6.65 1.53,2.89 2.54,6.66 2.54,10.74 0,4.9 -1.47,12.53 -8.36,17.42 z"
           inkscape:connector-curvature="0"
           style="fill:#000000;stroke-width:0" /><path
           id="path9204"
           d="m 700.62,389.27 v 0.02 0.02 l -0.01,0.01 v 0.02 0.02 0.01 l -0.01,0.02 v 0.01 0.02 l -0.01,0.01 v 0.02 l -0.01,0.01 v 0.01 l -0.01,0.02 -0.01,0.01 v 0.01 l -0.02,0.03 -0.01,0.02 -0.02,0.03 -0.02,0.02 -0.02,0.03 -0.02,0.03 -0.02,0.02 -0.01,0.02 -0.01,0.01 c -2.29,2.44 -5.67,6.49 -7.76,14.6 -1.16,4.53 -1.6,9.67 -1.6,14.29 0,13.11 3.15,22.28 9.11,28.75 0.46,0.46 0.46,0.55 0.46,0.66 0,0.5 -0.41,0.5 -0.6,0.5 -0.75,0 -3.43,-3 -4.09,-3.75 -5.08,-6.02 -8.31,-14.98 -8.31,-26.09 0,-7.08 1.23,-17.1 7.76,-25.52 0.5,-0.59 3.74,-4.39 4.64,-4.39 0.19,0 0.6,0 0.6,0.5 z"
           inkscape:connector-curvature="0"
           style="fill:#000000;stroke-width:0" /><path
           id="path9206"
           d="m 734.98,440.82 v 0.02 0.02 0.01 l -0.01,0.02 v 0.02 0.02 l -0.01,0.02 v 0.02 l -0.01,0.02 -0.01,0.02 -0.01,0.02 -0.01,0.02 -0.01,0.02 -0.01,0.02 -0.01,0.02 -0.02,0.02 -0.02,0.02 -0.01,0.02 -0.02,0.02 -0.02,0.02 -0.02,0.01 -0.03,0.02 -0.02,0.01 -0.03,0.02 -0.02,0.01 -0.03,0.01 -0.02,0.01 h -0.01 l -0.02,0.01 h -0.02 -0.01 l -0.02,0.01 h -0.02 -0.02 -0.02 -0.02 -0.02 -0.02 c -0.25,0 -0.31,-0.04 -0.9,-0.75 l -2.39,-2.84 c -1.3,2.34 -3.89,3.59 -7.13,3.59 -6.33,0 -12.29,-5.73 -12.29,-11.76 0,-4.03 2.63,-6.33 5.17,-7.06 l 5.33,-1.41 c 1.84,-0.44 4.59,-1.19 4.59,-5.28 0,-4.49 -4.09,-9.16 -8.97,-9.16 -3.19,0 -8.72,1.1 -8.72,7.27 0,1.2 0.25,2.39 0.3,2.69 0.05,0.2 0.09,0.25 0.09,0.35 0,0.5 -0.34,0.55 -0.59,0.55 -0.25,0 -0.35,-0.05 -0.5,-0.2 -0.2,-0.2 -2.99,-11.56 -2.99,-11.7 0,-0.3 0.25,-0.5 0.55,-0.5 0.25,0 0.3,0.04 0.89,0.75 l 2.45,2.82 c 2.15,-2.89 5.52,-3.57 8.41,-3.57 6.78,0 12.66,6.62 12.66,12.79 0,3.44 -1.69,5.14 -2.44,5.83 -1.14,1.16 -1.89,1.34 -6.33,2.5 -1.09,0.3 -2.89,0.8 -3.34,0.89 -1.35,0.45 -3.03,1.89 -3.03,4.53 0,4.05 3.98,8.28 8.72,8.28 4.13,0 7.17,-2.14 7.17,-7.73 0,-1.59 -0.21,-2.49 -0.21,-2.78 0,-0.05 0,-0.5 0.61,-0.5 0.5,0 0.55,0.15 0.74,1 z"
           inkscape:connector-curvature="0"
           style="fill:#000000;stroke-width:0" /><path
           id="path9208"
           d="m 750.4,434.17 0.33,-0.76 0.33,-0.77 0.33,-0.78 0.33,-0.78 0.32,-0.78 0.32,-0.76 0.16,-0.37 0.15,-0.36 0.15,-0.36 0.14,-0.34 0.14,-0.34 0.14,-0.32 0.13,-0.31 0.13,-0.3 0.12,-0.29 0.12,-0.27 0.11,-0.25 0.1,-0.23 0.1,-0.22 0.09,-0.19 0.08,-0.18 0.07,-0.15 0.07,-0.13 0.06,-0.11 0.05,-0.08 0.04,-0.06 c 0.65,-0.82 1.29,-0.82 1.84,-0.82 h 0.7 c 0.66,0 1.02,0 1.02,0.4 0,0.19 -0.11,0.28 -0.19,0.36 -0.4,0.38 -0.76,1.19 -0.9,1.5 l -8.5,20.06 c -0.24,0.63 -0.94,2.21 -4.63,2.21 -0.42,0 -0.9,0 -0.9,-0.5 0,-0.41 0.34,-0.46 0.51,-0.49 0.74,-0.09 1.39,-0.2 2.27,-2.19 l 4.14,-9.76 -10.27,-9.27 c -0.42,-0.34 -0.7,-0.62 -0.7,-1.22 0,-0.82 0.7,-1.18 1.19,-1.18 0.65,0 1.07,0.45 1.18,0.56 z"
           inkscape:connector-curvature="0"
           style="fill:#000000;stroke-width:0" /><path
           id="path9210"
           d="m 793.64,434.54 0.23,0.36 0.23,0.33 0.22,0.31 0.22,0.29 0.22,0.28 0.22,0.25 0.22,0.24 0.22,0.22 0.21,0.2 0.21,0.19 0.21,0.17 0.2,0.16 0.21,0.14 0.2,0.13 0.21,0.12 0.19,0.11 0.2,0.09 0.2,0.09 0.19,0.07 0.2,0.07 0.19,0.06 0.19,0.05 0.18,0.04 0.19,0.03 0.18,0.03 0.19,0.03 0.36,0.04 0.35,0.02 0.35,0.02 c 0.59,0.05 0.64,0.89 0.64,0.96 0,0.39 -0.25,0.59 -0.64,0.59 -1.3,0 -2.75,-0.16 -4.09,-0.16 -1.64,0 -3.35,0.16 -4.94,0.16 -0.3,0 -0.94,0 -0.94,-0.95 0,-0.55 0.46,-0.6 0.8,-0.6 1.34,-0.09 2.3,-0.59 2.3,-1.64 0,-0.75 -0.75,-1.84 -0.75,-1.89 l -15.3,-24.31 -3.39,26.34 c 0,0.85 1.14,1.5 3.44,1.5 0.7,0 1.25,0 1.25,1 0,0.44 -0.41,0.55 -0.71,0.55 -1.98,0 -4.14,-0.16 -6.17,-0.16 -0.91,0 -1.84,0.05 -2.75,0.05 -0.89,0 -1.84,0.11 -2.69,0.11 -0.34,0 -0.93,0 -0.93,-0.95 0,-0.6 0.43,-0.6 1.23,-0.6 2.8,0 2.84,-0.45 3,-1.68 l 3.92,-30.75 c 0.16,-1 0.36,-1.14 1,-1.14 0.8,0 1,0.25 1.41,0.89 z"
           inkscape:connector-curvature="0"
           style="fill:#000000;stroke-width:0" /><path
           id="path9212"
           d="m 804.27,406.25 v 0.3 l -0.01,0.3 -0.02,0.29 -0.03,0.28 -0.03,0.27 -0.04,0.26 -0.04,0.26 -0.05,0.24 -0.06,0.24 -0.07,0.23 -0.07,0.22 -0.07,0.21 -0.09,0.2 -0.09,0.19 -0.09,0.19 -0.1,0.17 -0.11,0.16 -0.11,0.16 -0.12,0.14 -0.12,0.13 -0.13,0.13 -0.13,0.11 -0.14,0.1 -0.15,0.1 -0.14,0.08 -0.16,0.07 -0.16,0.06 -0.16,0.05 -0.17,0.04 -0.17,0.03 -0.18,0.01 -0.18,0.01 c -1.64,0 -2.64,-1.25 -2.64,-2.64 0,-1.34 1,-2.64 2.64,-2.64 0.6,0 1.25,0.2 1.75,0.64 0.14,0.11 0.2,0.16 0.25,0.16 0.05,0 0.1,-0.05 0.1,-0.75 0,-3.69 -1.74,-6.68 -3.4,-8.32 -0.54,-0.54 -0.54,-0.65 -0.54,-0.79 0,-0.36 0.25,-0.55 0.5,-0.55 0.54,0 4.53,3.83 4.53,9.66 z"
           inkscape:connector-curvature="0"
           style="fill:#000000;stroke-width:0" /><path
           id="path9214"
           d="m 848.38,440.82 -0.01,0.02 v 0.02 0.01 0.02 0.02 l -0.01,0.02 v 0.02 l -0.01,0.02 -0.01,0.02 v 0.02 l -0.01,0.02 -0.01,0.02 -0.01,0.02 -0.02,0.02 -0.01,0.02 -0.01,0.02 -0.02,0.02 -0.02,0.02 -0.02,0.02 -0.02,0.02 -0.02,0.01 -0.02,0.02 -0.03,0.01 -0.02,0.02 -0.03,0.01 -0.03,0.01 -0.01,0.01 h -0.02 l -0.02,0.01 h -0.01 -0.02 l -0.02,0.01 h -0.02 -0.01 -0.02 -0.02 -0.02 -0.02 c -0.25,0 -0.31,-0.04 -0.91,-0.75 l -2.39,-2.84 c -1.3,2.34 -3.89,3.59 -7.12,3.59 -6.33,0 -12.3,-5.73 -12.3,-11.76 0,-4.03 2.64,-6.33 5.17,-7.06 l 5.33,-1.41 c 1.84,-0.44 4.59,-1.19 4.59,-5.28 0,-4.49 -4.09,-9.16 -8.97,-9.16 -3.18,0 -8.71,1.1 -8.71,7.27 0,1.2 0.25,2.39 0.29,2.69 0.05,0.2 0.1,0.25 0.1,0.35 0,0.5 -0.35,0.55 -0.6,0.55 -0.25,0 -0.34,-0.05 -0.5,-0.2 -0.2,-0.2 -2.98,-11.56 -2.98,-11.7 0,-0.3 0.25,-0.5 0.55,-0.5 0.24,0 0.29,0.04 0.89,0.75 l 2.45,2.82 c 2.14,-2.89 5.51,-3.57 8.4,-3.57 6.79,0 12.66,6.62 12.66,12.79 0,3.44 -1.69,5.14 -2.44,5.83 -1.14,1.16 -1.89,1.34 -6.32,2.5 -1.1,0.3 -2.9,0.8 -3.35,0.89 -1.34,0.45 -3.03,1.89 -3.03,4.53 0,4.05 3.98,8.28 8.72,8.28 4.14,0 7.17,-2.14 7.17,-7.73 0,-1.59 -0.2,-2.49 -0.2,-2.78 0,-0.05 0,-0.5 0.61,-0.5 0.5,0 0.54,0.15 0.73,1 z"
           inkscape:connector-curvature="0"
           style="fill:#000000;stroke-width:0" /><path
           id="path9216"
           d="m 851.59,418.59 -0.01,-0.05 -0.01,-0.04 -0.01,-0.05 -0.01,-0.04 -0.01,-0.04 v -0.04 l -0.01,-0.03 -0.01,-0.04 v -0.03 l -0.01,-0.03 -0.01,-0.03 v -0.03 -0.03 l -0.01,-0.02 v -0.03 l -0.01,-0.02 v -0.02 -0.02 -0.02 -0.01 l -0.01,-0.02 v -0.01 -0.02 -0.01 -0.01 -0.01 -0.01 -0.01 0 -0.01 0 0 c 0,-0.77 0.62,-1.11 1.17,-1.11 1.27,0 1.53,1.14 1.67,1.73 0.08,0.17 0.77,2.97 1.61,6.38 1.08,-0.72 2.47,-1 3.74,-1 2.98,0 4.93,2.43 5.01,2.5 0.66,-2.41 3.06,-2.5 3.58,-2.5 1.27,0 2.13,0.76 2.77,1.84 0.76,1.36 1.21,3.34 1.21,3.48 0,0.46 -0.45,0.46 -0.56,0.46 -0.48,0 -0.53,-0.14 -0.76,-1.08 -0.43,-1.67 -1.08,-3.74 -2.55,-3.74 -0.91,0 -1.16,0.77 -1.16,1.71 0,0.59 0.28,1.86 0.53,2.76 0.25,0.94 0.6,2.36 0.77,3.13 l 0.8,3.11 c 0.22,0.87 0.59,2.4 0.59,2.58 0,0.68 -0.55,1.1 -1.14,1.1 -0.39,0 -1.05,-0.17 -1.44,-0.82 -0.11,-0.22 -0.37,-1.33 -0.56,-2.03 l -0.72,-2.9 -1.08,-4.35 c -0.25,-0.86 -0.25,-0.94 -0.56,-1.4 -1.08,-1.53 -2.61,-2.89 -4.61,-2.89 -2.84,0 -2.84,2.47 -2.84,3.11 0,0.91 0.09,1.36 0.59,3.24 0.35,1.53 0.41,1.78 0.77,3.14 l 0.48,1.95 c 0.17,0.72 0.52,2.05 0.52,2.19 0,0.62 -0.49,1.11 -1.19,1.11 -1.25,0 -1.56,-1.22 -1.67,-1.63 z"
           inkscape:connector-curvature="0"
           style="fill:#000000;stroke-width:0" /><path
           id="path9218"
           d="m 907.76,434.54 0.23,0.36 0.23,0.33 0.22,0.31 0.23,0.29 0.22,0.28 0.21,0.25 0.22,0.24 0.22,0.22 0.21,0.2 0.21,0.19 0.21,0.17 0.21,0.16 0.2,0.14 0.2,0.13 0.21,0.12 0.2,0.11 0.19,0.09 0.2,0.09 0.19,0.07 0.2,0.07 0.19,0.06 0.19,0.05 0.19,0.04 0.18,0.03 0.19,0.03 0.18,0.03 0.36,0.04 0.35,0.02 0.35,0.02 c 0.6,0.05 0.64,0.89 0.64,0.96 0,0.39 -0.25,0.59 -0.64,0.59 -1.3,0 -2.75,-0.16 -4.09,-0.16 -1.64,0 -3.34,0.16 -4.94,0.16 -0.3,0 -0.94,0 -0.94,-0.95 0,-0.55 0.46,-0.6 0.8,-0.6 1.34,-0.09 2.3,-0.59 2.3,-1.64 0,-0.75 -0.75,-1.84 -0.75,-1.89 l -15.3,-24.31 -3.39,26.34 c 0,0.85 1.14,1.5 3.44,1.5 0.7,0 1.25,0 1.25,1 0,0.44 -0.41,0.55 -0.71,0.55 -1.98,0 -4.14,-0.16 -6.17,-0.16 -0.9,0 -1.84,0.05 -2.75,0.05 -0.89,0 -1.84,0.11 -2.68,0.11 -0.35,0 -0.94,0 -0.94,-0.95 0,-0.6 0.44,-0.6 1.23,-0.6 2.8,0 2.84,-0.45 3,-1.68 l 3.92,-30.75 c 0.16,-1 0.36,-1.14 1,-1.14 0.8,0 1,0.25 1.41,0.89 z"
           inkscape:connector-curvature="0"
           style="fill:#000000;stroke-width:0" /><path
           id="path9220"
           d="m 931.76,418.61 -0.01,1.36 -0.05,1.43 -0.1,1.47 -0.14,1.53 -0.19,1.57 -0.25,1.61 -0.31,1.63 -0.39,1.66 -0.22,0.83 -0.24,0.84 -0.26,0.84 -0.29,0.84 -0.3,0.84 -0.33,0.84 -0.35,0.85 -0.38,0.83 -0.4,0.84 -0.43,0.83 -0.45,0.83 -0.48,0.82 -0.51,0.82 -0.54,0.81 -0.56,0.8 -0.6,0.8 c -0.5,0.59 -3.73,4.39 -4.63,4.39 -0.25,0 -0.6,-0.11 -0.6,-0.5 0,-0.2 0.1,-0.36 0.29,-0.5 2.39,-2.59 5.64,-6.63 7.68,-14.55 1.15,-4.53 1.6,-9.67 1.6,-14.29 0,-5.04 -0.45,-10.13 -1.75,-15 -1.89,-6.99 -4.82,-10.97 -7.37,-13.75 -0.45,-0.46 -0.45,-0.55 -0.45,-0.66 0,-0.39 0.35,-0.5 0.6,-0.5 0.74,0 3.49,3.05 4.08,3.75 5.08,6.02 8.33,14.98 8.33,26.09 z"
           inkscape:connector-curvature="0"
           style="fill:#000000;stroke-width:0" /><path
           id="path9222"
           d="m 984.67,439.93 0.02,0.04 0.02,0.03 0.01,0.03 0.02,0.03 0.02,0.02 0.01,0.03 0.02,0.03 0.01,0.03 0.01,0.02 0.02,0.03 0.01,0.02 0.01,0.02 0.02,0.03 0.01,0.02 0.01,0.02 0.01,0.02 0.02,0.04 0.02,0.04 0.01,0.03 0.02,0.04 0.01,0.03 0.01,0.02 0.01,0.03 0.01,0.03 0.01,0.02 0.01,0.02 0.01,0.02 v 0.02 l 0.01,0.02 v 0.02 0.02 l 0.01,0.01 v 0.02 0.01 0.03 0.02 0.03 c 0,0.36 -0.29,1 -0.98,1 -0.61,0 -0.75,-0.3 -1.11,-1 l -22.36,-43.48 c -0.41,-0.71 -0.41,-0.8 -0.41,-0.96 0,-0.39 0.36,-1 1,-1 0.6,0 0.75,0.3 1.1,1 z"
           inkscape:connector-curvature="0"
           style="fill:#000000;stroke-width:0" /><path
           id="path9224"
           d="m 987.52,422.5 h 0.14 0.14 0.14 l 0.08,0.01 h 0.07 l 0.07,0.01 0.07,0.01 0.07,0.01 0.07,0.01 0.07,0.01 0.07,0.02 0.06,0.02 0.06,0.02 0.07,0.02 0.05,0.03 0.06,0.03 0.05,0.04 0.05,0.03 0.05,0.05 0.04,0.04 0.04,0.05 0.02,0.03 0.02,0.03 0.01,0.02 0.02,0.03 0.01,0.03 0.02,0.04 0.01,0.03 0.01,0.04 0.01,0.03 0.01,0.04 0.01,0.04 v 0.04 l 0.01,0.04 v 0.04 0.04 0.05 c 0,1 -0.95,1 -1.64,1 h -29.84 c -0.7,0 -1.64,0 -1.64,-1 0,-0.98 0.94,-0.98 1.69,-0.98 z"
           inkscape:connector-curvature="0"
           style="fill:#000000;stroke-width:0" /><path
           id="path9226"
           d="m 987.56,412.82 h 0.07 0.06 l 0.14,0.01 h 0.14 0.07 l 0.07,0.01 0.07,0.01 h 0.07 l 0.07,0.01 0.06,0.02 0.07,0.01 0.07,0.02 0.06,0.02 0.06,0.02 0.06,0.02 0.06,0.03 0.05,0.03 0.06,0.04 0.04,0.04 0.05,0.04 0.04,0.05 0.02,0.02 0.02,0.03 0.02,0.02 0.02,0.03 0.02,0.03 0.01,0.03 0.01,0.03 0.02,0.03 0.01,0.04 0.01,0.03 0.01,0.04 0.01,0.04 0.01,0.04 v 0.04 l 0.01,0.04 v 0.04 0.05 0.04 c 0,1 -0.95,1 -1.68,1 h -29.75 c -0.75,0 -1.69,0 -1.69,-1 0,-1 0.94,-1 1.64,-1 z"
           inkscape:connector-curvature="0"
           style="fill:#000000;stroke-width:0" /><path
           id="path9228"
           d="m 1028.8,422.14 v 0.74 l -0.1,0.75 v 0.75 0.74 l -0.1,0.75 v 0.74 l -0.1,0.74 -0.1,0.73 -0.1,0.73 -0.1,0.73 -0.2,0.72 -0.2,0.72 -0.2,0.72 -0.3,0.7 -0.2,0.7 -0.2,0.35 -0.1,0.34 c -2.3,4.8 -6.4,5.6 -8.5,5.6 -3,0 -6.6,-1.3 -8.7,-5.94 -1.6,-3.44 -1.8,-7.33 -1.8,-11.31 0,-3.74 0.2,-8.22 2.2,-12 2.2,-4.03 5.8,-5.03 8.2,-5.03 v 1.09 c -1.9,0 -4.9,1.25 -5.7,6.03 -0.6,2.98 -0.6,7.56 -0.6,10.52 0,3.18 0,6.46 0.4,9.15 1,5.94 4.7,6.38 5.9,6.38 1.7,0 5,-0.89 5.9,-5.83 0.5,-2.78 0.5,-6.58 0.5,-9.7 0,-3.75 0,-7.13 -0.5,-10.32 -0.8,-4.73 -3.6,-6.23 -5.9,-6.23 v 0 -1.09 c 2.7,0 6.5,1.04 8.7,5.78 1.6,3.43 1.9,7.31 1.9,11.25 z"
           inkscape:connector-curvature="0"
           style="fill:#000000;stroke-width:0" /></g>    </g>
  </g>
</svg>
