<?xml version="1.0" encoding="UTF-8" standalone="no"?>
<!-- Created with Inkscape (http://www.inkscape.org/) -->

<svg
   xmlns:dc="http://purl.org/dc/elements/1.1/"
   xmlns:cc="http://creativecommons.org/ns#"
   xmlns:rdf="http://www.w3.org/1999/02/22-rdf-syntax-ns#"
   xmlns:svg="http://www.w3.org/2000/svg"
   xmlns="http://www.w3.org/2000/svg"
   xmlns:sodipodi="http://sodipodi.sourceforge.net/DTD/sodipodi-0.dtd"
   xmlns:inkscape="http://www.inkscape.org/namespaces/inkscape"
   sodipodi:docname="CauchyBlaschkeBlue.svg"
   inkscape:version="0.92.1 r15371"
   id="svg8"
   version="1.1"
   viewBox="0 0 378.88332 269.87501"
   height="1020"
   width="1432">
  <sodipodi:namedview
     inkscape:window-maximized="1"
     inkscape:window-y="0"
     inkscape:window-x="0"
     inkscape:window-height="741"
     inkscape:window-width="1280"
     units="px"
     showgrid="false"
     inkscape:current-layer="svg8"
     inkscape:document-units="mm"
     inkscape:cy="560"
     inkscape:cx="763.16155"
     inkscape:zoom="0.35"
     inkscape:pageshadow="2"
     inkscape:pageopacity="0.0"
     borderopacity="1.0"
     bordercolor="#666666"
     pagecolor="#ffffff"
     id="base" />
  <defs
     id="defs2" />
  <metadata
     id="metadata5">
    <rdf:RDF>
      <cc:Work
         rdf:about="">
        <dc:format>image/svg+xml</dc:format>
        <dc:type
           rdf:resource="http://purl.org/dc/dcmitype/StillImage" />
        <dc:title></dc:title>
      </cc:Work>
    </rdf:RDF>
  </metadata>
  <g
     inkscape:label="Layer 1"
     inkscape:groupmode="layer"
     id="layer1"
     transform="translate(0,-27.124983)">
    <g
       id="g162"
       transform="matrix(1.3734271,0,0,1.620406,-99.643463,18.49197)"
       style="fill:#0000ff">
      <g
         word-spacing="normal"
         letter-spacing="normal"
         font-size-adjust="none"
         font-stretch="normal"
         font-weight="normal"
         font-variant="normal"
         font-style="normal"
         stroke-miterlimit="10.433"
         xml:space="preserve"
         transform="matrix(0.38553571,0,0,-0.38553571,-67.46875,284.1625)"
         id="g160"
         style="font-style:normal;font-variant:normal;font-weight:normal;font-stretch:normal;letter-spacing:normal;word-spacing:normal;text-anchor:start;fill:#0000ff;fill-opacity:1;fill-rule:evenodd;stroke:#000000;stroke-linecap:butt;stroke-linejoin:miter;stroke-miterlimit:10.43299961;stroke-dasharray:none;stroke-dashoffset:0;stroke-opacity:1"><path
           id="path100"
           d="m 463.49,377.57 -0.05,-0.18 -0.04,-0.17 -0.05,-0.16 -0.04,-0.15 -0.04,-0.15 -0.05,-0.13 -0.05,-0.13 -0.05,-0.12 -0.05,-0.11 -0.06,-0.11 -0.07,-0.1 -0.07,-0.09 -0.07,-0.08 -0.09,-0.08 -0.09,-0.08 -0.11,-0.06 -0.11,-0.07 -0.13,-0.05 -0.13,-0.05 -0.15,-0.05 -0.16,-0.04 -0.09,-0.02 -0.09,-0.01 -0.09,-0.02 -0.1,-0.01 -0.1,-0.02 -0.1,-0.01 -0.11,-0.01 -0.12,-0.01 -0.11,-0.01 -0.13,-0.01 -0.12,-0.01 -0.13,-0.01 -0.14,-0.01 h -0.14 l -0.14,-0.01 h -0.15 l -0.16,-0.01 h -0.16 -0.16 -0.17 -0.18 -0.18 c -0.85,0 -1.35,0 -1.35,-1 0,-0.55 0.46,-0.55 1.35,-0.55 h 17.78 c 7.87,0 13.75,5.87 13.75,10.77 0,3.57 -2.89,6.46 -7.72,7.01 5.19,0.95 10.42,4.64 10.42,9.38 0,3.68 -3.3,6.87 -9.28,6.87 l -0.69,-1.55 c 4.38,0 5.42,-2.93 5.42,-5.12 0,-4.39 -4.28,-9.13 -10.35,-9.13 h -7.27 l -0.3,-1.09 h 9.41 c 4.78,0 5.73,-3.69 5.73,-5.83 0,-4.94 -4.43,-9.76 -10.31,-9.76 h -6.78 c -0.69,0 -0.8,0 -1.09,0.04 -0.5,0.05 -0.64,0.1 -0.64,0.5 0,0.14 0,0.25 0.25,1.14 l 3.43,13.91 0.3,1.09 3.08,12.36 c 0.45,1.74 0.54,1.89 2.7,1.89 h 6.42 l 0.69,1.55 h -16.73 c -0.94,0 -1.44,0 -1.44,-1 0,-0.55 0.44,-0.55 1.39,-0.55 0.09,0 1.05,0 1.89,-0.09 0.89,-0.11 1.34,-0.16 1.34,-0.8 0,-0.2 -0.04,-0.36 -0.2,-0.95 z"
           inkscape:connector-curvature="0"
           style="fill:#0000ff;stroke-width:0" /><path
           id="path102"
           d="m 512.32,361.73 v 0.02 0.03 0.01 l -0.01,0.02 v 0.01 0.02 l -0.01,0.01 -0.01,0.02 v 0.02 l -0.01,0.02 -0.02,0.02 -0.01,0.03 -0.02,0.02 -0.02,0.03 -0.02,0.03 -0.02,0.03 -0.03,0.03 -0.03,0.04 -0.01,0.02 -0.02,0.02 -0.02,0.02 -0.01,0.02 -0.02,0.02 -0.02,0.03 -0.02,0.02 -0.03,0.02 -0.02,0.03 -0.02,0.02 -0.03,0.03 -0.02,0.03 -0.03,0.03 -0.03,0.03 -0.03,0.03 -0.02,0.03 -0.04,0.03 -0.03,0.03 -0.03,0.04 -0.03,0.03 -0.04,0.04 -0.04,0.03 -0.03,0.04 -0.04,0.04 c -6.22,6.28 -7.82,15.69 -7.82,23.31 0,8.67 1.89,17.35 8.02,23.57 0.64,0.6 0.64,0.7 0.64,0.85 0,0.35 -0.19,0.49 -0.48,0.49 -0.5,0 -4.99,-3.38 -7.93,-9.7 -2.54,-5.49 -3.14,-11.02 -3.14,-15.21 0,-3.89 0.55,-9.9 3.28,-15.54 2.99,-6.13 7.29,-9.36 7.79,-9.36 0.29,0 0.48,0.14 0.48,0.5 z"
           inkscape:connector-curvature="0"
           style="fill:#0000ff;stroke-width:0" /><path
           id="path104"
           d="m 521.78,377.82 0.25,0.27 0.24,0.25 0.23,0.25 0.23,0.24 0.22,0.23 0.22,0.22 0.21,0.22 0.21,0.21 0.2,0.2 0.19,0.19 0.2,0.19 0.18,0.19 0.19,0.18 0.18,0.17 0.35,0.33 0.34,0.32 0.34,0.3 0.32,0.29 0.33,0.29 0.64,0.56 0.33,0.29 0.34,0.28 c 0,0.05 3.07,2.69 4.87,4.49 4.73,4.64 5.83,7.03 5.83,7.22 0,0.5 -0.45,0.5 -0.55,0.5 -0.34,0 -0.5,-0.1 -0.75,-0.55 -1.48,-2.39 -2.53,-3.19 -3.73,-3.19 -1.21,0 -1.8,0.75 -2.55,1.59 -0.94,1.16 -1.78,2.15 -3.44,2.15 -3.73,0 -6.01,-4.63 -6.01,-5.68 0,-0.25 0.14,-0.54 0.59,-0.54 0.45,0 0.55,0.25 0.64,0.54 0.95,2.3 3.85,2.35 4.23,2.35 1.05,0 2,-0.36 3.15,-0.75 2,-0.75 2.54,-0.75 3.84,-0.75 -1.8,-2.14 -5.99,-5.74 -6.92,-6.53 l -4.49,-4.18 c -3.39,-3.34 -5.14,-6.18 -5.14,-6.53 0,-0.5 0.5,-0.5 0.6,-0.5 0.4,0 0.5,0.1 0.79,0.64 1.16,1.75 2.64,3.1 4.24,3.1 1.15,0 1.65,-0.46 2.89,-1.89 0.86,-1.05 1.75,-1.85 3.19,-1.85 4.93,0 7.82,6.33 7.82,7.67 0,0.25 -0.2,0.5 -0.59,0.5 -0.45,0 -0.55,-0.29 -0.7,-0.65 -1.14,-3.24 -4.33,-4.17 -5.99,-4.17 -0.98,0 -1.89,0.29 -2.94,0.64 -1.68,0.64 -2.43,0.84 -3.48,0.84 -0.09,0 -0.89,0 -1.34,-0.14 z"
           inkscape:connector-curvature="0"
           style="fill:#0000ff;stroke-width:0" /><path
           id="path106"
           d="m 554.86,386.13 v 0.37 l -0.01,0.39 -0.01,0.39 -0.01,0.41 -0.04,0.84 -0.06,0.88 -0.08,0.92 -0.11,0.95 -0.13,0.98 -0.17,1 -0.19,1.02 -0.23,1.03 -0.27,1.06 -0.31,1.05 -0.34,1.07 -0.4,1.07 -0.21,0.53 -0.22,0.53 -0.24,0.53 -0.25,0.53 c -2.99,6.12 -7.27,9.36 -7.77,9.36 -0.29,0 -0.5,-0.19 -0.5,-0.49 0,-0.15 0,-0.25 0.94,-1.15 4.89,-4.92 7.73,-12.85 7.73,-23.27 0,-8.51 -1.84,-17.28 -8.03,-23.56 -0.64,-0.59 -0.64,-0.7 -0.64,-0.84 0,-0.3 0.21,-0.5 0.5,-0.5 0.5,0 4.97,3.39 7.92,9.72 2.54,5.46 3.13,11 3.13,15.18 z"
           inkscape:connector-curvature="0"
           style="fill:#0000ff;stroke-width:0" /><path
           id="path108"
           d="m 608.06,389.98 h 0.14 0.14 0.15 l 0.07,0.01 h 0.07 l 0.07,0.01 0.08,0.01 0.07,0.01 0.07,0.01 0.06,0.01 0.07,0.02 0.06,0.02 0.07,0.02 0.06,0.02 0.06,0.03 0.05,0.03 0.06,0.04 0.05,0.04 0.04,0.04 0.05,0.04 0.04,0.05 0.01,0.03 0.02,0.03 0.02,0.02 0.01,0.03 0.02,0.04 0.01,0.03 0.01,0.03 0.01,0.04 0.01,0.03 0.01,0.04 0.01,0.04 0.01,0.04 v 0.04 0.04 l 0.01,0.05 v 0.04 c 0,1 -0.96,1 -1.65,1 h -29.84 c -0.7,0 -1.64,0 -1.64,-1 0,-0.98 0.94,-0.98 1.69,-0.98 z"
           inkscape:connector-curvature="0"
           style="fill:#0000ff;stroke-width:0" /><path
           id="path110"
           d="m 608.1,380.3 0.07,0.01 h 0.07 0.13 0.14 l 0.07,0.01 h 0.07 l 0.07,0.01 0.07,0.01 0.07,0.01 0.07,0.01 0.06,0.01 0.07,0.02 0.06,0.02 0.06,0.02 0.06,0.02 0.06,0.03 0.06,0.03 0.05,0.04 0.05,0.04 0.04,0.04 0.05,0.05 0.02,0.02 0.02,0.03 0.01,0.02 0.02,0.03 0.02,0.03 0.01,0.03 0.02,0.03 0.01,0.04 0.01,0.03 0.01,0.03 0.01,0.04 0.01,0.04 0.01,0.04 0.01,0.04 v 0.04 0.04 l 0.01,0.05 v 0.04 c 0,1 -0.96,1 -1.69,1 h -29.75 c -0.75,0 -1.69,0 -1.69,-1 0,-1 0.94,-1 1.64,-1 z"
           inkscape:connector-curvature="0"
           style="fill:#0000ff;stroke-width:0" /><path
           id="path112"
           d="m 664.18,445.51 -0.17,0.2 -0.16,0.18 -0.16,0.18 -0.15,0.18 -0.14,0.16 -0.14,0.16 -0.13,0.15 -0.12,0.14 -0.13,0.14 -0.12,0.13 -0.11,0.13 -0.11,0.11 -0.11,0.12 -0.11,0.11 -0.1,0.11 -0.1,0.1 -0.2,0.19 -0.2,0.19 -0.19,0.17 -0.2,0.17 -0.21,0.16 -0.21,0.17 -0.11,0.08 -0.11,0.08 -0.12,0.09 -0.12,0.09 c -2.13,1.54 -4.35,2.12 -6.27,2.12 -4.33,0 -7.45,-3.69 -7.45,-7.87 h 0.97 c 0,3.35 2.71,5.96 5.92,5.96 3.25,0 5.47,-2.65 8.81,-6.68 v 0 c -1.39,-2.27 -4.42,-5.8 -8.67,-5.8 -3.6,0 -6.06,3.17 -6.06,6.52 h -0.97 c 0,-4.07 2.98,-7.83 7.34,-7.83 4.84,0 8.23,3.97 9.48,5.81 1.85,-2.16 2.41,-2.75 3.72,-3.69 2.13,-1.53 4.36,-2.12 6.28,-2.12 4.32,0 7.46,3.68 7.46,7.87 h -0.97 c 0,-3.34 -2.72,-5.97 -5.92,-5.97 -3.25,0 -5.49,2.66 -8.83,6.71 v 0 c 1.41,2.25 4.44,5.78 8.69,5.78 3.57,0 6.06,-3.17 6.06,-6.52 h 0.97 c 0,4.08 -3,7.83 -7.35,7.83 -4.84,0 -8.23,-3.97 -9.48,-5.81 z"
           inkscape:connector-curvature="0"
           style="fill:#0000ff;stroke-width:0" /><path
           id="path114"
           d="m 692.87,351.33 v 2.69 c -6.63,0 -8.17,2.29 -8.17,5.48 v 53.41 c 0,3.23 1.59,5.48 8.17,5.48 v 2.69 h -58.03 v -2.69 c 6.62,0 8.15,-2.3 8.15,-5.48 V 359.5 c 0,-3.23 -1.59,-5.48 -8.15,-5.48 v -2.69 h 23.95 v 2.69 c -6.63,0 -8.17,2.29 -8.17,5.48 v 58.89 h 26.45 V 359.5 c 0,-3.23 -1.59,-5.48 -8.16,-5.48 v -2.69 z"
           inkscape:connector-curvature="0"
           style="fill:#0000ff;stroke-width:0" /><path
           id="path116"
           d="m 630.65,317.79 -0.02,-0.04 -0.01,-0.05 -0.01,-0.04 -0.02,-0.05 -0.01,-0.05 -0.02,-0.06 -0.01,-0.05 -0.01,-0.05 -0.03,-0.11 -0.03,-0.11 -0.03,-0.12 -0.03,-0.1 -0.01,-0.06 -0.01,-0.05 -0.01,-0.05 -0.01,-0.05 -0.01,-0.05 -0.01,-0.04 -0.01,-0.05 -0.01,-0.04 -0.01,-0.03 -0.01,-0.04 v -0.03 l -0.01,-0.03 v -0.02 -0.02 -0.01 -0.01 -0.01 h -0.01 c 0,-0.77 0.63,-1.11 1.19,-1.11 0.63,0 1.17,0.45 1.36,0.76 0.17,0.32 0.45,1.43 0.63,2.16 0.17,0.66 0.54,2.27 0.76,3.14 0.21,0.77 0.42,1.53 0.6,2.33 0.37,1.44 0.45,1.7 1.45,3.14 0.98,1.39 2.62,3.2 5.23,3.2 2.02,0 2.05,-1.78 2.05,-2.44 0,-2.09 -1.48,-5.95 -2.05,-7.42 -0.39,-0.98 -0.53,-1.29 -0.53,-1.89 0,-1.84 1.55,-2.98 3.31,-2.98 3.49,0 5.02,4.79 5.02,5.33 0,0.45 -0.45,0.45 -0.55,0.45 -0.5,0 -0.53,-0.2 -0.67,-0.59 -0.8,-2.79 -2.3,-4.22 -3.69,-4.22 -0.73,0 -0.87,0.48 -0.87,1.22 0,0.79 0.17,1.25 0.8,2.82 0.42,1.08 1.86,4.77 1.86,6.72 0,3.39 -2.69,3.97 -4.54,3.97 -2.89,0 -4.84,-1.76 -5.89,-3.16 -0.25,2.4 -2.29,3.16 -3.73,3.16 -1.5,0 -2.3,-1.08 -2.75,-1.87 -0.77,-1.29 -1.25,-3.29 -1.25,-3.46 0,-0.45 0.48,-0.45 0.59,-0.45 0.49,0 0.52,0.11 0.77,1.05 0.51,2.06 1.19,3.76 2.55,3.76 0.9,0 1.14,-0.76 1.14,-1.7 0,-0.67 -0.32,-1.95 -0.57,-2.89 -0.23,-0.95 -0.57,-2.38 -0.76,-3.14 z"
           inkscape:connector-curvature="0"
           style="fill:#0000ff;stroke-width:0" /><path
           id="path118"
           d="m 677.76,327.3 0.05,0.01 h 0.05 0.05 0.06 0.1 0.06 l 0.05,0.01 h 0.06 l 0.05,0.01 0.06,0.01 0.05,0.01 0.06,0.01 0.05,0.02 0.05,0.02 0.05,0.01 0.05,0.03 0.05,0.02 0.04,0.03 0.04,0.03 0.05,0.03 0.03,0.04 0.04,0.04 0.02,0.02 0.01,0.02 0.02,0.03 0.01,0.02 0.01,0.03 0.02,0.02 0.01,0.03 0.01,0.03 0.01,0.03 0.01,0.03 0.01,0.03 v 0.04 l 0.01,0.03 v 0.04 l 0.01,0.03 v 0.04 0.04 0.04 c 0,0.84 -0.82,0.84 -1.28,0.84 h -23.06 c -0.45,0 -1.3,0 -1.3,-0.84 0,-0.88 0.8,-0.88 1.33,-0.88 z"
           inkscape:connector-curvature="0"
           style="fill:#0000ff;stroke-width:0" /><path
           id="path120"
           d="m 677.79,319.65 h 0.05 0.04 0.05 0.05 0.05 0.05 l 0.05,0.01 h 0.05 l 0.06,0.01 h 0.05 l 0.05,0.01 0.06,0.01 0.05,0.01 0.05,0.02 0.05,0.01 0.05,0.02 0.05,0.02 0.05,0.03 0.04,0.02 0.05,0.03 0.04,0.03 0.04,0.04 0.03,0.04 0.02,0.02 0.02,0.02 0.01,0.02 0.02,0.02 0.01,0.03 0.01,0.02 0.02,0.03 0.01,0.03 0.01,0.02 0.01,0.03 0.01,0.03 v 0.04 l 0.01,0.03 v 0.03 l 0.01,0.04 v 0.03 0.04 0.04 c 0,0.87 -0.79,0.87 -1.31,0.87 h -23 c -0.53,0 -1.33,0 -1.33,-0.87 0,-0.83 0.85,-0.83 1.3,-0.83 z"
           inkscape:connector-curvature="0"
           style="fill:#0000ff;stroke-width:0" /><path
           id="path122"
           d="m 693.27,337.76 v 0.04 0.04 0.05 0.04 l -0.01,0.03 v 0.04 0.04 0.03 0.04 0.03 0.03 l -0.01,0.03 v 0.03 0.03 l -0.01,0.03 v 0.02 0.03 l -0.01,0.02 v 0.03 l -0.01,0.02 -0.01,0.04 -0.02,0.04 -0.01,0.03 -0.02,0.03 -0.02,0.03 -0.03,0.03 -0.03,0.02 -0.03,0.02 -0.03,0.02 -0.04,0.01 -0.04,0.01 -0.04,0.02 h -0.03 -0.02 l -0.03,0.01 h -0.02 l -0.03,0.01 h -0.03 -0.03 -0.03 -0.03 l -0.03,0.01 h -0.04 -0.03 -0.04 -0.04 -0.04 -0.04 -0.04 -0.04 -0.05 -0.04 c -2.24,-2.2 -5.39,-2.23 -6.83,-2.23 v -1.25 c 0.84,0 3.14,0 5.05,0.97 v -17.77 c 0,-1.16 0,-1.61 -3.49,-1.61 h -1.31 v -1.25 c 0.63,0.03 4.91,0.14 6.2,0.14 1.08,0 5.47,-0.11 6.24,-0.14 v 1.25 h -1.33 c -3.48,0 -3.48,0.45 -3.48,1.61 z"
           inkscape:connector-curvature="0"
           style="fill:#0000ff;stroke-width:0" /><path
           id="path124"
           d="m 736.1,411.54 0.25,0.27 0.24,0.25 0.24,0.25 0.23,0.24 0.22,0.23 0.22,0.22 0.21,0.22 0.2,0.21 0.21,0.2 0.19,0.19 0.19,0.19 0.19,0.19 0.19,0.17 0.18,0.18 0.35,0.33 0.34,0.32 0.33,0.3 0.33,0.29 0.33,0.29 0.64,0.56 0.33,0.28 0.33,0.29 c 0,0.05 3.08,2.69 4.88,4.49 4.73,4.64 5.83,7.03 5.83,7.21 0,0.5 -0.46,0.5 -0.55,0.5 -0.35,0 -0.5,-0.09 -0.75,-0.54 -1.48,-2.39 -2.53,-3.19 -3.73,-3.19 -1.21,0 -1.8,0.75 -2.55,1.59 -0.94,1.16 -1.78,2.14 -3.44,2.14 -3.73,0 -6.01,-4.62 -6.01,-5.67 0,-0.25 0.13,-0.54 0.59,-0.54 0.45,0 0.54,0.25 0.64,0.54 0.95,2.3 3.84,2.35 4.23,2.35 1.05,0 2,-0.36 3.14,-0.75 2,-0.75 2.55,-0.75 3.85,-0.75 -1.8,-2.14 -5.99,-5.74 -6.92,-6.54 l -4.49,-4.17 c -3.39,-3.34 -5.14,-6.18 -5.14,-6.53 0,-0.5 0.5,-0.5 0.6,-0.5 0.4,0 0.5,0.1 0.79,0.64 1.16,1.75 2.64,3.1 4.24,3.1 1.15,0 1.65,-0.46 2.89,-1.89 0.86,-1.05 1.75,-1.85 3.18,-1.85 4.94,0 7.83,6.33 7.83,7.67 0,0.25 -0.2,0.5 -0.59,0.5 -0.46,0 -0.55,-0.29 -0.71,-0.65 -1.13,-3.24 -4.32,-4.17 -5.98,-4.17 -0.98,0 -1.89,0.29 -2.94,0.64 -1.68,0.64 -2.43,0.84 -3.48,0.84 -0.1,0 -0.89,0 -1.35,-0.14 z"
           inkscape:connector-curvature="0"
           style="fill:#0000ff;stroke-width:0" /><path
           id="path126"
           d="m 756.89,402.15 -0.01,-0.04 -0.02,-0.05 -0.01,-0.05 -0.01,-0.04 -0.02,-0.05 -0.01,-0.06 -0.02,-0.05 -0.01,-0.05 -0.03,-0.11 -0.03,-0.11 -0.03,-0.12 -0.02,-0.11 -0.02,-0.05 -0.01,-0.05 -0.01,-0.05 -0.01,-0.05 -0.01,-0.05 -0.01,-0.04 -0.01,-0.05 -0.01,-0.04 -0.01,-0.03 v -0.04 l -0.01,-0.03 v -0.03 l -0.01,-0.02 v -0.02 -0.01 -0.01 -0.01 0 c 0,-0.77 0.62,-1.11 1.18,-1.11 0.63,0 1.18,0.45 1.36,0.76 0.18,0.32 0.46,1.42 0.63,2.16 0.17,0.66 0.55,2.26 0.76,3.14 0.21,0.77 0.43,1.53 0.6,2.33 0.37,1.44 0.45,1.7 1.45,3.14 0.99,1.39 2.63,3.2 5.24,3.2 2.01,0 2.04,-1.78 2.04,-2.44 0,-2.09 -1.48,-5.95 -2.04,-7.42 -0.39,-0.98 -0.54,-1.29 -0.54,-1.89 0,-1.84 1.55,-2.98 3.32,-2.98 3.48,0 5.01,4.79 5.01,5.33 0,0.45 -0.45,0.45 -0.54,0.45 -0.5,0 -0.54,-0.2 -0.68,-0.6 -0.79,-2.78 -2.29,-4.21 -3.68,-4.21 -0.74,0 -0.88,0.48 -0.88,1.21 0,0.8 0.17,1.25 0.8,2.83 0.42,1.08 1.86,4.77 1.86,6.72 0,3.39 -2.69,3.97 -4.53,3.97 -2.89,0 -4.85,-1.77 -5.89,-3.16 -0.25,2.39 -2.3,3.16 -3.74,3.16 -1.5,0 -2.3,-1.08 -2.75,-1.87 -0.76,-1.29 -1.25,-3.29 -1.25,-3.46 0,-0.45 0.49,-0.45 0.6,-0.45 0.48,0 0.51,0.11 0.76,1.05 0.52,2.06 1.19,3.76 2.55,3.76 0.9,0 1.14,-0.76 1.14,-1.7 0,-0.67 -0.31,-1.95 -0.56,-2.89 -0.24,-0.96 -0.58,-2.38 -0.77,-3.14 z"
           inkscape:connector-curvature="0"
           style="fill:#0000ff;stroke-width:0" /><polyline
           id="polyline128"
           points="716,385 794,385 794,387.04 716,387.04 "
           style="fill:#0000ff;fill-rule:nonzero;stroke-width:0" /><path
           id="path130"
           d="m 723.6,375.18 v 0.17 0.16 0.16 l -0.01,0.08 v 0.08 l -0.01,0.08 -0.01,0.08 -0.01,0.07 -0.01,0.07 -0.02,0.08 -0.01,0.06 -0.02,0.07 -0.02,0.06 -0.03,0.07 -0.03,0.05 -0.03,0.06 -0.03,0.05 -0.04,0.05 -0.04,0.05 -0.05,0.04 -0.05,0.04 -0.03,0.02 -0.02,0.01 -0.03,0.02 -0.03,0.01 -0.04,0.02 -0.03,0.01 -0.03,0.01 -0.04,0.01 -0.03,0.01 -0.04,0.01 -0.04,0.01 h -0.04 l -0.04,0.01 h -0.05 -0.04 -0.05 c -1,0 -1,-0.89 -1,-1.78 v -46.23 c 0,-0.91 0,-1.8 1,-1.8 1,0 1,0.89 1,1.8 z"
           inkscape:connector-curvature="0"
           style="fill:#0000ff;stroke-width:0" /><path
           id="path132"
           d="m 736.1,343.74 0.25,0.27 0.24,0.26 0.24,0.24 0.22,0.24 0.23,0.23 0.21,0.23 0.21,0.21 0.21,0.21 0.2,0.2 0.2,0.2 0.19,0.19 0.19,0.18 0.18,0.18 0.18,0.17 0.35,0.33 0.35,0.32 0.33,0.3 0.33,0.3 0.32,0.28 0.65,0.56 0.33,0.29 0.33,0.28 c 0,0.05 3.08,2.69 4.87,4.49 4.74,4.64 5.83,7.03 5.83,7.22 0,0.5 -0.45,0.5 -0.54,0.5 -0.35,0 -0.5,-0.1 -0.75,-0.55 -1.49,-2.39 -2.54,-3.19 -3.74,-3.19 -1.2,0 -1.8,0.75 -2.55,1.6 -0.93,1.15 -1.78,2.14 -3.43,2.14 -3.74,0 -6.02,-4.63 -6.02,-5.67 0,-0.25 0.14,-0.55 0.59,-0.55 0.46,0 0.55,0.25 0.65,0.55 0.95,2.29 3.84,2.34 4.23,2.34 1.05,0 2,-0.36 3.14,-0.75 2,-0.75 2.55,-0.75 3.84,-0.75 -1.79,-2.14 -5.98,-5.74 -6.92,-6.53 l -4.48,-4.17 c -3.39,-3.35 -5.14,-6.19 -5.14,-6.54 0,-0.5 0.5,-0.5 0.59,-0.5 0.41,0 0.5,0.1 0.8,0.65 1.15,1.75 2.64,3.09 4.23,3.09 1.16,0 1.66,-0.45 2.89,-1.89 0.86,-1.05 1.75,-1.85 3.19,-1.85 4.94,0 7.83,6.33 7.83,7.68 0,0.25 -0.2,0.5 -0.6,0.5 -0.45,0 -0.54,-0.3 -0.7,-0.66 -1.14,-3.23 -4.33,-4.17 -5.98,-4.17 -0.99,0 -1.89,0.3 -2.94,0.64 -1.69,0.64 -2.44,0.84 -3.48,0.84 -0.1,0 -0.9,0 -1.35,-0.14 z"
           inkscape:connector-curvature="0"
           style="fill:#0000ff;stroke-width:0" /><path
           id="path134"
           d="m 756.89,334.23 -0.01,-0.05 -0.02,-0.04 -0.01,-0.05 -0.01,-0.05 -0.02,-0.05 -0.01,-0.05 -0.02,-0.05 -0.01,-0.05 -0.03,-0.11 -0.03,-0.12 -0.03,-0.11 -0.02,-0.11 -0.02,-0.05 -0.01,-0.05 -0.01,-0.05 -0.01,-0.05 -0.01,-0.05 -0.01,-0.05 -0.01,-0.04 -0.01,-0.04 -0.01,-0.04 v -0.03 l -0.01,-0.03 v -0.03 l -0.01,-0.03 v -0.02 0 -0.01 -0.01 -0.01 c 0,-0.76 0.62,-1.1 1.18,-1.1 0.63,0 1.18,0.45 1.36,0.76 0.18,0.31 0.46,1.42 0.63,2.16 0.17,0.65 0.55,2.26 0.76,3.14 0.21,0.76 0.43,1.53 0.6,2.33 0.37,1.43 0.45,1.7 1.45,3.14 0.99,1.39 2.63,3.2 5.24,3.2 2.01,0 2.04,-1.78 2.04,-2.44 0,-2.09 -1.48,-5.95 -2.04,-7.42 -0.39,-0.98 -0.54,-1.3 -0.54,-1.89 0,-1.84 1.55,-2.98 3.32,-2.98 3.48,0 5.01,4.79 5.01,5.32 0,0.46 -0.45,0.46 -0.54,0.46 -0.5,0 -0.54,-0.21 -0.68,-0.6 -0.79,-2.78 -2.29,-4.22 -3.68,-4.22 -0.74,0 -0.88,0.49 -0.88,1.22 0,0.8 0.17,1.25 0.8,2.83 0.42,1.08 1.86,4.77 1.86,6.72 0,3.39 -2.69,3.97 -4.53,3.97 -2.89,0 -4.85,-1.77 -5.89,-3.16 -0.25,2.39 -2.3,3.16 -3.74,3.16 -1.5,0 -2.3,-1.08 -2.75,-1.88 -0.76,-1.28 -1.25,-3.28 -1.25,-3.45 0,-0.45 0.49,-0.45 0.6,-0.45 0.48,0 0.51,0.11 0.76,1.04 0.52,2.07 1.19,3.77 2.55,3.77 0.9,0 1.14,-0.77 1.14,-1.7 0,-0.68 -0.31,-1.96 -0.56,-2.89 -0.24,-0.96 -0.58,-2.38 -0.77,-3.14 z"
           inkscape:connector-curvature="0"
           style="fill:#0000ff;stroke-width:0" /><path
           id="path136"
           d="m 787.68,375.18 v 0.17 0.16 0.16 l -0.01,0.08 v 0.08 l -0.01,0.08 -0.01,0.08 -0.01,0.07 -0.01,0.07 -0.01,0.08 -0.02,0.06 -0.02,0.07 -0.02,0.06 -0.03,0.07 -0.02,0.05 -0.04,0.06 -0.03,0.05 -0.04,0.05 -0.04,0.05 -0.05,0.04 -0.05,0.04 -0.02,0.02 -0.03,0.01 -0.03,0.02 -0.03,0.01 -0.03,0.02 -0.04,0.01 -0.03,0.01 -0.04,0.01 -0.03,0.01 -0.04,0.01 -0.04,0.01 h -0.04 l -0.04,0.01 h -0.05 -0.04 -0.05 c -1,0 -1,-0.89 -1,-1.78 v -46.23 c 0,-0.91 0,-1.8 1,-1.8 1,0 1,0.89 1,1.8 z"
           inkscape:connector-curvature="0"
           style="fill:#0000ff;stroke-width:0" /><path
           id="path138"
           d="m 824.66,411.54 0.25,0.27 0.24,0.25 0.24,0.25 0.23,0.24 0.22,0.23 0.22,0.22 0.21,0.22 0.2,0.21 0.2,0.2 0.2,0.19 0.19,0.19 0.19,0.19 0.18,0.17 0.19,0.18 0.35,0.33 0.34,0.32 0.33,0.3 0.33,0.29 0.32,0.29 0.65,0.56 0.33,0.28 0.33,0.29 c 0,0.05 3.08,2.69 4.88,4.49 4.73,4.64 5.82,7.03 5.82,7.21 0,0.5 -0.45,0.5 -0.54,0.5 -0.35,0 -0.5,-0.09 -0.75,-0.54 -1.49,-2.39 -2.53,-3.19 -3.74,-3.19 -1.2,0 -1.79,0.75 -2.54,1.59 -0.94,1.16 -1.78,2.14 -3.44,2.14 -3.74,0 -6.02,-4.62 -6.02,-5.67 0,-0.25 0.14,-0.54 0.6,-0.54 0.45,0 0.54,0.25 0.64,0.54 0.95,2.3 3.84,2.35 4.23,2.35 1.05,0 2,-0.36 3.14,-0.75 2,-0.75 2.55,-0.75 3.85,-0.75 -1.8,-2.14 -5.99,-5.74 -6.93,-6.54 l -4.48,-4.17 c -3.39,-3.34 -5.14,-6.18 -5.14,-6.53 0,-0.5 0.5,-0.5 0.59,-0.5 0.41,0 0.5,0.1 0.8,0.64 1.16,1.75 2.64,3.1 4.23,3.1 1.16,0 1.66,-0.46 2.9,-1.89 0.85,-1.05 1.75,-1.85 3.18,-1.85 4.94,0 7.83,6.33 7.83,7.67 0,0.25 -0.2,0.5 -0.59,0.5 -0.46,0 -0.55,-0.29 -0.71,-0.65 -1.14,-3.24 -4.32,-4.17 -5.98,-4.17 -0.98,0 -1.89,0.29 -2.94,0.64 -1.69,0.64 -2.44,0.84 -3.48,0.84 -0.1,0 -0.89,0 -1.35,-0.14 z"
           inkscape:connector-curvature="0"
           style="fill:#0000ff;stroke-width:0" /><path
           id="path140"
           d="m 887.34,418.85 h 0.16 0.16 l 0.16,0.01 h 0.08 l 0.07,0.01 h 0.08 l 0.07,0.01 0.08,0.01 0.07,0.01 0.07,0.02 0.07,0.02 0.06,0.01 0.07,0.03 0.06,0.02 0.05,0.03 0.06,0.03 0.05,0.04 0.05,0.03 0.05,0.05 0.04,0.04 0.04,0.05 0.02,0.03 0.01,0.03 0.02,0.03 0.01,0.03 0.02,0.03 0.01,0.03 0.01,0.04 0.01,0.03 0.01,0.04 0.01,0.04 0.01,0.04 v 0.04 l 0.01,0.04 v 0.04 0.05 0.04 c 0,1 -0.9,1 -1.75,1 h -26.95 c -0.84,0 -1.73,0 -1.73,-1 0,-1 0.89,-1 1.73,-1 z"
           inkscape:connector-curvature="0"
           style="fill:#0000ff;stroke-width:0" /><path
           id="path142"
           d="m 910.94,411.54 0.25,0.27 0.24,0.25 0.23,0.25 0.23,0.24 0.22,0.23 0.22,0.22 0.21,0.22 0.21,0.21 0.2,0.2 0.19,0.19 0.2,0.19 0.18,0.19 0.19,0.17 0.18,0.18 0.35,0.33 0.34,0.32 0.34,0.3 0.32,0.29 0.33,0.29 0.64,0.56 0.33,0.28 0.34,0.29 c 0,0.05 3.07,2.69 4.87,4.49 4.73,4.64 5.83,7.03 5.83,7.21 0,0.5 -0.46,0.5 -0.55,0.5 -0.34,0 -0.5,-0.09 -0.75,-0.54 -1.48,-2.39 -2.53,-3.19 -3.73,-3.19 -1.21,0 -1.8,0.75 -2.55,1.59 -0.94,1.16 -1.78,2.14 -3.44,2.14 -3.73,0 -6.01,-4.62 -6.01,-5.67 0,-0.25 0.14,-0.54 0.59,-0.54 0.45,0 0.55,0.25 0.64,0.54 0.95,2.3 3.84,2.35 4.24,2.35 1.04,0 2,-0.36 3.14,-0.75 2,-0.75 2.54,-0.75 3.84,-0.75 -1.8,-2.14 -5.98,-5.74 -6.92,-6.54 l -4.49,-4.17 c -3.39,-3.34 -5.14,-6.18 -5.14,-6.53 0,-0.5 0.5,-0.5 0.6,-0.5 0.4,0 0.5,0.1 0.79,0.64 1.16,1.75 2.64,3.1 4.24,3.1 1.15,0 1.65,-0.46 2.89,-1.89 0.86,-1.05 1.75,-1.85 3.19,-1.85 4.93,0 7.82,6.33 7.82,7.67 0,0.25 -0.2,0.5 -0.59,0.5 -0.45,0 -0.55,-0.29 -0.7,-0.65 -1.14,-3.24 -4.33,-4.17 -5.99,-4.17 -0.98,0 -1.89,0.29 -2.93,0.64 -1.69,0.64 -2.44,0.84 -3.49,0.84 -0.09,0 -0.89,0 -1.34,-0.14 z"
           inkscape:connector-curvature="0"
           style="fill:#0000ff;stroke-width:0" /><path
           id="path144"
           d="m 931.73,402.15 -0.01,-0.04 -0.02,-0.05 -0.01,-0.05 -0.01,-0.04 -0.02,-0.05 -0.01,-0.06 -0.02,-0.05 -0.01,-0.05 -0.03,-0.11 -0.03,-0.11 -0.03,-0.12 -0.02,-0.11 -0.02,-0.05 -0.01,-0.05 -0.01,-0.05 -0.01,-0.05 -0.01,-0.05 -0.01,-0.04 -0.01,-0.05 -0.01,-0.04 -0.01,-0.03 v -0.04 l -0.01,-0.03 v -0.03 l -0.01,-0.02 v -0.02 -0.01 -0.01 -0.01 0 c 0,-0.77 0.62,-1.11 1.18,-1.11 0.63,0 1.18,0.45 1.36,0.76 0.17,0.32 0.46,1.42 0.63,2.16 0.17,0.66 0.54,2.26 0.76,3.14 0.21,0.77 0.43,1.53 0.6,2.33 0.37,1.44 0.45,1.7 1.45,3.14 0.98,1.39 2.63,3.2 5.23,3.2 2.02,0 2.05,-1.78 2.05,-2.44 0,-2.09 -1.48,-5.95 -2.05,-7.42 -0.38,-0.98 -0.53,-1.29 -0.53,-1.89 0,-1.84 1.55,-2.98 3.32,-2.98 3.48,0 5.01,4.79 5.01,5.33 0,0.45 -0.45,0.45 -0.55,0.45 -0.5,0 -0.53,-0.2 -0.67,-0.6 -0.79,-2.78 -2.29,-4.21 -3.68,-4.21 -0.74,0 -0.88,0.48 -0.88,1.21 0,0.8 0.17,1.25 0.8,2.83 0.42,1.08 1.86,4.77 1.86,6.72 0,3.39 -2.69,3.97 -4.53,3.97 -2.9,0 -4.85,-1.77 -5.9,-3.16 -0.25,2.39 -2.29,3.16 -3.73,3.16 -1.5,0 -2.3,-1.08 -2.75,-1.87 -0.77,-1.29 -1.25,-3.29 -1.25,-3.46 0,-0.45 0.48,-0.45 0.6,-0.45 0.48,0 0.51,0.11 0.76,1.05 0.52,2.06 1.19,3.76 2.55,3.76 0.9,0 1.14,-0.76 1.14,-1.7 0,-0.67 -0.32,-1.95 -0.57,-2.89 -0.23,-0.96 -0.57,-2.38 -0.76,-3.14 z"
           inkscape:connector-curvature="0"
           style="fill:#0000ff;stroke-width:0" /><polyline
           id="polyline146"
           points="806,385 967.52,385 967.52,387.04 806,387.04 "
           style="fill:#0000ff;fill-rule:nonzero;stroke-width:0" /><path
           id="path148"
           d="m 820.2,371.49 v 0.06 0.05 0.05 0.05 0.05 0.05 0.04 0.05 0.04 l -0.01,0.04 v 0.04 0.04 0.04 0.04 l -0.01,0.03 v 0.04 l -0.01,0.06 -0.01,0.06 -0.01,0.05 -0.01,0.05 -0.02,0.05 -0.02,0.04 -0.02,0.04 -0.02,0.04 -0.03,0.03 -0.03,0.03 -0.04,0.02 -0.04,0.02 -0.04,0.02 -0.03,0.01 -0.02,0.01 h -0.03 l -0.02,0.01 -0.03,0.01 h -0.03 l -0.03,0.01 h -0.03 l -0.04,0.01 h -0.03 -0.04 l -0.04,0.01 h -0.03 -0.04 -0.05 l -0.04,0.01 h -0.04 -0.05 -0.05 -0.05 -0.05 -0.05 c -3.09,-3.19 -7.47,-3.19 -9.06,-3.19 v -1.55 c 1,0 3.93,0 6.51,1.3 v -25.81 c 0,-1.8 -0.14,-2.39 -4.62,-2.39 h -1.6 v -1.55 c 1.75,0.16 6.08,0.16 8.06,0.16 2,0 6.33,0 8.08,-0.16 v 1.55 h -1.59 c -4.49,0 -4.64,0.55 -4.64,2.39 z"
           inkscape:connector-curvature="0"
           style="fill:#0000ff;stroke-width:0" /><path
           id="path150"
           d="m 874.39,351.05 0.16,0.01 h 0.15 0.16 l 0.08,0.01 h 0.08 l 0.07,0.01 0.08,0.01 0.07,0.01 0.07,0.01 0.07,0.01 0.07,0.02 0.06,0.02 0.07,0.02 0.06,0.02 0.06,0.03 0.05,0.03 0.06,0.04 0.04,0.04 0.05,0.04 0.04,0.05 0.04,0.05 0.02,0.02 0.02,0.03 0.01,0.03 0.02,0.03 0.01,0.03 0.01,0.04 0.02,0.03 0.01,0.03 0.01,0.04 v 0.04 l 0.01,0.04 0.01,0.04 v 0.04 0.04 l 0.01,0.05 v 0.04 c 0,1 -0.91,1 -1.75,1 h -26.96 c -0.84,0 -1.73,0 -1.73,-1 0,-1 0.89,-1 1.73,-1 z"
           inkscape:connector-curvature="0"
           style="fill:#0000ff;stroke-width:0" /><polyline
           id="polyline152"
           points="891,367 941.4,367 941.4,369.04 891,369.04 "
           style="fill:#0000ff;fill-rule:nonzero;stroke-width:0" /><path
           id="path154"
           d="m 897.98,343.74 0.25,0.27 0.24,0.26 0.23,0.24 0.23,0.24 0.23,0.23 0.21,0.23 0.21,0.21 0.21,0.21 0.2,0.2 0.2,0.2 0.19,0.19 0.19,0.18 0.18,0.18 0.18,0.17 0.35,0.33 0.34,0.32 0.34,0.3 0.33,0.3 0.32,0.28 0.65,0.56 0.32,0.29 0.34,0.28 c 0,0.05 3.08,2.69 4.87,4.49 4.74,4.64 5.83,7.03 5.83,7.22 0,0.5 -0.45,0.5 -0.55,0.5 -0.34,0 -0.5,-0.1 -0.75,-0.55 -1.48,-2.39 -2.53,-3.19 -3.73,-3.19 -1.2,0 -1.8,0.75 -2.55,1.6 -0.94,1.15 -1.78,2.14 -3.44,2.14 -3.73,0 -6.01,-4.63 -6.01,-5.67 0,-0.25 0.14,-0.55 0.59,-0.55 0.46,0 0.55,0.25 0.64,0.55 0.96,2.29 3.85,2.34 4.24,2.34 1.04,0 2,-0.36 3.14,-0.75 2,-0.75 2.55,-0.75 3.84,-0.75 -1.79,-2.14 -5.98,-5.74 -6.92,-6.53 l -4.48,-4.17 c -3.39,-3.35 -5.14,-6.19 -5.14,-6.54 0,-0.5 0.5,-0.5 0.59,-0.5 0.41,0 0.5,0.1 0.8,0.65 1.15,1.75 2.64,3.09 4.23,3.09 1.16,0 1.66,-0.45 2.89,-1.89 0.86,-1.05 1.75,-1.85 3.19,-1.85 4.94,0 7.83,6.33 7.83,7.68 0,0.25 -0.21,0.5 -0.6,0.5 -0.45,0 -0.54,-0.3 -0.7,-0.66 -1.14,-3.23 -4.33,-4.17 -5.98,-4.17 -0.99,0 -1.9,0.3 -2.94,0.64 -1.69,0.64 -2.44,0.84 -3.49,0.84 -0.09,0 -0.89,0 -1.34,-0.14 z"
           inkscape:connector-curvature="0"
           style="fill:#0000ff;stroke-width:0" /><path
           id="path156"
           d="m 918.77,334.23 -0.01,-0.05 -0.02,-0.04 -0.01,-0.05 -0.02,-0.05 -0.01,-0.05 -0.01,-0.05 -0.02,-0.05 -0.01,-0.05 -0.03,-0.11 -0.03,-0.12 -0.03,-0.11 -0.02,-0.11 -0.02,-0.05 -0.01,-0.05 -0.01,-0.05 -0.01,-0.05 -0.01,-0.05 -0.01,-0.05 -0.01,-0.04 -0.01,-0.04 -0.01,-0.04 v -0.03 l -0.01,-0.03 v -0.03 l -0.01,-0.03 v -0.02 0 -0.01 -0.01 -0.01 c 0,-0.76 0.62,-1.1 1.18,-1.1 0.63,0 1.17,0.45 1.36,0.76 0.18,0.31 0.46,1.42 0.63,2.16 0.17,0.65 0.55,2.26 0.76,3.14 0.21,0.76 0.42,1.53 0.6,2.33 0.37,1.43 0.45,1.7 1.45,3.14 0.99,1.39 2.62,3.2 5.24,3.2 2.01,0 2.04,-1.78 2.04,-2.44 0,-2.09 -1.48,-5.95 -2.04,-7.42 -0.4,-0.98 -0.54,-1.3 -0.54,-1.89 0,-1.84 1.55,-2.98 3.32,-2.98 3.48,0 5.01,4.79 5.01,5.32 0,0.46 -0.45,0.46 -0.54,0.46 -0.5,0 -0.54,-0.21 -0.68,-0.6 -0.79,-2.78 -2.29,-4.22 -3.69,-4.22 -0.73,0 -0.87,0.49 -0.87,1.22 0,0.8 0.17,1.25 0.8,2.83 0.42,1.08 1.86,4.77 1.86,6.72 0,3.39 -2.69,3.97 -4.54,3.97 -2.88,0 -4.84,-1.77 -5.88,-3.16 -0.25,2.39 -2.3,3.16 -3.74,3.16 -1.5,0 -2.3,-1.08 -2.75,-1.88 -0.76,-1.28 -1.25,-3.28 -1.25,-3.45 0,-0.45 0.49,-0.45 0.59,-0.45 0.49,0 0.52,0.11 0.77,1.04 0.51,2.07 1.19,3.77 2.55,3.77 0.9,0 1.14,-0.77 1.14,-1.7 0,-0.68 -0.31,-1.96 -0.56,-2.89 -0.24,-0.96 -0.58,-2.38 -0.77,-3.14 z"
           inkscape:connector-curvature="0"
           style="fill:#0000ff;stroke-width:0" /><path
           id="path158"
           d="m 948.27,343.74 0.24,0.27 0.25,0.26 0.23,0.24 0.23,0.24 0.22,0.23 0.22,0.23 0.21,0.21 0.2,0.21 0.21,0.2 0.19,0.2 0.19,0.19 0.19,0.18 0.19,0.18 0.18,0.17 0.35,0.33 0.34,0.32 0.33,0.3 0.33,0.3 0.33,0.28 0.64,0.56 0.33,0.29 0.33,0.28 c 0,0.05 3.08,2.69 4.88,4.49 4.73,4.64 5.83,7.03 5.83,7.22 0,0.5 -0.46,0.5 -0.55,0.5 -0.34,0 -0.5,-0.1 -0.75,-0.55 -1.49,-2.39 -2.53,-3.19 -3.73,-3.19 -1.21,0 -1.8,0.75 -2.55,1.6 -0.94,1.15 -1.78,2.14 -3.44,2.14 -3.73,0 -6.01,-4.63 -6.01,-5.67 0,-0.25 0.14,-0.55 0.59,-0.55 0.45,0 0.55,0.25 0.64,0.55 0.95,2.29 3.84,2.34 4.23,2.34 1.05,0 2,-0.36 3.14,-0.75 2,-0.75 2.55,-0.75 3.85,-0.75 -1.8,-2.14 -5.99,-5.74 -6.92,-6.53 l -4.49,-4.17 c -3.39,-3.35 -5.14,-6.19 -5.14,-6.54 0,-0.5 0.5,-0.5 0.6,-0.5 0.4,0 0.5,0.1 0.79,0.65 1.16,1.75 2.64,3.09 4.24,3.09 1.15,0 1.65,-0.45 2.89,-1.89 0.86,-1.05 1.75,-1.85 3.18,-1.85 4.94,0 7.83,6.33 7.83,7.68 0,0.25 -0.2,0.5 -0.59,0.5 -0.45,0 -0.55,-0.3 -0.7,-0.66 -1.14,-3.23 -4.33,-4.17 -5.99,-4.17 -0.98,0 -1.89,0.3 -2.94,0.64 -1.68,0.64 -2.43,0.84 -3.48,0.84 -0.09,0 -0.89,0 -1.34,-0.14 z"
           inkscape:connector-curvature="0"
           style="fill:#0000ff;stroke-width:0" /></g>    </g>
  </g>
  <g
     id="g5218"
     transform="matrix(1.3812556,0,0,1.7795822,-100.78932,-182.92991)"
     style="fill:#0000ff">
    <g
       word-spacing="normal"
       letter-spacing="normal"
       font-size-adjust="none"
       font-stretch="normal"
       font-weight="normal"
       font-variant="normal"
       font-style="normal"
       stroke-miterlimit="10.433"
       xml:space="preserve"
       transform="matrix(0.38553571,0,0,-0.38553571,-67.46875,284.1625)"
       id="content"
       style="font-style:normal;font-variant:normal;font-weight:normal;font-stretch:normal;letter-spacing:normal;word-spacing:normal;text-anchor:start;fill:#0000ff;fill-opacity:1;fill-rule:evenodd;stroke:#000000;stroke-linecap:butt;stroke-linejoin:miter;stroke-miterlimit:10.43299961;stroke-dasharray:none;stroke-dashoffset:0;stroke-opacity:1"><path
         id="path5169"
         d="m 473.8,404.88 h 4.28 c 1,0 1.5,0 1.5,1 0,0.55 -0.5,0.55 -1.34,0.55 h -4.14 l 1.04,5.69 c 0.21,1.04 0.91,4.58 1.21,5.17 0.45,0.95 1.29,1.7 2.34,1.7 0.19,0 1.49,0 2.44,-0.9 -2.19,-0.19 -2.69,-1.94 -2.69,-2.69 0,-1.14 0.89,-1.74 1.85,-1.74 1.29,0 2.73,1.1 2.73,2.99 0,2.3 -2.3,3.44 -4.33,3.44 -1.7,0 -4.84,-0.89 -6.33,-5.83 -0.29,-1.05 -0.45,-1.55 -1.64,-7.83 h -3.43 c -0.96,0 -1.5,0 -1.5,-0.94 0,-0.61 0.45,-0.61 1.39,-0.61 h 3.29 l -3.75,-19.67 c -0.89,-4.83 -1.73,-9.37 -4.33,-9.37 -0.2,0 -1.43,0 -2.39,0.9 2.3,0.14 2.74,1.94 2.74,2.69 0,1.14 -0.89,1.75 -1.85,1.75 -1.29,0 -2.73,-1.09 -2.73,-3 0,-2.23 2.19,-3.44 4.23,-3.44 2.74,0 4.74,2.94 5.63,4.85 1.59,3.14 2.75,9.15 2.8,9.51 z"
         inkscape:connector-curvature="0"
         style="fill:#0000ff;stroke-width:0" /><path
         id="path5171"
         d="m 501.77,373.01 v 0.02 l -0.01,0.03 v 0.01 0.02 0.01 l -0.01,0.02 v 0.02 l -0.01,0.01 -0.01,0.02 -0.01,0.02 -0.01,0.02 -0.01,0.03 -0.02,0.02 -0.02,0.03 -0.02,0.03 -0.02,0.03 -0.03,0.04 -0.03,0.03 -0.02,0.02 -0.01,0.02 -0.02,0.02 -0.02,0.02 -0.02,0.02 -0.02,0.03 -0.02,0.02 -0.02,0.02 -0.02,0.03 -0.03,0.03 -0.02,0.02 -0.03,0.03 -0.02,0.03 -0.03,0.03 -0.03,0.03 -0.03,0.03 -0.03,0.03 -0.03,0.03 -0.04,0.04 -0.03,0.03 -0.03,0.04 -0.04,0.03 -0.04,0.04 -0.04,0.04 c -6.22,6.28 -7.81,15.69 -7.81,23.31 0,8.68 1.89,17.35 8.01,23.57 0.65,0.61 0.65,0.7 0.65,0.86 0,0.34 -0.19,0.48 -0.49,0.48 -0.5,0 -4.98,-3.37 -7.92,-9.7 -2.55,-5.49 -3.14,-11.02 -3.14,-15.21 0,-3.89 0.55,-9.9 3.28,-15.54 2.98,-6.13 7.28,-9.36 7.78,-9.36 0.3,0 0.49,0.14 0.49,0.5 z"
         inkscape:connector-curvature="0"
         style="fill:#0000ff;stroke-width:0" /><path
         id="path5173"
         d="m 511.22,389.1 0.25,0.27 0.24,0.25 0.24,0.25 0.23,0.24 0.22,0.23 0.21,0.23 0.22,0.21 0.2,0.21 0.2,0.2 0.2,0.2 0.19,0.19 0.19,0.18 0.18,0.18 0.18,0.17 0.36,0.33 0.34,0.32 0.33,0.3 0.33,0.29 0.32,0.29 0.65,0.56 0.33,0.29 0.33,0.28 c 0,0.05 3.08,2.69 4.87,4.49 4.74,4.64 5.83,7.03 5.83,7.22 0,0.5 -0.45,0.5 -0.54,0.5 -0.35,0 -0.5,-0.1 -0.75,-0.55 -1.49,-2.39 -2.54,-3.19 -3.74,-3.19 -1.2,0 -1.8,0.75 -2.55,1.6 -0.93,1.15 -1.78,2.14 -3.43,2.14 -3.74,0 -6.02,-4.63 -6.02,-5.68 0,-0.25 0.14,-0.54 0.6,-0.54 0.45,0 0.54,0.25 0.64,0.54 0.95,2.3 3.84,2.35 4.23,2.35 1.05,0 2,-0.36 3.14,-0.75 2,-0.75 2.55,-0.75 3.84,-0.75 -1.79,-2.14 -5.98,-5.74 -6.92,-6.53 l -4.48,-4.17 c -3.39,-3.35 -5.14,-6.19 -5.14,-6.54 0,-0.5 0.5,-0.5 0.59,-0.5 0.41,0 0.5,0.1 0.8,0.64 1.16,1.75 2.64,3.1 4.23,3.1 1.16,0 1.66,-0.45 2.89,-1.89 0.86,-1.05 1.75,-1.85 3.19,-1.85 4.94,0 7.83,6.33 7.83,7.68 0,0.25 -0.2,0.5 -0.59,0.5 -0.46,0 -0.55,-0.3 -0.71,-0.66 -1.14,-3.23 -4.32,-4.17 -5.98,-4.17 -0.99,0 -1.89,0.29 -2.94,0.64 -1.69,0.64 -2.44,0.84 -3.48,0.84 -0.1,0 -0.89,0 -1.35,-0.14 z"
         inkscape:connector-curvature="0"
         style="fill:#0000ff;stroke-width:0" /><path
         id="path5175"
         d="m 544.3,397.41 v 0.37 l -0.01,0.39 v 0.39 l -0.02,0.41 -0.04,0.84 -0.06,0.88 -0.08,0.92 -0.11,0.95 -0.13,0.98 -0.16,1 -0.2,1.02 -0.23,1.04 -0.27,1.05 -0.3,1.06 -0.35,1.06 -0.39,1.07 -0.22,0.53 -0.22,0.53 -0.24,0.53 -0.25,0.53 c -2.99,6.13 -7.27,9.36 -7.77,9.36 -0.29,0 -0.5,-0.19 -0.5,-0.48 0,-0.16 0,-0.25 0.94,-1.16 4.89,-4.92 7.74,-12.84 7.74,-23.27 0,-8.51 -1.85,-17.28 -8.03,-23.56 -0.65,-0.59 -0.65,-0.7 -0.65,-0.84 0,-0.3 0.21,-0.5 0.5,-0.5 0.5,0 4.97,3.39 7.93,9.72 2.53,5.47 3.12,11 3.12,15.18 z"
         inkscape:connector-curvature="0"
         style="fill:#0000ff;stroke-width:0" /><path
         id="path5177"
         d="m 597.5,401.26 h 0.14 0.15 0.14 l 0.07,0.01 h 0.08 l 0.07,0.01 0.07,0.01 0.07,0.01 0.07,0.01 0.07,0.01 0.06,0.02 0.07,0.02 0.06,0.02 0.06,0.03 0.06,0.02 0.06,0.03 0.05,0.04 0.05,0.04 0.05,0.04 0.04,0.04 0.04,0.05 0.02,0.03 0.02,0.03 0.01,0.03 0.02,0.03 0.01,0.03 0.02,0.03 0.01,0.03 0.01,0.04 0.01,0.03 0.01,0.04 v 0.04 l 0.01,0.04 v 0.04 l 0.01,0.04 v 0.05 0.04 c 0,1 -0.95,1 -1.64,1 h -29.84 c -0.71,0 -1.64,0 -1.64,-1 0,-0.98 0.93,-0.98 1.68,-0.98 z"
         inkscape:connector-curvature="0"
         style="fill:#0000ff;stroke-width:0" /><path
         id="path5179"
         d="m 597.55,391.59 h 0.07 0.06 0.14 0.14 l 0.07,0.01 h 0.07 l 0.07,0.01 0.07,0.01 0.06,0.01 0.07,0.01 0.07,0.01 0.06,0.02 0.07,0.02 0.06,0.02 0.06,0.03 0.06,0.02 0.05,0.04 0.05,0.03 0.05,0.04 0.05,0.04 0.04,0.05 0.02,0.02 0.02,0.03 0.02,0.02 0.02,0.03 0.01,0.03 0.02,0.03 0.01,0.03 0.02,0.04 0.01,0.03 0.01,0.04 0.01,0.03 0.01,0.04 v 0.04 l 0.01,0.04 v 0.04 l 0.01,0.05 v 0.04 0.05 c 0,1 -0.95,1 -1.69,1 h -29.75 c -0.75,0 -1.68,0 -1.68,-1 0,-1 0.93,-1 1.64,-1 z"
         inkscape:connector-curvature="0"
         style="fill:#0000ff;stroke-width:0" /><path
         id="path5181"
         d="m 660.12,450.57 v 0.05 0.06 0.05 0.05 0.05 0.05 0.04 0.05 0.04 0.04 0.04 l -0.01,0.04 v 0.04 0.03 0.04 l -0.01,0.03 v 0.07 l -0.01,0.06 -0.02,0.05 -0.01,0.05 -0.02,0.05 -0.01,0.04 -0.03,0.04 -0.02,0.03 -0.03,0.04 -0.03,0.02 -0.04,0.03 -0.04,0.02 -0.04,0.02 -0.03,0.01 -0.02,0.01 h -0.03 l -0.02,0.01 -0.03,0.01 h -0.03 l -0.03,0.01 h -0.03 l -0.04,0.01 h -0.03 -0.04 l -0.03,0.01 h -0.04 -0.04 -0.05 -0.04 -0.04 l -0.05,0.01 h -0.05 -0.05 -0.05 -0.05 c -3.09,-3.19 -7.47,-3.19 -9.06,-3.19 v -1.55 c 1,0 3.93,0 6.51,1.3 v -25.81 c 0,-1.8 -0.14,-2.39 -4.62,-2.39 h -1.59 v -1.55 c 1.75,0.16 6.07,0.16 8.06,0.16 2,0 6.32,0 8.07,-0.16 v 1.55 h -1.59 c -4.48,0 -4.64,0.54 -4.64,2.39 z"
         inkscape:connector-curvature="0"
         style="fill:#0000ff;stroke-width:0" /><polyline
         id="polyline5183"
         points="622,396 694.36,396 694.36,398.04 622,398.04 "
         style="fill:#0000ff;fill-rule:nonzero;stroke-width:0" /><path
         id="path5185"
         d="m 628.17,354.61 5.28,5.12 c 7.77,6.88 10.77,9.56 10.77,14.55 0,5.68 -4.49,9.67 -10.57,9.67 -5.64,0 -9.33,-4.59 -9.33,-9.03 0,-2.78 2.5,-2.78 2.65,-2.78 0.85,0 2.59,0.59 2.59,2.64 0,1.29 -0.89,2.59 -2.64,2.59 -0.39,0 -0.5,0 -0.64,-0.05 1.14,3.24 3.82,5.08 6.72,5.08 4.53,0 6.68,-4.04 6.68,-8.12 0,-3.99 -2.5,-7.92 -5.23,-11.02 l -9.56,-10.65 c -0.57,-0.55 -0.57,-0.65 -0.57,-1.85 h 18.49 l 1.41,8.67 h -1.25 c -0.25,-1.5 -0.6,-3.68 -1.1,-4.43 -0.36,-0.39 -3.64,-0.39 -4.73,-0.39 z"
         inkscape:connector-curvature="0"
         style="fill:#0000ff;stroke-width:0" /><path
         id="path5187"
         d="m 660,369.34 h 5.62 c -1.64,-7.38 -2.09,-9.52 -2.09,-12.84 0,-0.75 0,-2.1 0.41,-3.8 0.5,-2.19 1.04,-2.49 1.79,-2.49 0.99,0 2.04,0.9 2.04,1.9 0,0.29 0,0.4 -0.3,1.09 -1.44,3.59 -1.44,6.83 -1.44,8.22 0,2.64 0.35,5.34 0.89,7.92 h 5.69 c 0.64,0 2.44,0 2.44,1.7 0,1.19 -1.05,1.19 -2,1.19 h -16.69 c -1.09,0 -2.98,0 -5.17,-2.34 -1.75,-1.94 -3.05,-4.24 -3.05,-4.49 0,-0.04 0,-0.48 0.59,-0.48 0.41,0 0.5,0.19 0.8,0.59 2.45,3.83 5.35,3.83 6.33,3.83 h 2.84 c -1.59,-6.02 -4.28,-12.05 -6.37,-16.58 -0.41,-0.75 -0.41,-0.86 -0.41,-1.2 0,-0.95 0.8,-1.35 1.46,-1.35 1.5,0 1.89,1.4 2.48,3.24 0.7,2.3 0.7,2.39 1.34,4.89 z"
         inkscape:connector-curvature="0"
         style="fill:#0000ff;stroke-width:0" /><path
         id="path5189"
         d="m 691.19,381.9 v 0.1 l -0.01,0.09 -0.01,0.09 -0.01,0.09 -0.02,0.08 -0.02,0.09 -0.03,0.08 -0.03,0.08 -0.03,0.08 -0.04,0.08 -0.04,0.08 -0.04,0.07 -0.05,0.07 -0.05,0.07 -0.06,0.06 -0.05,0.07 -0.06,0.05 -0.07,0.06 -0.07,0.05 -0.07,0.05 -0.07,0.05 -0.08,0.04 -0.08,0.04 -0.08,0.04 -0.09,0.03 -0.09,0.03 -0.09,0.02 -0.1,0.02 -0.09,0.02 -0.1,0.01 -0.11,0.01 h -0.1 c -1.36,0 -2.7,-1.3 -2.7,-2.64 0,-0.95 0.7,-1.8 1.9,-1.8 1.14,0 2.64,1.14 2.64,2.64 z"
         inkscape:connector-curvature="0"
         style="fill:#0000ff;stroke-width:0" /><path
         id="path5191"
         d="m 687.4,363.17 0.05,0.13 0.05,0.12 0.05,0.12 0.04,0.11 0.04,0.1 0.04,0.1 0.04,0.1 0.04,0.09 0.03,0.08 0.03,0.08 0.03,0.08 0.03,0.08 0.03,0.07 0.02,0.08 0.06,0.14 0.05,0.14 0.05,0.14 0.03,0.08 0.02,0.07 0.03,0.08 0.03,0.08 0.03,0.09 0.03,0.09 0.04,0.09 0.03,0.1 0.04,0.1 0.04,0.11 0.04,0.12 0.05,0.12 c 0.41,1 0.66,1.69 0.66,2.64 0,2.23 -1.6,4.08 -4.1,4.08 -4.67,0 -6.58,-7.22 -6.58,-7.67 0,-0.5 0.5,-0.5 0.61,-0.5 0.5,0 0.55,0.1 0.8,0.9 1.34,4.69 3.33,6.17 5.03,6.17 0.39,0 1.25,0 1.25,-1.59 0,-1.05 -0.36,-2.09 -0.56,-2.59 -0.39,-1.3 -2.64,-7.07 -3.44,-9.22 -0.48,-1.28 -1.14,-2.94 -1.14,-3.99 0,-2.33 1.69,-4.08 4.09,-4.08 4.67,0 6.52,7.22 6.52,7.68 0,0.5 -0.44,0.5 -0.6,0.5 -0.5,0 -0.5,-0.16 -0.75,-0.91 -0.88,-3.12 -2.53,-6.17 -5.07,-6.17 -0.85,0 -1.21,0.5 -1.21,1.64 0,1.25 0.32,1.95 1.46,4.98 z"
         inkscape:connector-curvature="0"
         style="fill:#0000ff;stroke-width:0" /><path
         id="path5193"
         d="m 713.55,344.29 0.14,0.02 0.15,0.01 0.14,0.03 0.13,0.03 0.13,0.03 0.12,0.04 0.12,0.05 0.12,0.05 0.11,0.05 0.11,0.06 0.1,0.06 0.1,0.07 0.09,0.07 0.09,0.07 0.08,0.08 0.08,0.08 0.08,0.09 0.07,0.08 0.06,0.1 0.06,0.09 0.06,0.1 0.05,0.1 0.05,0.1 0.04,0.1 0.03,0.11 0.04,0.1 0.02,0.11 0.02,0.12 0.02,0.11 0.01,0.11 0.01,0.12 v 0.12 c 0,1.64 -1.25,2.43 -2.39,2.43 -1.2,0 -2.43,-0.75 -2.43,-2.48 0,-2.55 2.48,-4.64 5.51,-4.64 7.58,0 10.42,11.65 13.95,26.11 3.85,15.73 7.08,31.64 9.77,47.62 1.84,10.61 3.69,20.58 5.39,27 0.6,2.46 2.28,8.88 4.24,8.88 1.53,0 2.78,-0.96 2.98,-1.14 -1.64,-0.11 -2.48,-1.21 -2.48,-2.46 0,-1.64 1.23,-2.43 2.39,-2.43 1.18,0 2.43,0.75 2.43,2.48 0,2.7 -2.68,4.64 -5.43,4.64 -3.79,0 -6.58,-5.44 -9.32,-15.59 -0.15,-0.55 -6.92,-25.56 -12.4,-58.14 -1.3,-7.63 -2.74,-15.94 -4.39,-22.88 -0.89,-3.62 -3.19,-13 -7.22,-13 -1.8,0 -2.99,1.14 -3.03,1.14 z"
         inkscape:connector-curvature="0"
         style="fill:#0000ff;stroke-width:0" /><path
         id="path5195"
         d="m 751.54,344.48 -0.01,0.1 -0.01,0.11 -0.03,0.24 -0.03,0.28 -0.04,0.3 -0.05,0.33 -0.06,0.36 -0.07,0.38 -0.07,0.39 -0.09,0.41 -0.11,0.43 -0.11,0.43 -0.13,0.45 -0.14,0.44 -0.15,0.45 -0.17,0.45 -0.19,0.45 -0.2,0.44 -0.22,0.43 -0.23,0.42 -0.25,0.41 -0.28,0.39 -0.29,0.37 -0.31,0.35 -0.33,0.32 -0.35,0.29 -0.19,0.14 -0.19,0.13 -0.2,0.12 -0.2,0.11 -0.21,0.1 -0.21,0.09 -0.22,0.09 -0.22,0.07 -0.24,0.06 -0.23,0.06 -0.25,0.04 -0.25,0.03 -0.25,0.01 -0.27,0.01 c -2.04,0 -3.83,-1.11 -4.79,-2.01 -2.13,-1.93 -2.55,-4.15 -2.55,-4.25 0,-0.43 0.45,-0.43 0.56,-0.43 0.44,0 0.49,0.08 0.66,0.6 0.73,2.06 3.31,3.31 5.64,3.31 5.61,0 6.34,-5.61 6.34,-9.16 0,-1.75 -0.11,-2.12 -0.25,-2.51 -0.8,-2.61 -1.84,-6.49 -1.84,-7.53 0,-0.38 0.14,-0.83 0.59,-0.83 0.25,0 0.63,0 1.19,1.81 0.42,1.36 1.08,3.94 1.36,6.44 0.14,1.22 2.09,5.92 2.83,7.59 0.48,1.1 1.22,2.72 2.84,5.75 0.11,0.19 0.19,0.31 0.19,0.46 0,0.42 -0.46,0.42 -0.56,0.42 -0.11,0 -0.43,0 -0.54,-0.17 -0.4,-0.74 -3.06,-5.72 -4.62,-9.97 z"
         inkscape:connector-curvature="0"
         style="fill:#0000ff;stroke-width:0" /><path
         id="path5197"
         d="m 802.96,438.6 h 4.28 c 1,0 1.5,0 1.5,1 0,0.55 -0.5,0.55 -1.34,0.55 h -4.14 l 1.04,5.69 c 0.21,1.04 0.91,4.57 1.21,5.17 0.45,0.95 1.29,1.7 2.34,1.7 0.19,0 1.49,0 2.44,-0.91 -2.19,-0.18 -2.69,-1.93 -2.69,-2.68 0,-1.14 0.89,-1.74 1.85,-1.74 1.29,0 2.73,1.1 2.73,2.99 0,2.29 -2.3,3.43 -4.33,3.43 -1.7,0 -4.84,-0.89 -6.33,-5.82 -0.29,-1.05 -0.45,-1.55 -1.64,-7.83 h -3.43 c -0.96,0 -1.5,0 -1.5,-0.94 0,-0.61 0.45,-0.61 1.39,-0.61 h 3.29 l -3.75,-19.67 c -0.89,-4.83 -1.73,-9.38 -4.33,-9.38 -0.2,0 -1.43,0 -2.39,0.91 2.3,0.14 2.74,1.94 2.74,2.69 0,1.14 -0.89,1.75 -1.85,1.75 -1.29,0 -2.73,-1.1 -2.73,-3 0,-2.24 2.19,-3.44 4.23,-3.44 2.74,0 4.74,2.94 5.63,4.84 1.59,3.15 2.75,9.16 2.8,9.52 z"
         inkscape:connector-curvature="0"
         style="fill:#0000ff;stroke-width:0" /><path
         id="path5199"
         d="m 830.92,406.73 v 0.02 0.03 0.01 0.02 l -0.01,0.01 v 0.02 l -0.01,0.01 v 0.02 l -0.01,0.02 -0.01,0.02 -0.01,0.02 -0.02,0.03 -0.01,0.02 -0.02,0.03 -0.02,0.03 -0.03,0.03 -0.02,0.03 -0.03,0.04 -0.02,0.02 -0.02,0.02 -0.01,0.02 -0.02,0.02 -0.02,0.02 -0.02,0.03 -0.02,0.02 -0.02,0.02 -0.03,0.03 -0.02,0.02 -0.03,0.03 -0.02,0.03 -0.03,0.03 -0.02,0.03 -0.03,0.03 -0.03,0.03 -0.03,0.03 -0.04,0.03 -0.03,0.04 -0.03,0.03 -0.04,0.04 -0.04,0.03 -0.03,0.04 -0.04,0.04 c -6.22,6.28 -7.81,15.69 -7.81,23.31 0,8.67 1.89,17.35 8.01,23.57 0.64,0.6 0.64,0.7 0.64,0.85 0,0.35 -0.19,0.49 -0.48,0.49 -0.5,0 -4.99,-3.38 -7.92,-9.7 -2.55,-5.49 -3.14,-11.02 -3.14,-15.21 0,-3.89 0.54,-9.9 3.28,-15.54 2.98,-6.13 7.28,-9.36 7.78,-9.36 0.29,0 0.48,0.14 0.48,0.5 z"
         inkscape:connector-curvature="0"
         style="fill:#0000ff;stroke-width:0" /><path
         id="path5201"
         d="m 863.9,437.21 -0.01,0.21 -0.01,0.2 -0.01,0.2 -0.02,0.19 -0.02,0.18 -0.02,0.18 -0.04,0.17 -0.03,0.16 -0.04,0.16 -0.05,0.16 -0.04,0.14 -0.05,0.14 -0.06,0.14 -0.06,0.12 -0.06,0.12 -0.07,0.12 -0.07,0.1 -0.07,0.1 -0.07,0.1 -0.08,0.09 -0.08,0.08 -0.08,0.07 -0.09,0.07 -0.09,0.06 -0.09,0.05 -0.09,0.05 -0.09,0.04 -0.1,0.03 -0.1,0.02 -0.1,0.02 -0.1,0.01 -0.1,0.01 c -1.3,0 -2.64,-1.19 -2.64,-2.35 0,-0.48 0.23,-1.03 0.73,-1.48 0.86,-0.75 1.75,-2.1 1.75,-4.19 0,-2 -0.95,-4.83 -2.48,-7.13 -1.5,-2.14 -3.34,-3.82 -5.69,-3.82 -2.84,0 -4.39,1.78 -4.83,4.47 0.55,1.29 1.69,4.48 1.69,5.89 0,0.59 -0.25,1.09 -0.89,1.09 -0.4,0 -0.95,-0.11 -1.34,-0.84 -0.55,-1 -1.16,-4.24 -1.16,-6.04 -1.64,-2.34 -3.62,-4.57 -6.77,-4.57 -3.29,0 -4.34,2.93 -4.34,5.72 0,6.23 5.09,11.46 5.09,12.1 0,0.55 -0.4,0.96 -0.95,0.96 -0.65,0 -1,-0.66 -1.3,-1.11 -2.54,-3.69 -4.43,-9.61 -4.43,-14.14 0,-3.44 1.15,-7.13 5.23,-7.13 3.53,0 5.88,2.49 7.67,5.24 0.46,-2.89 2.4,-5.24 5.49,-5.24 3.89,0 6.28,3.03 8.06,6.78 1.2,2.44 3.1,9.21 3.1,12.3 z"
         inkscape:connector-curvature="0"
         style="fill:#0000ff;stroke-width:0" /><path
         id="path5203"
         d="m 880.9,431.13 v 0.37 0.39 l -0.01,0.39 -0.02,0.41 -0.04,0.84 -0.06,0.88 -0.08,0.92 -0.11,0.95 -0.13,0.98 -0.16,1 -0.2,1.02 -0.23,1.03 -0.27,1.06 -0.3,1.05 -0.35,1.07 -0.39,1.07 -0.22,0.53 -0.22,0.53 -0.24,0.53 -0.25,0.53 c -2.98,6.12 -7.27,9.36 -7.77,9.36 -0.29,0 -0.5,-0.19 -0.5,-0.49 0,-0.15 0,-0.25 0.94,-1.15 4.89,-4.92 7.74,-12.85 7.74,-23.27 0,-8.51 -1.85,-17.28 -8.03,-23.56 -0.65,-0.59 -0.65,-0.7 -0.65,-0.84 0,-0.3 0.21,-0.5 0.5,-0.5 0.5,0 4.97,3.39 7.93,9.72 2.53,5.46 3.12,11 3.12,15.18 z"
         inkscape:connector-curvature="0"
         style="fill:#0000ff;stroke-width:0" /><polyline
         id="polyline5205"
         points="776,396 895.04,396 895.04,398.04 776,398.04 "
         style="fill:#0000ff;fill-rule:nonzero;stroke-width:0" /><path
         id="path5207"
         d="m 805.94,369.29 v 0.21 l -0.01,0.2 -0.01,0.2 -0.02,0.19 -0.02,0.18 -0.03,0.18 -0.03,0.17 -0.04,0.17 -0.03,0.16 -0.05,0.15 -0.05,0.14 -0.05,0.14 -0.05,0.14 -0.06,0.12 -0.07,0.12 -0.06,0.12 -0.07,0.11 -0.07,0.1 -0.08,0.09 -0.07,0.09 -0.08,0.08 -0.09,0.07 -0.08,0.07 -0.09,0.06 -0.09,0.05 -0.09,0.05 -0.1,0.04 -0.09,0.03 -0.1,0.02 -0.1,0.02 -0.1,0.01 -0.1,0.01 c -1.3,0 -2.64,-1.19 -2.64,-2.35 0,-0.48 0.23,-1.03 0.73,-1.48 0.86,-0.75 1.75,-2.09 1.75,-4.19 0,-2 -0.95,-4.83 -2.48,-7.12 -1.5,-2.14 -3.35,-3.83 -5.69,-3.83 -2.85,0 -4.39,1.78 -4.83,4.47 0.55,1.29 1.69,4.48 1.69,5.89 0,0.59 -0.25,1.09 -0.89,1.09 -0.41,0 -0.95,-0.11 -1.35,-0.84 -0.54,-1 -1.15,-4.24 -1.15,-6.03 -1.64,-2.35 -3.63,-4.58 -6.77,-4.58 -3.3,0 -4.34,2.94 -4.34,5.72 0,6.23 5.09,11.47 5.09,12.11 0,0.54 -0.4,0.95 -0.95,0.95 -0.66,0 -1,-0.66 -1.3,-1.11 -2.55,-3.69 -4.43,-9.61 -4.43,-14.14 0,-3.44 1.15,-7.13 5.23,-7.13 3.53,0 5.87,2.49 7.67,5.24 0.45,-2.89 2.39,-5.24 5.48,-5.24 3.9,0 6.29,3.04 8.07,6.79 1.2,2.43 3.09,9.2 3.09,12.29 z"
         inkscape:connector-curvature="0"
         style="fill:#0000ff;stroke-width:0" /><path
         id="path5209"
         d="m 852.55,362.21 0.16,0.01 h 0.15 0.16 l 0.08,0.01 h 0.08 l 0.07,0.01 0.08,0.01 0.07,0.01 0.07,0.01 0.07,0.01 0.07,0.02 0.07,0.02 0.06,0.02 0.06,0.02 0.06,0.03 0.05,0.03 0.06,0.04 0.05,0.04 0.04,0.04 0.04,0.05 0.04,0.05 0.02,0.02 0.02,0.03 0.01,0.03 0.02,0.03 0.01,0.03 0.01,0.04 0.02,0.03 0.01,0.03 0.01,0.04 v 0.04 l 0.01,0.04 0.01,0.04 v 0.04 0.04 l 0.01,0.05 v 0.04 c 0,1 -0.91,1 -1.75,1 h -26.96 c -0.84,0 -1.73,0 -1.73,-1 0,-1 0.89,-1 1.73,-1 z"
         inkscape:connector-curvature="0"
         style="fill:#0000ff;stroke-width:0" /><path
         id="path5211"
         d="m 876.14,354.9 0.25,0.27 0.24,0.26 0.24,0.24 0.22,0.24 0.23,0.23 0.21,0.23 0.21,0.21 0.21,0.21 0.2,0.2 0.2,0.2 0.19,0.19 0.19,0.18 0.18,0.18 0.18,0.17 0.35,0.33 0.34,0.32 0.34,0.3 0.33,0.3 0.32,0.28 0.65,0.56 0.32,0.29 0.34,0.28 c 0,0.05 3.08,2.69 4.87,4.49 4.74,4.64 5.83,7.03 5.83,7.22 0,0.5 -0.45,0.5 -0.55,0.5 -0.34,0 -0.5,-0.1 -0.75,-0.55 -1.48,-2.39 -2.53,-3.19 -3.73,-3.19 -1.2,0 -1.8,0.75 -2.55,1.6 -0.93,1.15 -1.78,2.14 -3.43,2.14 -3.74,0 -6.02,-4.63 -6.02,-5.67 0,-0.25 0.14,-0.55 0.59,-0.55 0.46,0 0.55,0.25 0.64,0.55 0.96,2.29 3.85,2.34 4.24,2.34 1.05,0 2,-0.36 3.14,-0.75 2,-0.75 2.55,-0.75 3.84,-0.75 -1.79,-2.14 -5.98,-5.74 -6.92,-6.53 l -4.48,-4.17 c -3.39,-3.35 -5.14,-6.19 -5.14,-6.54 0,-0.5 0.5,-0.5 0.59,-0.5 0.41,0 0.5,0.1 0.8,0.65 1.15,1.75 2.64,3.09 4.23,3.09 1.16,0 1.66,-0.45 2.89,-1.89 0.86,-1.05 1.75,-1.85 3.19,-1.85 4.94,0 7.83,6.33 7.83,7.68 0,0.25 -0.21,0.5 -0.6,0.5 -0.45,0 -0.54,-0.3 -0.7,-0.66 -1.14,-3.23 -4.33,-4.17 -5.98,-4.17 -0.99,0 -1.89,0.3 -2.94,0.64 -1.69,0.64 -2.44,0.84 -3.49,0.84 -0.09,0 -0.89,0 -1.34,-0.14 z"
         inkscape:connector-curvature="0"
         style="fill:#0000ff;stroke-width:0" /><path
         id="path5213"
         d="m 934.82,418.99 v 0 0.01 0.01 0.01 0.01 0.01 0.02 0.02 l -0.01,0.02 v 0.02 l -0.01,0.02 v 0.02 l -0.01,0.03 -0.01,0.02 -0.01,0.02 -0.01,0.03 -0.02,0.02 -0.01,0.03 -0.02,0.02 -0.02,0.03 -0.02,0.02 -0.01,0.01 -0.02,0.01 -0.01,0.01 -0.01,0.01 -0.02,0.01 -0.01,0.01 -0.02,0.01 -0.02,0.01 -0.01,0.01 -0.02,0.01 -0.02,0.01 h -0.02 l -0.02,0.01 -0.02,0.01 h -0.02 l -0.02,0.01 h -0.03 l -0.02,0.01 h -0.03 -0.02 l -0.03,0.01 h -0.03 -0.03 -0.03 c -0.75,0 -5.48,-0.45 -6.33,-0.55 -0.4,-0.04 -0.7,-0.29 -0.7,-0.95 0,-0.59 0.45,-0.59 1.2,-0.59 2.4,0 2.49,-0.35 2.49,-0.85 l -0.14,-1 -3,-11.81 c -0.89,1.84 -2.35,3.19 -4.58,3.19 l 0.05,-1.1 c 3.23,0 3.93,-4.08 3.93,-4.37 0,-0.31 -0.09,-0.61 -0.13,-0.86 l -2.5,-9.77 c -0.25,-0.89 -0.25,-0.98 -1,-1.84 -2.19,-2.74 -4.24,-3.53 -5.63,-3.53 -2.49,0 -3.19,2.73 -3.19,4.69 0,2.48 1.6,8.6 2.74,10.9 1.54,2.94 3.79,4.78 5.78,4.78 l -0.05,1.1 c -5.83,0 -12,-7.32 -12,-14.6 0,-4.68 2.73,-7.97 6.63,-7.97 0.98,0 3.48,0.21 6.47,3.74 0.4,-2.1 2.13,-3.74 4.53,-3.74 1.75,0 2.89,1.14 3.68,2.74 0.85,1.8 1.5,4.84 1.5,4.94 0,0.5 -0.45,0.5 -0.59,0.5 -0.5,0 -0.55,-0.21 -0.7,-0.91 -0.85,-3.23 -1.75,-6.17 -3.79,-6.17 -1.34,0 -1.5,1.29 -1.5,2.29 0,1.19 0.1,1.55 0.3,2.4 z"
         inkscape:connector-curvature="0"
         style="fill:#0000ff;stroke-width:0" /><path
         id="path5215"
         d="m 965.18,403.49 v 0.21 l -0.01,0.2 -0.01,0.2 -0.02,0.19 -0.02,0.18 -0.03,0.18 -0.03,0.17 -0.04,0.17 -0.04,0.15 -0.04,0.16 -0.05,0.14 -0.05,0.14 -0.06,0.14 -0.05,0.12 -0.07,0.12 -0.06,0.12 -0.07,0.11 -0.07,0.1 -0.08,0.09 -0.08,0.09 -0.08,0.08 -0.08,0.07 -0.09,0.07 -0.08,0.06 -0.09,0.05 -0.1,0.05 -0.09,0.04 -0.1,0.03 -0.09,0.02 -0.1,0.02 -0.1,0.01 -0.1,0.01 c -1.3,0 -2.65,-1.19 -2.65,-2.35 0,-0.48 0.24,-1.03 0.74,-1.48 0.86,-0.75 1.75,-2.1 1.75,-4.19 0,-2 -0.95,-4.83 -2.49,-7.12 -1.5,-2.14 -3.34,-3.83 -5.68,-3.83 -2.85,0 -4.39,1.78 -4.83,4.47 0.55,1.29 1.69,4.48 1.69,5.89 0,0.59 -0.25,1.09 -0.89,1.09 -0.41,0 -0.96,-0.11 -1.35,-0.84 -0.54,-1 -1.15,-4.24 -1.15,-6.03 -1.64,-2.35 -3.63,-4.58 -6.77,-4.58 -3.3,0 -4.34,2.94 -4.34,5.72 0,6.23 5.09,11.47 5.09,12.11 0,0.54 -0.41,0.95 -0.95,0.95 -0.66,0 -1,-0.66 -1.3,-1.11 -2.55,-3.69 -4.44,-9.61 -4.44,-14.14 0,-3.44 1.16,-7.13 5.24,-7.13 3.53,0 5.87,2.49 7.67,5.24 0.45,-2.89 2.39,-5.24 5.48,-5.24 3.89,0 6.28,3.04 8.07,6.79 1.2,2.43 3.09,9.2 3.09,12.29 z"
         inkscape:connector-curvature="0"
         style="fill:#0000ff;stroke-width:0" /></g>  </g>
</svg>
